<?xml version="1.0" encoding="UTF-8"?>
<svg width="3300px" height="2200px" viewBox="0 0 3300 2200" version="1.1" xmlns="http://www.w3.org/2000/svg" xmlns:xlink="http://www.w3.org/1999/xlink">
    <title>broken.heart.fill-2</title>
    <g id="Page-1" stroke="none" stroke-width="1" fill="none" fill-rule="evenodd">
        <g id="broken.heart.fill-2">
            <g id="Notes">
                <rect id="artboard" fill="#FFFFFF" fill-rule="nonzero" x="0" y="0" width="3300" height="2200"></rect>
                <line x1="263" y1="292" x2="3036" y2="292" id="Path" stroke="#000000" stroke-width="0.5"></line>
                <text id="Weight/Scale-Variations" fill="#000000" fill-rule="nonzero" font-family="Helvetica-Bold, Helvetica" font-size="13" font-weight="bold">
                    <tspan x="263" y="322">Weight/Scale Variations</tspan>
                </text>
                <text id="Ultralight" fill="#000000" fill-rule="nonzero" font-family="Helvetica" font-size="13" font-weight="normal">
                    <tspan x="533.711" y="322">Ultralight</tspan>
                </text>
                <text id="Thin" fill="#000000" fill-rule="nonzero" font-family="Helvetica" font-size="13" font-weight="normal">
                    <tspan x="843.422" y="322">Thin</tspan>
                </text>
                <text id="Light" fill="#000000" fill-rule="nonzero" font-family="Helvetica" font-size="13" font-weight="normal">
                    <tspan x="1138.63" y="322">Light</tspan>
                </text>
                <text id="Regular" fill="#000000" fill-rule="nonzero" font-family="Helvetica" font-size="13" font-weight="normal">
                    <tspan x="1426.84" y="322">Regular</tspan>
                </text>
                <text id="Medium" fill="#000000" fill-rule="nonzero" font-family="Helvetica" font-size="13" font-weight="normal">
                    <tspan x="1723.06" y="322">Medium</tspan>
                </text>
                <text id="Semibold" fill="#000000" fill-rule="nonzero" font-family="Helvetica" font-size="13" font-weight="normal">
                    <tspan x="2015.77" y="322">Semibold</tspan>
                </text>
                <text id="Bold" fill="#000000" fill-rule="nonzero" font-family="Helvetica" font-size="13" font-weight="normal">
                    <tspan x="2326.48" y="322">Bold</tspan>
                </text>
                <text id="Heavy" fill="#000000" fill-rule="nonzero" font-family="Helvetica" font-size="13" font-weight="normal">
                    <tspan x="2618.19" y="322">Heavy</tspan>
                </text>
                <text id="Black" fill="#000000" fill-rule="nonzero" font-family="Helvetica" font-size="13" font-weight="normal">
                    <tspan x="2917.4" y="322">Black</tspan>
                </text>
                <line x1="263" y1="1903" x2="3036" y2="1903" id="Path" stroke="#000000" stroke-width="0.5"></line>
                <g id="Group" transform="translate(264.000000, 1918.000000)" fill="#000000" fill-rule="nonzero">
                    <path d="M8.24805,15.830078 C12.5547,15.830078 16.1387,12.25586 16.1387,7.94922 C16.1387,3.6426 12.5449,0.0684 8.23828,0.0684 C3.94141,0.0684 0.36719,3.6426 0.36719,7.94922 C0.36719,12.25586 3.95117,15.830078 8.24805,15.830078 Z M8.24805,14.345703 C4.70312,14.345703 1.87109,11.50391 1.87109,7.94922 C1.87109,4.3945 4.69336,1.5527 8.23828,1.5527 C11.793,1.5527 14.6348,4.3945 14.6445252,7.94922 C14.6543,11.50391 11.8027,14.345703 8.24805,14.345703 Z M8.22852,11.37695 C8.69727,11.37695 8.9707,11.06445 8.9707,10.54688 L8.9707,8.68164 L11.002,8.68164 C11.5,8.68164 11.832,8.42773 11.832,7.95898 C11.832,7.48047 11.5195,7.2168 11.002,7.2168 L8.9707,7.2168 L8.9707,5.18555 C8.9707,4.668 8.69727,4.3457 8.22852,4.3457 C7.75977,4.3457 7.50586,4.6875 7.50586,5.18555 L7.50586,7.2168 L5.49414,7.2168 C4.97656,7.2168 4.64453,7.48047 4.64453,7.95898 C4.64453,8.42773 4.99609,8.68164 5.49414,8.68164 L7.50586,8.68164 L7.50586,10.54688 C7.50586,11.04492 7.75977,11.37695 8.22852,11.37695 Z" id="Shape"></path>
                </g>
                <g id="Group" transform="translate(282.506000, 1915.000000)" fill="#000000" fill-rule="nonzero">
                    <path d="M10.709,20.91016 C16.1582,20.91016 20.6699,16.38867 20.6699,10.94922 C20.6699,5.5 16.1484,0.9883 10.6992,0.9883 C5.25977,0.9883 0.74805,5.5 0.74805,10.94922 C0.74805,16.38867 5.26953,20.91016 10.709,20.91016 Z M10.709,19.25 C6.09961,19.25 2.41797,15.55859 2.41797,10.94922 C2.41797,6.3398 6.08984,2.6484 10.6992,2.6484 C15.3086,2.6484 19,6.3398 19.009819,10.94922 C19.0195,15.55859 15.3184,19.25 10.709,19.25 Z M10.6797,15.33398 C11.207,15.33398 11.5098,14.98242 11.5098,14.40625 L11.5098,11.76953 L14.3223,11.76953 C14.8691,11.76953 15.25,11.48633 15.25,10.96875 C15.25,10.44141 14.8887,10.13867 14.3223,10.13867 L11.5098,10.13867 L11.5098,7.3164 C11.5098,6.75 11.207,6.3887 10.6797,6.3887 C10.1621,6.3887 9.8789,6.7695 9.8789,7.3164 L9.8789,10.13867 L7.07617,10.13867 C6.50977,10.13867 6.13867,10.44141 6.13867,10.96875 C6.13867,11.48633 6.5293,11.76953 7.07617,11.76953 L9.8789,11.76953 L9.8789,14.40625 C9.8789,14.96289 10.1621,15.33398 10.6797,15.33398 Z" id="Shape"></path>
                </g>
                <g id="Group" transform="translate(306.924000, 1913.000000)" fill="#000000" fill-rule="nonzero">
                    <path d="M12.9707,25.66406 C19.9336,25.66406 25.6953,19.9023438 25.6953,12.94922 C25.6953,5.9863 19.9238,0.2246 12.9609,0.2246 C6.00781,0.2246 0.25586,5.9863 0.25586,12.94922 C0.25586,19.9023438 6.01758,25.66406 12.9707,25.66406 Z M12.9707,23.84766 C6.93555,23.84766 2.08203,18.98438 2.08203,12.94922 C2.08203,6.9043 6.92578,2.0508 12.9609,2.0508 C19.0059,2.0508 23.8594,6.9043 23.8691148,12.94922 C23.8789,18.98438 19.0156,23.84766 12.9707,23.84766 Z M12.9414,18.61328 C13.5176,18.61328 13.8594,18.22266 13.8594,17.61719 L13.8594,13.86719 L17.7754,13.86719 C18.3711,13.86719 18.7812,13.53516 18.7812,12.97852 C18.7812,12.40234 18.3906,12.06055 17.7754,12.06055 L13.8594,12.06055 L13.8594,8.1348 C13.8594,7.5195 13.5176,7.1289 12.9414,7.1289 C12.375,7.1289 12.0527,7.5391 12.0527,8.1348 L12.0527,12.06055 L8.1465,12.06055 C7.53125,12.06055 7.13086,12.40234 7.13086,12.97852 C7.13086,13.53516 7.55078,13.86719 8.1465,13.86719 L12.0527,13.86719 L12.0527,17.61719 C12.0527,18.20312 12.375,18.61328 12.9414,18.61328 Z" id="Shape"></path>
                </g>
                <text id="Design-Variations" fill="#000000" fill-rule="nonzero" font-family="Helvetica-Bold, Helvetica" font-size="13" font-weight="bold">
                    <tspan x="263" y="1953">Design Variations</tspan>
                </text>
                <text id="Symbols-are-supported-in-up-to-nine-weights-and-three-scales." fill="#000000" fill-rule="nonzero" font-family="Helvetica" font-size="13" font-weight="normal">
                    <tspan x="263" y="1971">Symbols are supported in up to nine weights and three scales.</tspan>
                </text>
                <text id="For-optimal-layout-with-text-and-other-symbols,-vertically-align" fill="#000000" fill-rule="nonzero" font-family="Helvetica" font-size="13" font-weight="normal">
                    <tspan x="263" y="1989">For optimal layout with text and other symbols, vertically align</tspan>
                </text>
                <text id="symbols-with-the-adjacent-text." fill="#000000" fill-rule="nonzero" font-family="Helvetica" font-size="13" font-weight="normal">
                    <tspan x="263" y="2007">symbols with the adjacent text.</tspan>
                </text>
                <line x1="776" y1="1919" x2="776" y2="1933" id="Path" stroke="#00AEEF" stroke-width="0.5"></line>
                <g id="Group" transform="translate(778.000000, 1918.000000)" fill="#000000" fill-rule="nonzero">
                    <path d="M1.31055,15.126953 C1.82812,15.126953 2.08203,14.9316406 2.26758,14.394531 L3.52734,10.9375 L9.2891,10.9375 L10.5488,14.394531 C10.7344,14.9316406 10.9883,15.126953 11.4961,15.126953 C12.0137,15.126953 12.3457,14.814453 12.3457,14.326172 C12.3457,14.160156 12.3164,14.013672 12.2383,13.79883 L7.6582,1.6113 C7.43359,1.0059 7.0332,0.7129 6.4082,0.7129 C5.80273,0.7129 5.39258,1.0059 5.17773,1.6016 L0.59766,13.80859 C0.51953,14.023438 0.49023,14.169922 0.49023,14.335938 C0.49023,14.824219 0.80273,15.126953 1.31055,15.126953 Z M4.00586,9.46289 L6.37891,2.8906 L6.42773,2.8906 L8.8008,9.46289 L4.00586,9.46289 Z" id="Shape"></path>
                </g>
                <line x1="792.836" y1="1919" x2="792.836" y2="1933" id="Path" stroke="#00AEEF" stroke-width="0.5"></line>
                <text id="Margins" fill="#000000" fill-rule="nonzero" font-family="Helvetica-Bold, Helvetica" font-size="13" font-weight="bold">
                    <tspan x="776" y="1953">Margins</tspan>
                </text>
                <text id="Leading-and-trailing-margins-on-the-left-and-right-side-of-each-symbol" fill="#000000" fill-rule="nonzero" font-family="Helvetica" font-size="13" font-weight="normal">
                    <tspan x="776" y="1971">Leading and trailing margins on the left and right side of each symbol</tspan>
                </text>
                <text id="can-be-adjusted-by-modifying-the-x-location-of-the-margin-guidelines." fill="#000000" fill-rule="nonzero" font-family="Helvetica" font-size="13" font-weight="normal">
                    <tspan x="776" y="1989">can be adjusted by modifying the x-location of the margin guidelines.</tspan>
                </text>
                <text id="Modifications-are-automatically-applied-proportionally-to-all" fill="#000000" fill-rule="nonzero" font-family="Helvetica" font-size="13" font-weight="normal">
                    <tspan x="776" y="2007">Modifications are automatically applied proportionally to all</tspan>
                </text>
                <text id="scales-and-weights." fill="#000000" fill-rule="nonzero" font-family="Helvetica" font-size="13" font-weight="normal">
                    <tspan x="776" y="2025">scales and weights.</tspan>
                </text>
                <g id="Group" transform="translate(1291.000000, 1914.000000)" fill="#000000" fill-rule="nonzero">
                    <path d="M0.8418,20.86523 L2.54102,22.57422 C3.40039,23.44336 4.38672,23.38477 5.31445,22.35938 L15.4902,11.14844 C15.7539,11.23633 16.0273,11.2168 16.3398,11.1582 L17.4043,10.96289 L18.0684,11.63672 L18.0293,12.19336 C17.9902,12.69141 18.1172,13.07227 18.6055,13.55078 L19.3672,14.29297 C19.8457,14.77148 20.4609,14.80078 20.9297,14.33203 L23.8398,11.41211 C24.3086,10.94336 24.2891,10.34766 23.8105,9.86914 L23.0391,9.10742 C22.5605,8.6289 22.1895,8.4727 21.7109,8.5117 L21.1348,8.5605 L20.4902,7.9258 L20.7344,6.8027 C20.8613,6.2363 20.7051,5.7969 20.1191,5.2109 L17.9219,3.0234 C14.582,-0.2969 10.1484,-0.2188 7.25781,2.6719 C6.83789,3.082 6.80859,3.6582 7.04297,4.0488 C7.27734,4.4102 7.73633,4.6445 8.3809,4.4785 C9.8457,4.1367 11.3691,4.0781 12.7949,5.0156 L12.209,6.4707 C12.0137,6.9492 11.9844,7.3496 12.1113,7.7109 L1.04688,18.101562 C0.06055,19.0195312 -0.01758,19.996094 0.8418,20.86523 Z M8.752,3.043 C11.1836,1.2656 14.4746,1.5684 16.7012,3.7949 L19.1328,6.207 C19.3672,6.4414 19.4062,6.627 19.3379,6.9688 L19.0156,8.4531 L20.5195,9.9375 L21.5059,9.87891 C21.7598,9.86914 21.8379,9.88867 22.0332,10.08398 L22.6094,10.66016 L20.168,13.10156 L19.5918,12.52539 C19.3965,12.33008 19.3672,12.25195 19.377,11.98828 L19.4453,11.01172 L17.9512,9.52734 L16.4277,9.78125 C16.1055,9.84961 15.959,9.82031 15.7148,9.58594 L13.7129,7.584 C13.459,7.3496 13.4297,7.1836 13.5859,6.8125 L14.4648,4.7227 C12.9023,3.2676 10.8711,2.6426 8.8398,3.2383 C8.6836,3.2773 8.625,3.1504 8.752,3.043 Z M3.27344,21.3047 L2.10156,20.14258 C1.63281,19.683594 1.74023,19.341797 2.14062,18.9804688 L12.9512,8.8047 L14.416,10.28906 L4.42578,21.27539 C4.07422,21.67578 3.74219,21.77344 3.27344,21.3047 Z" id="Shape"></path>
                </g>
                <text id="Exporting" fill="#000000" fill-rule="nonzero" font-family="Helvetica-Bold, Helvetica" font-size="13" font-weight="bold">
                    <tspan x="1289" y="1953">Exporting</tspan>
                </text>
                <text id="Symbols-should-be-outlined-when-exporting-to-ensure-the" fill="#000000" fill-rule="nonzero" font-family="Helvetica" font-size="13" font-weight="normal">
                    <tspan x="1289" y="1971">Symbols should be outlined when exporting to ensure the</tspan>
                </text>
                <text id="design-is-preserved-when-submitting-to-Xcode." fill="#000000" fill-rule="nonzero" font-family="Helvetica" font-size="13" font-weight="normal">
                    <tspan x="1289" y="1989">design is preserved when submitting to Xcode.</tspan>
                </text>
                <text id="template-version" fill="#000000" fill-rule="nonzero" font-family="Helvetica" font-size="13" font-weight="normal">
                    <tspan x="2952" y="1933">Template v.2.0</tspan>
                </text>
                <text id="Requires-Xcode-12-or-greater" fill="#000000" fill-rule="nonzero" font-family="Helvetica" font-size="13" font-weight="normal">
                    <tspan x="2865" y="1951">Requires Xcode 12 or greater</tspan>
                </text>
                <text id="Generated-from-suit.heart.fill" fill="#000000" fill-rule="nonzero" font-family="Helvetica" font-size="13" font-weight="normal">
                    <tspan x="2871" y="1969">Generated from suit.heart.fill</tspan>
                </text>
                <text id="Typeset-at-100-points" fill="#000000" fill-rule="nonzero" font-family="Helvetica" font-size="13" font-weight="normal">
                    <tspan x="2912" y="1987">Typeset at 100 points</tspan>
                </text>
                <text id="Small" fill="#000000" fill-rule="nonzero" font-family="Helvetica" font-size="13" font-weight="normal">
                    <tspan x="263" y="726">Small</tspan>
                </text>
                <text id="Medium" fill="#000000" fill-rule="nonzero" font-family="Helvetica" font-size="13" font-weight="normal">
                    <tspan x="263" y="1156">Medium</tspan>
                </text>
                <text id="Large" fill="#000000" fill-rule="nonzero" font-family="Helvetica" font-size="13" font-weight="normal">
                    <tspan x="263" y="1586">Large</tspan>
                </text>
            </g>
            <g id="Guides" transform="translate(263.000000, 625.000000)">
                <g id="H-reference" transform="translate(76.000000, 0.000000)" fill="#27AAE1" fill-rule="nonzero">
                    <path d="M0.976562,71 L3.66211,71 L12.9883,46.5371 L45.7031,46.5371 L55.0781,71 L57.7148,71 L30.6152,0.541 L28.125,0.541 L0.976562,71 Z M29.2969,3.8613 L29.3945,3.8613 L44.873,44.291 L13.8672,44.291 L29.2969,3.8613 Z" id="Shape"></path>
                </g>
                <line x1="0" y1="71" x2="2773" y2="71" id="Baseline-S" stroke="#27AAE1" stroke-width="0.5"></line>
                <line x1="0" y1="0.541" x2="2773" y2="0.541" id="Capline-S" stroke="#27AAE1" stroke-width="0.5"></line>
                <g id="H-reference" transform="translate(76.000000, 430.000000)" fill="#27AAE1" fill-rule="nonzero">
                    <path d="M0.976562,71 L3.66211,71 L12.9883,46.5371 L45.7031,46.5371 L55.0781,71 L57.7148,71 L30.6152,0.541 L28.125,0.541 L0.976562,71 Z M29.2969,3.8613 L29.3945,3.8613 L44.873,44.291 L13.8672,44.291 L29.2969,3.8613 Z" id="Shape"></path>
                </g>
                <line x1="0" y1="501" x2="2773" y2="501" id="Baseline-M" stroke="#27AAE1" stroke-width="0.5"></line>
                <line x1="0" y1="430.54" x2="2773" y2="430.54" id="Capline-M" stroke="#27AAE1" stroke-width="0.5"></line>
                <g id="H-reference" transform="translate(76.000000, 860.000000)" fill="#27AAE1" fill-rule="nonzero">
                    <path d="M0.976562,71 L3.66211,71 L12.9883,46.5371 L45.7031,46.5371 L55.0781,71 L57.7148,71 L30.6152,0.541 L28.125,0.541 L0.976562,71 Z M29.2969,3.8613 L29.3945,3.8613 L44.873,44.291 L13.8672,44.291 L29.2969,3.8613 Z" id="Shape"></path>
                </g>
                <line x1="0" y1="931" x2="2773" y2="931" id="Baseline-L" stroke="#27AAE1" stroke-width="0.5"></line>
                <line x1="0" y1="860.54" x2="2773" y2="860.54" id="Capline-L" stroke="#27AAE1" stroke-width="0.5"></line>
                <line x1="1126.3" y1="405.79" x2="1126.3" y2="525.12" id="left-margin" stroke="#00AEEF" stroke-width="0.5"></line>
                <line x1="1247.39" y1="405.79" x2="1247.39" y2="525.12" id="right-margin" stroke="#00AEEF" stroke-width="0.5"></line>
            </g>
            <g id="Symbols" transform="translate(1387.000000, 630.000000)" fill="#F44336" fill-rule="nonzero">
                <g id="Bold-L" transform="translate(889.560000, 842.000000)">
                    <path d="M90.9067969,-8.52651283e-14 C111.537203,-8.52651283e-14 127.69,15.2222812 127.69,34.6517656 C127.69,54.8282075 99.9752077,79.5615777 77.602556,95.2300316 L76.0684856,96.2960775 C75.8143526,96.4713013 75.5610259,96.6452862 75.3085555,96.8180114 L73.8044116,97.8390806 L73.8044116,97.8390806 L72.3232308,98.8289242 C71.8335988,99.1535574 71.3481955,99.472821 70.8674226,99.7865492 L69.4393966,100.710963 C69.2038413,100.862209 68.9695441,101.01203 68.736555,101.160405 L68.0415625,101.601172 L68.0415625,100.352531 L79.5497344,77.3361875 C80.4097689,75.6007608 79.9056107,73.5094577 78.3665478,72.365113 L78.1977031,72.2461875 L59.3010781,59.6484375 L78.1977031,47.0506875 C79.3031875,46.3110469 79.97125,45.0703594 79.97125,43.7421875 C79.97125,42.4921434 79.3794715,41.3195941 78.3948315,40.5693293 L78.2056563,40.4336875 L58.3307969,27.1837812 L66.9042656,18.4194375 C67.5796695,17.729351 67.9772316,16.829189 68.0343985,15.8753353 L68.0415625,15.6358437 L68.0415625,7.18167187 C74.6983281,2.67225 82.7230313,-8.52651283e-14 90.9067969,-8.52651283e-14 Z M37.2232031,-1.0658141e-13 C45.2073647,-1.0658141e-13 53.0401283,2.54348602 59.5989333,6.85500501 L60.0884375,7.18167187 L60.0884375,14.0134062 L49.2960469,25.0523437 C48.4689219,25.9033281 48.0553594,27.0724375 48.1826094,28.2495 C48.2944502,29.3529961 48.8676344,30.3516414 49.751439,31.0160749 L49.9322969,31.1444375 L68.8289219,43.7421875 L49.9322969,56.3399375 C48.8188594,57.0795781 48.15875,58.3202656 48.15875,59.6484375 C48.15875,60.8984816 48.7434836,62.0710309 49.7405558,62.8212957 L49.9322969,62.9569375 L70.872875,76.9146719 L60.5099531,97.6325625 C60.2713594,98.10975 60.1320985,98.6278393 60.097179,99.1517717 L60.0884375,99.4140625 L60.0884375,101.593219 L58.9607986,100.857639 L58.9607986,100.857639 L57.1724182,99.6722542 L57.1724182,99.6722542 L56.1653178,98.9952783 L56.1653178,98.9952783 L55.08838,98.2641327 L55.08838,98.2641327 L53.945682,97.4803317 L53.945682,97.4803317 L52.7413009,96.6453898 L52.7413009,96.6453898 L51.4793136,95.7608213 C51.2644084,95.6093419 51.0472728,95.4558577 50.8279918,95.3004004 L49.48724,94.3442316 L49.48724,94.3442316 L48.0990748,93.3422223 C47.8639894,93.1714848 47.6270982,92.9989005 47.3884863,92.8245007 L45.9368457,91.7565701 L45.9368457,91.7565701 L44.4479844,90.6465849 C26.1236151,76.8920755 0.44,54.1359675 0.44,34.6517656 C0.44,15.2222812 16.60075,-1.0658141e-13 37.2232031,-1.0658141e-13 Z" id="Shape"></path>
                </g>
                <g id="Semibold-L" transform="translate(592.750000, 842.000000)">
                    <path d="M90.7167969,-8.52651283e-14 C111.347203,-8.52651283e-14 127.5,15.2222812 127.5,34.6517656 C127.5,54.8282075 99.7852077,79.5615777 77.412556,95.2300316 L75.8784856,96.2960775 C75.6243526,96.4713013 75.3710259,96.6452862 75.1185555,96.8180114 L73.6144116,97.8390806 L73.6144116,97.8390806 L72.1332308,98.8289242 C71.6435988,99.1535574 71.1581955,99.472821 70.6774226,99.7865492 L69.2493966,100.710963 C69.0138413,100.862209 68.7795441,101.01203 68.546555,101.160405 L67.8515625,101.601172 L67.8515625,100.352531 L79.3597344,77.3361875 C80.2197689,75.6007608 79.7156107,73.5094577 78.1765478,72.365113 L78.0077031,72.2461875 L59.1110781,59.6484375 L78.0077031,47.0506875 C79.1131875,46.3110469 79.78125,45.0703594 79.78125,43.7421875 C79.78125,42.4921434 79.1894715,41.3195941 78.2048315,40.5693293 L78.0156562,40.4336875 L58.1407969,27.1837812 L66.7142656,18.4194375 C67.3896695,17.729351 67.7872316,16.829189 67.8443985,15.8753353 L67.8515625,15.6358437 L67.8515625,7.18167187 C74.5083281,2.67225 82.5330312,-8.52651283e-14 90.7167969,-8.52651283e-14 Z M37.0332031,-1.0658141e-13 C45.0173647,-1.0658141e-13 52.8501283,2.54348602 59.4089333,6.85500501 L59.8984375,7.18167187 L59.8984375,14.0134062 L49.1060469,25.0523437 C48.2789219,25.9033281 47.8653594,27.0724375 47.9926094,28.2495 C48.1044502,29.3529961 48.6776344,30.3516414 49.561439,31.0160749 L49.7422969,31.1444375 L68.6389219,43.7421875 L49.7422969,56.3399375 C48.6288594,57.0795781 47.96875,58.3202656 47.96875,59.6484375 C47.96875,60.8984816 48.5534836,62.0710309 49.5505558,62.8212957 L49.7422969,62.9569375 L70.682875,76.9146719 L60.3199531,97.6325625 C60.0813594,98.10975 59.9420985,98.6278393 59.907179,99.1517717 L59.8984375,99.4140625 L59.8984375,101.593219 L58.7707986,100.857639 L58.7707986,100.857639 L56.9824182,99.6722542 L56.9824182,99.6722542 L55.9753178,98.9952783 L55.9753178,98.9952783 L54.89838,98.2641327 L54.89838,98.2641327 L53.755682,97.4803317 L53.755682,97.4803317 L52.5513009,96.6453898 L52.5513009,96.6453898 L51.2893136,95.7608213 C51.0744084,95.6093419 50.8572728,95.4558577 50.6379918,95.3004004 L49.29724,94.3442316 L49.29724,94.3442316 L47.9090748,93.3422223 C47.6739894,93.1714848 47.4370982,92.9989005 47.1984863,92.8245007 L45.7468457,91.7565701 L45.7468457,91.7565701 L44.2579844,90.6465849 C25.9336151,76.8920755 0.25,54.1359675 0.25,34.6517656 C0.25,15.2222812 16.41075,-1.0658141e-13 37.0332031,-1.0658141e-13 Z" id="Shape"></path>
                </g>
                <g id="Medium-L" transform="translate(296.720000, 842.000000)">
                    <path d="M89.630625,-8.52651283e-14 C110.006495,-8.52651283e-14 125.96,15.03447 125.96,34.224235 C125.96,50.7159646 107.212365,70.2902224 88.2230135,85.3212327 L86.6404047,86.5631367 L86.6404047,86.5631367 L85.0590567,87.7830264 C84.2690946,88.3873043 83.4804977,88.982959 82.6946048,89.5694391 L81.1268208,90.7300027 C80.6056923,91.1126707 80.0861622,91.4910975 79.5686272,91.8651198 L78.0224039,92.9738095 L78.0224039,92.9738095 L76.4905307,94.0550913 C76.2365466,94.2329665 75.9832595,94.4096587 75.7307191,94.5851477 L74.2248334,95.6234788 C73.7261226,95.964667 73.2307951,96.3008786 72.7392476,96.6319501 L71.2763414,97.6095811 C70.3091594,98.250837 69.3586838,98.8708789 68.4280878,99.4683992 L67.0475,100.347625 L67.0475,99.11439 L78.413685,76.38202 C79.262025,74.6701911 78.7664386,72.6077727 77.2509081,71.4766076 L77.078335,71.35482 L58.414855,58.9125 L77.078335,46.47018 C78.17018,45.739665 78.83,44.514285 78.83,43.2025 C78.83,41.9678788 78.2455228,40.8097963 77.2730312,40.0687883 L77.08619,39.93482 L57.456545,26.84839 L65.924235,18.19218 C66.5913058,17.5106077 66.9839628,16.6215518 67.0404244,15.6794667 L67.0475,15.44293 L67.0475,7.093065 C73.622135,2.63928 81.54783,-8.52651283e-14 89.630625,-8.52651283e-14 Z M36.609375,-1.0658141e-13 C44.4950287,-1.0658141e-13 52.2311523,2.5121047 58.7090353,6.77042852 L59.1925,7.093065 L59.1925,13.84051 L48.533265,24.74325 C47.716345,25.583735 47.307885,26.73842 47.433565,27.90096 C47.543535,28.9859973 48.1051151,29.968396 48.9714181,30.6246318 L49.161665,30.76018 L67.825145,43.2025 L49.161665,55.64482 C48.061965,56.375335 47.41,57.600715 47.41,58.9125 C47.41,60.1471212 47.9875192,61.3052037 48.9722896,62.0462117 L49.161665,62.18018 L69.84388,75.965705 L59.608815,96.42798 C59.373165,96.89928 59.2356223,97.4109771 59.2011336,97.9284453 L59.1925,98.1875 L59.1925,100.33977 L58.0787738,99.6132658 L58.0787738,99.6132658 L56.7826715,98.7562874 L56.7826715,98.7562874 L55.3177834,97.7738827 L55.3177834,97.7738827 L53.6977,96.6710999 L53.6977,96.6710999 L52.5381361,95.8715275 L52.5381361,95.8715275 L51.3196635,95.0221929 L51.3196635,95.0221929 L50.0463089,94.1245919 L50.0463089,94.1245919 L48.7220992,93.1802203 L48.7220992,93.1802203 L47.3510611,92.1905737 C46.8866911,91.8533118 46.4151875,91.5087534 45.9372214,91.1571478 L44.484607,90.0814384 C44.239497,89.898713 43.9929393,89.7142881 43.7450176,89.5281948 L42.2417911,88.3918646 C24.2758153,74.7142872 0.28,52.9408148 0.28,34.224235 C0.28,15.03447 16.24136,-1.0658141e-13 36.609375,-1.0658141e-13 Z" id="Shape"></path>
                </g>
                <g id="Regular-L" transform="translate(0.890000, 843.000000)">
                    <path d="M88.0032031,-9.9475983e-13 C108.046717,-9.9475983e-13 123.74,14.7892387 123.74,33.6659944 C123.74,50.3393543 104.259386,70.2157605 85.0617571,85.1511823 L83.5062029,86.351174 L83.5062029,86.351174 L81.95423,87.528546 C79.8883609,89.0828666 77.8382847,90.5742952 75.8289728,91.9925417 L74.3300223,93.0423442 C74.0816012,93.2149707 73.8339146,93.3864136 73.5870112,93.5566527 L72.1153801,94.5634815 C71.8718048,94.7288252 71.6291104,94.8929249 71.3873455,95.0557606 L69.9483012,96.0174452 C68.7590436,96.8059405 67.595464,97.5618295 66.4636589,98.2826001 L65.7884375,98.7108281 L65.7884375,97.4977087 L76.9692256,75.1361325 C77.8037281,73.4522257 77.3162254,71.4234479 75.8254151,70.3107336 L75.6556569,70.1909325 L57.2966019,57.9515625 L75.6556569,45.7121925 C76.7296925,44.9935931 77.37875,43.7882006 77.37875,42.4978125 C77.37875,41.2833296 76.8038063,40.1441369 75.8471774,39.4152156 L75.6633838,39.2834325 L56.3539231,26.4104587 L64.6834944,17.8954425 C65.3396844,17.2249875 65.7259367,16.3504333 65.7814773,15.4237147 L65.7884375,15.1910362 L65.7884375,6.97736812 C72.2558319,2.59623 80.0522488,-9.9475983e-13 88.0032031,-9.9475983e-13 Z M35.8467969,-1.00897068e-12 C43.5989774,-1.00897068e-12 51.2042507,2.46804114 57.5740344,6.65214215 L58.0615625,6.97736812 L58.0615625,13.6147537 L47.5761931,24.3396562 C46.7725981,25.1664319 46.3708006,26.3022825 46.4944306,27.44586 C46.6026069,28.513199 47.1550269,29.4795735 48.0071994,30.1251053 L48.1943431,30.2584425 L66.5533981,42.4978125 L48.1943431,54.7371825 C47.1125806,55.4557819 46.47125,56.6611744 46.47125,57.9515625 C46.47125,59.1660454 47.0393491,60.3052381 48.0080567,61.0341594 L48.1943431,61.1659425 L68.539205,74.7266081 L58.4710869,94.8551175 C58.2392806,95.31873 58.1039815,95.8220807 58.0700553,96.3311083 L58.0615625,96.5859375 L58.0615625,98.7031012 L56.5602888,97.7214627 L56.5602888,97.7214627 L55.2284979,96.8367842 L55.2284979,96.8367842 L54.2500474,96.1790669 L54.2500474,96.1790669 L52.6563897,95.0942718 L52.6563897,95.0942718 L51.5157397,94.3077414 L51.5157397,94.3077414 L50.3171419,93.4722606 L50.3171419,93.4722606 L49.0645574,92.5893006 L49.0645574,92.5893006 L47.7619472,91.6603329 L47.7619472,91.6603329 L46.4132725,90.6868286 L46.4132725,90.6868286 L45.0224943,89.6702593 L45.0224943,89.6702593 L43.5935738,88.6120961 L43.5935738,88.6120961 L42.1304721,87.5138103 C41.8839935,87.3275009 41.6362556,87.139581 41.3873412,86.9500813 L39.8803947,85.7943706 C22.403317,72.2913227 0.11,51.5586552 0.11,33.6659944 C0.11,14.7892387 15.81101,-1.00897068e-12 35.8467969,-1.00897068e-12 Z" id="Shape"></path>
                </g>
                <g id="Bold-M" transform="translate(901.650000, 421.000000)">
                    <path d="M72.9011719,-7.10542736e-14 C89.4460281,-7.10542736e-14 102.4,12.2077312 102.4,27.7894906 C102.4,41.1804916 87.1772423,57.0744526 71.7582155,69.2793746 L70.4731644,70.2877793 L70.4731644,70.2877793 L69.189137,71.2783088 L69.189137,71.2783088 L67.9080658,72.2501668 L67.9080658,72.2501668 L66.6318832,73.202557 C66.4197008,73.3596222 66.2078027,73.515843 65.996229,73.6712029 L64.7310026,74.5928984 L64.7310026,74.5928984 L63.4754958,75.4931354 L63.4754958,75.4931354 L62.2316411,76.3711177 L62.2316411,76.3711177 L61.0013709,77.2260488 L61.0013709,77.2260488 L59.7866176,78.0571325 L59.7866176,78.0571325 L58.5893137,78.8635725 L58.5893137,78.8635725 L57.4113914,79.6445725 C57.2167936,79.7725749 57.0230838,79.8994842 56.8303024,80.0252837 L55.685076,80.7666306 C55.496169,80.8879247 55.3082709,81.0080758 55.1214219,81.1270674 L54.5640625,81.4805469 L54.5640625,80.4791812 L63.7932094,62.0208875 C64.4789854,60.6370895 64.0831947,58.9711437 62.8654132,58.0500681 L62.7089281,57.9388875 L47.5545031,47.8359375 L62.7089281,37.7329875 C63.5954875,37.1398219 64.13125,36.1448344 64.13125,35.0796875 C64.13125,34.0811123 63.660365,33.1442006 62.8762574,32.5422339 L62.7153063,32.4263875 L46.7763719,21.8004312 L53.6519906,14.7717375 C54.1898792,14.2221557 54.5080324,13.5064327 54.5573227,12.7473878 L54.5640625,12.5393937 L54.5640625,5.75944687 C59.9025531,2.14305 66.3380813,-7.10542736e-14 72.9011719,-7.10542736e-14 Z M29.8488281,-8.52651283e-14 C36.2188867,-8.52651283e-14 42.468776,2.01884208 47.7120719,5.44419364 L48.1859375,5.75944687 L48.1859375,11.2382562 L39.5308219,20.0910937 C38.8674969,20.7735531 38.5358344,21.7111375 38.6378844,22.6551 C38.7267225,23.5316366 39.1785281,24.3256806 39.8758473,24.8584981 L40.0410719,24.9767375 L55.1954969,35.0796875 L40.0410719,45.1826375 C39.1481344,45.7758031 38.61875,46.7707906 38.61875,47.8359375 C38.61875,48.8345127 39.0840292,49.7714244 39.877947,50.3733911 L40.0410719,50.4892375 L56.834675,61.6828469 L48.5239781,78.2978625 C48.3326344,78.68055 48.2209521,79.0960393 48.1929479,79.5162145 L48.1859375,79.7265625 L48.1859375,81.4741687 L47.281611,80.8842599 L47.281611,80.8842599 L45.8473931,79.9336231 L45.8473931,79.9336231 L44.6146978,79.1028903 L44.6146978,79.1028903 L43.7242544,78.4952717 L43.7242544,78.4952717 L42.7827084,77.8460326 L42.7827084,77.8460326 L41.7933296,77.1563875 L41.7933296,77.1563875 L40.7593875,76.427551 L40.7593875,76.427551 L39.684152,75.6607374 L39.684152,75.6607374 L38.5708926,74.8571614 L38.5708926,74.8571614 L37.4228791,74.0180374 L37.4228791,74.0180374 L36.2433811,73.1445798 L36.2433811,73.1445798 L35.0356684,72.2380033 L35.0356684,72.2380033 L33.8030105,71.2995222 L33.8030105,71.2995222 L32.5486772,70.3303512 L32.5486772,70.3303512 L31.2759382,69.3317046 C31.0624629,69.1628747 30.8483569,68.9928673 30.6336883,68.8217076 L29.3394713,67.7811249 L29.3394713,67.7811249 L28.0350228,66.714103 C14.7321999,55.7357632 0.35,40.846533 0.35,27.7894906 C0.35,12.2077312 13.31035,-8.52651283e-14 29.8488281,-8.52651283e-14 Z" id="Shape"></path>
                </g>
                <g id="Semibold-M" transform="translate(605.570000, 422.000000)">
                    <path d="M71.694375,-6.39488462e-14 C87.945785,-6.39488462e-14 100.67,11.99121 100.67,27.296605 C100.67,39.7193482 87.3325067,54.335072 73.0916328,66.0200235 L71.833057,67.0433125 C71.6230091,67.2125495 71.4128449,67.3811202 71.202604,67.5490082 L69.9405541,68.5480131 C69.7301644,68.7131051 69.5197771,68.8774817 69.3094316,69.0411268 L68.0481783,70.0140879 L68.0481783,70.0140879 L66.7898287,70.9687086 L66.7898287,70.9687086 L65.536281,71.9042069 L65.536281,71.9042069 L64.2894333,72.8198005 C63.875145,73.1215941 63.4622897,73.4199398 63.0511838,73.7147073 L61.8234307,74.5881451 L61.8234307,74.5881451 L60.608072,75.4393317 L60.608072,75.4393317 L59.4070059,76.267485 L59.4070059,76.267485 L58.2221306,77.0718227 L58.2221306,77.0718227 L57.0553442,77.8515627 L57.0553442,77.8515627 L55.9085449,78.6059229 C55.7191827,78.7294912 55.5307324,78.8519694 55.3432336,78.9733411 L54.2299738,79.6881649 L54.2299738,79.6881649 L53.6825,80.035375 L53.6825,79.05177 L62.747955,60.92086 C63.4215678,59.5616056 63.032797,57.9252076 61.8366146,57.0204687 L61.682905,56.91126 L46.797265,46.9875 L61.682905,37.06374 C62.55374,36.481095 63.08,35.503755 63.08,34.4575 C63.08,33.4809953 62.6215691,32.5645233 61.8575175,31.9729551 L61.68917,31.85126 L46.032935,21.41377 L52.786605,14.50974 C53.3149533,13.9699058 53.6274637,13.2668771 53.6758797,12.521295 L53.6825,12.31699 L53.6825,5.657295 C58.926305,2.10504 65.24769,-6.39488462e-14 71.694375,-6.39488462e-14 Z M29.405625,-8.52651283e-14 C35.6627016,-8.52651283e-14 41.8017404,1.98303509 46.9520391,5.34763322 L47.4175,5.657295 L47.4175,11.03893 L38.915895,19.73475 C38.264335,20.405105 37.938555,21.32606 38.038795,22.25328 C38.1260575,23.11427 38.5698496,23.8942305 39.2548009,24.4175978 L39.417095,24.53374 L54.302735,34.4575 L39.417095,44.38126 C38.539995,44.963905 38.02,45.941245 38.02,46.9875 C38.02,47.9640047 38.4729734,48.8804767 39.2464847,49.4720449 L39.417095,49.59374 L55.91284,60.588815 L47.749545,76.90914 C47.5668158,77.2745983 47.4580485,77.6705115 47.4268685,78.0715005 L47.4175,78.3125 L47.4175,80.02911 L46.2002576,79.2331912 L46.2002576,79.2331912 L44.7308435,78.2546559 L44.7308435,78.2546559 L43.0349511,77.1030479 L43.0349511,77.1030479 L41.6298617,76.1315039 L41.6298617,76.1315039 L40.1226703,75.0720011 L40.1226703,75.0720011 L39.0665056,74.318788 L39.0665056,74.318788 L37.9729914,73.5294645 L37.9729914,73.5294645 L36.8453396,72.7052236 L36.8453396,72.7052236 L35.6867616,71.847258 C35.4912666,71.7015197 35.2946167,71.5544258 35.0968791,71.4060013 L33.897934,70.4996858 L33.897934,70.4996858 L32.6760921,69.5626281 L32.6760921,69.5626281 L31.434565,68.5960212 C30.8094155,68.1055292 30.1780885,67.6044037 29.5423905,67.0933156 L28.2657017,66.0580549 C15.024092,55.227208 0.43,40.3323158 0.43,27.296605 C0.43,11.99121 13.16048,-8.52651283e-14 29.405625,-8.52651283e-14 Z" id="Shape"></path>
                </g>
                <g id="Medium-M" transform="translate(309.350000, 422.000000)">
                    <path d="M70.9119531,-9.73443548e-13 C86.9347669,-9.73443548e-13 99.48,11.8225387 99.48,26.9126444 C99.48,37.8998225 88.8980965,50.626901 76.5839234,61.4471913 L75.3674187,62.5052043 C73.5352177,64.0826144 71.6716242,65.6159141 69.8050607,67.0933914 L68.560557,68.0699777 L68.560557,68.0699777 L67.3170447,69.0292529 C67.1099792,69.1876466 66.9030331,69.3452869 66.6962452,69.5021578 L65.4577291,70.4340202 L65.4577291,70.4340202 L64.224883,71.3466436 C63.8150873,71.6475592 63.4065485,71.9451398 62.9995785,72.2392568 L61.783687,73.1110885 L61.783687,73.1110885 L60.5790798,73.9613675 L60.5790798,73.9613675 L59.3876285,74.7893229 L59.3876285,74.7893229 L58.2112045,75.5941833 L58.2112045,75.5941833 L57.0516793,76.3751775 L57.0516793,76.3751775 L55.9109242,77.1315345 C55.7224665,77.2554981 55.5348689,77.378403 55.3481703,77.5002331 L54.2390795,78.2181882 L54.2390795,78.2181882 L53.1534375,78.9095781 L53.1534375,77.9398087 L62.0913756,60.0639325 C62.7555132,58.7237977 62.372211,57.1104177 61.1928544,56.218405 L61.0413069,56.1107325 L46.3650519,46.3265625 L61.0413069,36.5423925 C61.8998925,35.9679431 62.41875,35.0043506 62.41875,33.9728125 C62.41875,33.0100436 61.9667675,32.1064629 61.2134632,31.5232158 L61.0474837,31.4032325 L45.6114731,21.1125587 L52.2701444,14.3056425 C52.7910608,13.7734018 53.0991754,13.080262 53.1469103,12.3451674 L53.1534375,12.1437362 L53.1534375,5.57771812 C58.3234819,2.07543 64.5559487,-9.73443548e-13 70.9119531,-9.73443548e-13 Z M29.2180469,-9.9475983e-13 C35.3871099,-9.9475983e-13 41.4397956,1.95514124 46.5176488,5.27241212 L46.9765625,5.57771812 L46.9765625,10.8836537 L38.5945431,19.4571562 C37.9521481,20.1180819 37.6309506,21.0260825 37.7297806,21.94026 C37.8158157,22.7891391 38.2533653,23.5581285 38.9286819,24.074134 L39.0886931,24.1886425 L53.7649481,33.9728125 L39.0886931,43.7569825 C38.2239306,44.3314319 37.71125,45.2950244 37.71125,46.3265625 C37.71125,47.2893314 38.1578518,48.1929121 38.9204826,48.7761592 L39.0886931,48.8961425 L55.352405,59.7365581 L47.3039369,75.8273175 C47.123778,76.1876352 47.0165406,76.5779794 46.9857992,76.973328 L46.9765625,77.2109375 L46.9765625,78.9034012 L46.1007703,78.3321058 L46.1007703,78.3321058 L44.7118066,77.4114647 L44.7118066,77.4114647 L43.0932173,76.3178329 L43.0932173,76.3178329 L42.2057293,75.7090859 L42.2057293,75.7090859 L40.7856615,74.7218597 L40.7856615,74.7218597 L39.7843437,74.0160202 L39.7843437,74.0160202 L38.7430352,73.2734021 L38.7430352,73.2734021 L37.6649027,72.4951814 L37.6649027,72.4951814 L36.5531126,71.6825344 L36.5531126,71.6825344 L35.4108315,70.8366372 L35.4108315,70.8366372 L34.2412259,69.958666 C34.0441905,69.80973 33.8461485,69.6595065 33.647166,69.5080202 L32.4425108,68.5841434 C31.2276237,67.6455037 29.9836243,66.6631638 28.7247619,65.6424163 L27.4614728,64.6090623 C14.578396,53.9771237 0.65,39.5576958 0.65,26.9126444 C0.65,11.8225387 13.20141,-9.9475983e-13 29.2180469,-9.9475983e-13 Z" id="Shape"></path>
                </g>
                <g id="Regular-M" transform="translate(13.300000, 422.000000)">
                    <path d="M69.6396094,-9.73443548e-13 C85.3608706,-9.73443548e-13 97.67,11.6000362 97.67,26.4061431 C97.67,37.0098126 87.6248777,49.2651236 75.7976407,59.7671201 L74.6092827,60.8113493 C72.4208577,62.7145923 70.1817915,64.5550896 67.9430011,66.3118598 L66.722176,67.2616685 C66.3154475,67.5754195 65.9090341,67.8862765 65.5032419,68.1941135 L64.2880349,69.1084382 C64.085913,69.2592735 63.8840229,69.4093224 63.6824029,69.5585689 L62.4762295,70.4442943 L62.4762295,70.4442943 L61.2783738,71.3100077 C61.0795264,71.4525835 60.881102,71.594294 60.683139,71.7351234 L59.5012028,72.5694001 L59.5012028,72.5694001 L58.3321748,73.3817731 C58.1385145,73.5153013 57.9454686,73.6478853 57.7530753,73.7795093 L56.6068526,74.5576082 L56.6068526,74.5576082 L55.4781288,75.3119118 L55.4781288,75.3119118 L54.36874,76.0416635 L54.36874,76.0416635 L53.2805225,76.7461065 L53.2805225,76.7461065 L52.2153125,77.4244844 L52.2153125,76.4729662 L60.9850369,58.9335175 C61.635544,57.6208871 61.2618896,56.0410842 60.1094458,55.1649285 L59.9547306,55.0547175 L45.5546856,45.4546875 L59.9547306,35.8546575 C60.7971575,35.2910194 61.30625,34.3455619 61.30625,33.3334375 C61.30625,32.3887881 60.8627739,31.5022129 60.123647,30.9299427 L59.9607913,30.8122175 L44.8152894,20.7152162 L51.3486431,14.0364075 C51.8555318,13.5184995 52.1570604,12.8453194 52.2076946,12.1307029 L52.2153125,11.9151887 L52.2153125,5.47274437 C57.2880556,2.03637 63.4032263,-9.73443548e-13 69.6396094,-9.73443548e-13 Z M28.7303906,-9.87654403e-13 C34.7777924,-9.87654403e-13 40.7112167,1.91482358 45.690683,5.16422117 L46.1546875,5.47274437 L46.1546875,10.6788212 L37.9304194,19.0909687 C37.3001144,19.7394556 36.9849619,20.6303675 37.0819319,21.52734 C37.1658482,22.3553146 37.590594,23.105828 38.2465319,23.6120405 L38.4152694,23.7334075 L52.8153144,33.3334375 L38.4152694,42.9334675 C37.5667819,43.4971056 37.06375,44.4425631 37.06375,45.4546875 C37.06375,46.3993369 37.5019467,47.2859121 38.2502246,47.8581823 L38.4152694,47.9759075 L54.372895,58.6123044 L46.4759006,74.4002325 C46.2991324,74.753769 46.1939132,75.1367668 46.1637504,75.5246748 L46.1546875,75.7578125 L46.1546875,77.4184237 L45.5979672,77.0561059 L45.5979672,77.0561059 L44.6436828,76.4280169 L44.6436828,76.4280169 L43.2205908,75.4761498 L43.2205908,75.4761498 L42.0667685,74.6917423 L42.0667685,74.6917423 L41.2439472,74.1256353 L41.2439472,74.1256353 L39.9355531,73.2140422 L39.9355531,73.2140422 L39.0174936,72.5660455 L39.0174936,72.5660455 L37.5779565,71.5359693 L37.5779565,71.5359693 L36.5802779,70.8118847 L36.5802779,70.8118847 L35.0330267,69.6720278 C34.857988,69.5418917 34.6819608,69.4106132 34.504997,69.2782116 L33.4323929,68.4704796 L33.4323929,68.4704796 L32.3398117,67.6367216 C32.1561889,67.4956447 31.9718379,67.3535221 31.7868107,67.210373 L30.6689498,66.3393167 L30.6689498,66.3393167 L29.5373595,65.444555 L29.5373595,65.444555 L28.3945389,64.5270163 L28.3945389,64.5270163 L27.2429871,63.5876288 C27.0504731,63.4292951 26.8576994,63.2700897 26.664718,63.1100319 L25.5047552,62.1396117 C25.3111517,61.9762219 25.1174447,61.8120184 24.9236863,61.6470206 L23.7609354,60.6476564 C12.1355863,50.5617884 0.7,37.7555604 0.7,26.4061431 C0.7,11.6000362 13.01519,-9.87654403e-13 28.7303906,-9.87654403e-13 Z" id="Shape"></path>
                </g>
                <g id="Bold-S" transform="translate(912.830000, 0.000000)">
                    <path d="M57.2725,8.52651283e-13 C70.29438,8.52651283e-13 80.49,9.60828 80.49,21.87214 C80.49,30.3623656 72.7150963,40.1309583 63.3476545,48.6303368 L62.3731814,49.5049509 C62.2099069,49.6499305 62.0462224,49.7945067 61.8821595,49.9386664 L60.8934956,50.7985228 C60.7280461,50.9409645 60.5622816,51.0829635 60.3962338,51.224507 L59.3968011,52.0681955 L59.3968011,52.0681955 L58.3920904,52.9003221 L58.3920904,52.9003221 L57.3836227,53.7202599 C57.2153162,53.8558657 57.0469165,53.9909375 56.8784553,54.1254622 L55.8672037,54.9259419 C55.6986233,55.0582263 55.5300448,55.1899375 55.3614999,55.3210625 L54.3508867,56.1006738 C54.1826028,56.2294018 54.0144158,56.3575174 53.8463575,56.4850077 L52.8398047,57.2423404 C52.6723877,57.367277 52.5051626,57.491562 52.3381613,57.6151826 L51.339091,58.3488266 C51.1731112,58.4697367 51.0074184,58.5899561 50.8420444,58.7094718 L49.8538787,59.418017 L49.8538787,59.418017 L48.874884,60.1090463 L48.874884,60.1090463 L47.9065812,60.7819327 L47.9065812,60.7819327 L46.9504912,61.4360498 L46.9504912,61.4360498 L46.008135,62.0707706 L46.008135,62.0707706 L45.0810334,62.6854685 L45.0810334,62.6854685 L44.1707075,63.2795168 L44.1707075,63.2795168 L43.2786782,63.8522886 L43.2786782,63.8522886 L42.84,64.1305 L42.84,63.34236 L50.10394,48.81448 C50.6406236,47.7315291 50.3356898,46.4290258 49.3899789,45.7016001 L49.25054,45.60168 L37.32302,37.65 L49.25054,29.69832 C49.94832,29.23146 50.37,28.44834 50.37,27.61 C50.37,26.8315414 50.0064086,26.100696 49.3998045,25.626467 L49.25556,25.52168 L36.71058,17.15836 L42.12214,11.62632 C42.537796,11.201628 42.7867378,10.6508838 42.8323696,10.0655769 L42.84,9.86932 L42.84,4.53306 C47.04174,1.68672 52.10692,8.52651283e-13 57.2725,8.52651283e-13 Z M23.3875,8.45545856e-13 C28.380894,8.45545856e-13 33.2804698,1.57614613 37.3969761,4.25231092 L37.82,4.53306 L37.82,8.84524 L31.00786,15.813 C30.48578,16.35014 30.22474,17.08808 30.30506,17.83104 C30.374085,18.5120867 30.7215108,19.1298604 31.2584039,19.5490275 L31.40946,19.65832 L43.33698,27.61 L31.40946,35.56168 C30.70666,36.02854 30.29,36.81166 30.29,37.65 C30.29,38.4284586 30.649263,39.159304 31.2632873,39.633533 L31.40946,39.73832 L44.62712,48.54842 L38.08606,61.62552 C37.9396433,61.9183533 37.8524906,62.2355894 37.8275068,62.5568927 L37.82,62.75 L37.82,64.12548 L36.5684387,63.3051285 L36.5684387,63.3051285 L35.343733,62.4856641 L35.343733,62.4856641 L34.6639716,62.0241661 L34.6639716,62.0241661 L33.1824989,61.0024181 L33.1824989,61.0024181 L32.3859345,60.4440799 L32.3859345,60.4440799 L31.5555828,59.8553734 L31.5555828,59.8553734 L30.694017,59.2372544 L30.694017,59.2372544 L29.3487717,58.2570187 L29.3487717,58.2570187 L28.4204299,57.5695507 L28.4204299,57.5695507 L27.4698813,56.8560159 L27.4698813,56.8560159 L26.4996992,56.1173702 L26.4996992,56.1173702 L25.5124572,55.3545694 L25.5124572,55.3545694 L24.5107286,54.5685695 L24.5107286,54.5685695 L23.497087,53.7603263 C23.3272969,53.6238186 23.1571177,53.486424 22.986603,53.3481622 L21.959917,52.5083465 L21.959917,52.5083465 L20.9277516,51.6486772 L20.9277516,51.6486772 L19.8926802,50.7701102 C10.0538479,42.3369873 0.17,31.4749984 0.17,21.87214 C0.17,9.60828 10.37064,8.45545856e-13 23.3875,8.45545856e-13 Z" id="Shape"></path>
                </g>
                <g id="Semibold-S" transform="translate(617.510000, 1.000000)">
                    <path d="M56.0284375,-5.32907052e-14 C68.6936425,-5.32907052e-14 78.61,9.345105 78.61,21.2730525 C78.61,29.103606 71.8100934,38.0522154 63.3376816,46.0060209 L62.4070303,46.8696608 C62.2508981,47.0129092 62.0942747,47.1558034 61.9371909,47.2983306 L60.989409,48.1489886 L60.989409,48.1489886 L60.0320559,48.99023 C59.8717817,49.1296183 59.7111702,49.2685889 59.5502524,49.407129 L58.5813161,50.2331026 C57.9332365,50.7801726 57.2812415,51.3199489 56.6273035,51.8516187 L55.6451858,52.6429421 L55.6451858,52.6429421 L54.6616329,53.4214962 L54.6616329,53.4214962 L53.6781241,54.1866716 L53.6781241,54.1866716 L52.6961386,54.9378586 C52.5326834,55.0618569 52.3693534,55.1852469 52.2061793,55.308016 L51.2292525,56.0370775 L51.2292525,56.0370775 L50.2575472,56.7506267 L50.2575472,56.7506267 L49.2925427,57.448054 L49.2925427,57.448054 L48.3357183,58.12875 L48.3357183,58.12875 L47.3885533,58.7921049 C47.2315796,58.9011851 47.07507,59.0095173 46.9190553,59.117089 L45.9891531,59.7532895 L45.9891531,59.7532895 L45.0726084,60.370625 L45.0726084,60.370625 L44.1709005,60.9684861 L44.1709005,60.9684861 L43.2855088,61.5462631 L43.2855088,61.5462631 L42.4179126,62.1033464 L42.4179126,62.1033464 L41.99125,62.3739375 L41.99125,61.607385 L49.0562275,47.47743 C49.5770275,46.42653 49.2829704,45.1630586 48.3680697,44.4546348 L48.2262025,44.35263 L36.6253825,36.61875 L48.2262025,28.88487 C48.90487,28.4307975 49.315,27.6691275 49.315,26.85375 C49.315,26.1010938 48.9655401,25.3942003 48.3818269,24.9327607 L48.231085,24.82263 L36.0297175,16.688385 L41.2930525,11.30787 C41.6973235,10.8948105 41.9394467,10.3591514 41.9838286,9.78987634 L41.99125,9.598995 L41.99125,4.4088975 C46.0779025,1.64052 51.004345,-5.32907052e-14 56.0284375,-5.32907052e-14 Z M23.0715625,-6.39488462e-14 C27.9281852,-6.39488462e-14 32.6935595,1.5329748 36.6973129,4.13583826 L37.10875,4.4088975 L37.10875,8.602965 L30.4831975,15.379875 C29.9754175,15.9023025 29.7215275,16.62003 29.7996475,17.34264 C29.8667819,18.0050325 30.2046916,18.6058852 30.7268789,19.0135711 L30.8737975,19.11987 L42.4746175,26.85375 L30.8737975,34.58763 C30.1902475,35.0417025 29.785,35.8033725 29.785,36.61875 C29.785,37.3714062 30.1302996,38.0782997 30.7210533,38.5397393 L30.8737975,38.64987 L43.72942,47.2186575 L37.3675225,59.93757 C37.2251162,60.2223825 37.1403506,60.5309294 37.1160511,60.843432 L37.10875,61.03125 L37.10875,62.369055 L35.8914695,61.5711733 L35.8914695,61.5711733 L35.014959,60.9861704 L35.014959,60.9861704 L34.0391666,60.325297 L34.0391666,60.325297 L33.3376533,59.8441141 L33.3376533,59.8441141 L31.823526,58.7884901 L31.823526,58.7884901 L31.0159179,58.2159085 L31.0159179,58.2159085 L30.1779508,57.6147201 L30.1779508,57.6147201 L28.8695523,56.6613334 L28.8695523,56.6613334 L27.9666383,55.9926955 L27.9666383,55.9926955 L27.0421256,55.2987047 L27.0421256,55.2987047 L26.0985172,54.5802908 L26.0985172,54.5802908 L25.1383162,53.8383835 L25.1383162,53.8383835 L24.1640254,53.0739125 C24.0006085,52.944672 23.8367088,52.8145301 23.6723785,52.6835061 L22.6816462,51.8869327 L22.6816462,51.8869327 L21.6830816,51.0701198 C21.5161406,50.9323494 21.3489774,50.7937744 21.1816444,50.6544142 L20.1760244,49.8089853 C19.3370039,49.0968675 18.4963428,48.3660881 17.6605594,47.6190681 L16.6603777,46.7150036 C8.18582579,38.9668282 0.49,29.6297442 0.49,21.2730525 C0.49,9.345105 10.41124,-6.39488462e-14 23.0715625,-6.39488462e-14 Z" id="Shape"></path>
                </g>
                <g id="Medium-S" transform="translate(319.070000, 1.000000)">
                    <path d="M56.4684375,-5.32907052e-14 C69.1336425,-5.32907052e-14 79.05,9.345105 79.05,21.2730525 C79.05,29.103606 72.2500934,38.0522154 63.7776816,46.0060209 L62.8470303,46.8696608 C62.6908981,47.0129092 62.5342747,47.1558034 62.3771909,47.2983306 L61.429409,48.1489886 L61.429409,48.1489886 L60.4720559,48.99023 C60.3117817,49.1296183 60.1511702,49.2685889 59.9902524,49.407129 L59.0213161,50.2331026 C58.3732365,50.7801726 57.7212415,51.3199489 57.0673035,51.8516187 L56.0851858,52.6429421 L56.0851858,52.6429421 L55.1016329,53.4214962 L55.1016329,53.4214962 L54.1181241,54.1866716 L54.1181241,54.1866716 L53.1361386,54.9378586 C52.9726834,55.0618569 52.8093534,55.1852469 52.6461793,55.308016 L51.6692525,56.0370775 L51.6692525,56.0370775 L50.6975472,56.7506267 L50.6975472,56.7506267 L49.7325427,57.448054 L49.7325427,57.448054 L48.7757183,58.12875 L48.7757183,58.12875 L47.8285533,58.7921049 C47.6715796,58.9011851 47.51507,59.0095173 47.3590553,59.117089 L46.4291531,59.7532895 L46.4291531,59.7532895 L45.5126084,60.370625 L45.5126084,60.370625 L44.6109005,60.9684861 L44.6109005,60.9684861 L43.7255088,61.5462631 L43.7255088,61.5462631 L42.8579126,62.1033464 L42.8579126,62.1033464 L42.43125,62.3739375 L42.43125,61.607385 L49.4962275,47.47743 C50.0170275,46.42653 49.7229704,45.1630586 48.8080697,44.4546348 L48.6662025,44.35263 L37.0653825,36.61875 L48.6662025,28.88487 C49.34487,28.4307975 49.755,27.6691275 49.755,26.85375 C49.755,26.1010938 49.4055401,25.3942003 48.8218269,24.9327607 L48.671085,24.82263 L36.4697175,16.688385 L41.7330525,11.30787 C42.1373235,10.8948105 42.3794467,10.3591514 42.4238286,9.78987634 L42.43125,9.598995 L42.43125,4.4088975 C46.5179025,1.64052 51.444345,-5.32907052e-14 56.4684375,-5.32907052e-14 Z M23.5115625,-6.39488462e-14 C28.3681853,-6.39488462e-14 33.1335595,1.5329748 37.1373129,4.13583826 L37.54875,4.4088975 L37.54875,8.602965 L30.9231975,15.379875 C30.4154175,15.9023025 30.1615275,16.62003 30.2396475,17.34264 C30.3067819,18.0050325 30.6446916,18.6058852 31.1668789,19.0135711 L31.3137975,19.11987 L42.9146175,26.85375 L31.3137975,34.58763 C30.6302475,35.0417025 30.225,35.8033725 30.225,36.61875 C30.225,37.3714062 30.5702996,38.0782997 31.1610533,38.5397393 L31.3137975,38.64987 L44.16942,47.2186575 L37.8075225,59.93757 C37.6651163,60.2223825 37.5803506,60.5309294 37.5560511,60.843432 L37.54875,61.03125 L37.54875,62.369055 L36.3314695,61.5711733 L36.3314695,61.5711733 L35.454959,60.9861704 L35.454959,60.9861704 L34.4791666,60.325297 L34.4791666,60.325297 L33.7776533,59.8441141 L33.7776533,59.8441141 L32.263526,58.7884901 L32.263526,58.7884901 L31.4559179,58.2159085 L31.4559179,58.2159085 L30.6179508,57.6147201 L30.6179508,57.6147201 L29.3095523,56.6613334 L29.3095523,56.6613334 L28.4066383,55.9926955 L28.4066383,55.9926955 L27.4821256,55.2987047 L27.4821256,55.2987047 L26.5385172,54.5802908 L26.5385172,54.5802908 L25.5783162,53.8383835 L25.5783162,53.8383835 L24.6040254,53.0739125 C24.4406085,52.944672 24.2767088,52.8145301 24.1123785,52.6835061 L23.1216462,51.8869327 L23.1216462,51.8869327 L22.1230816,51.0701198 C21.9561406,50.9323494 21.7889774,50.7937744 21.6216444,50.6544142 L20.6160244,49.8089853 C19.7770039,49.0968675 18.9363428,48.3660881 18.1005594,47.6190681 L17.1003777,46.7150036 C8.6258258,38.9668282 0.93,29.6297442 0.93,21.2730525 C0.93,9.345105 10.85124,-6.39488462e-14 23.5115625,-6.39488462e-14 Z" id="Shape"></path>
                </g>
                <g id="Regular-S" transform="translate(23.750000, 1.000000)">
                    <path d="M54.8926562,-9.59232693e-13 C67.3535837,-9.59232693e-13 77.11,9.1943775 77.11,20.9299387 C77.11,27.9338062 71.5808837,35.8467834 64.31281,43.1070511 L63.4325367,43.9750503 L63.4325367,43.9750503 L62.5370249,44.8361837 C62.3865839,44.9791004 62.2355686,45.1217061 62.0840093,45.2639883 L61.1683685,46.1136986 C60.8611407,46.3955745 60.5519796,46.6760562 60.2411277,46.9550437 L59.3037423,47.7874241 C58.9897515,48.0633234 58.6743124,48.3376286 58.3576677,48.6102398 L57.4043594,49.4228913 C57.2449527,49.5574529 57.0853053,49.6915659 56.9254474,49.825218 L55.9640173,50.6214985 L55.9640173,50.6214985 L54.9989921,51.4061153 L54.9989921,51.4061153 L54.031827,52.1784687 L54.031827,52.1784687 L53.0639776,52.937959 C52.9026932,53.0634354 52.7414409,53.188351 52.5802511,53.312693 L51.6141041,54.0517641 L51.6141041,54.0517641 L50.6509112,54.7764727 L50.6509112,54.7764727 L49.692128,55.4862191 L49.692128,55.4862191 L48.7392098,56.1804035 L48.7392098,56.1804035 L47.7936121,56.8584262 C47.6367033,56.9700498 47.4801603,57.0809751 47.3240132,57.1911895 L46.392125,57.8438451 L46.392125,57.8438451 L45.4711959,58.4788397 L45.4711959,58.4788397 L44.5626812,59.0955736 L44.5626812,59.0955736 L43.6680363,59.6934469 L43.6680363,59.6934469 L42.3552587,60.5535814 C42.2114921,60.6466444 42.068455,60.7388591 41.9261778,60.8302129 L41.081875,61.3679062 L41.081875,60.6137175 L48.0329012,46.711665 C48.5453012,45.677715 48.255987,44.4346221 47.3558427,43.7376245 L47.2162637,43.637265 L35.8025537,36.028125 L47.2162637,28.418985 C47.883985,27.9722362 48.2875,27.2228512 48.2875,26.420625 C48.2875,25.6801085 47.9436766,24.9846164 47.3693781,24.5306194 L47.2210675,24.422265 L35.2164962,16.4192175 L40.3949387,11.125485 C40.7926892,10.7190877 41.0309072,10.1920683 41.0745733,9.63197511 L41.081875,9.4441725 L41.081875,4.33778625 C45.1026137,1.61406 49.9495975,-9.59232693e-13 54.8926562,-9.59232693e-13 Z M22.4673437,-9.73443548e-13 C27.2399522,-9.73443548e-13 31.9229973,1.50466473 35.8592691,4.06000053 L36.278125,4.33778625 L36.278125,8.4642075 L29.7594362,15.1318125 C29.2598462,15.6458137 29.0100513,16.351965 29.0869112,17.06292 C29.1529628,17.7146287 29.4854223,18.3057902 29.9991873,18.7069006 L30.1437362,18.811485 L41.5574462,26.420625 L30.1437362,34.029765 C29.4712112,34.4765137 29.0725,35.2258987 29.0725,36.028125 C29.0725,36.7686415 29.4122303,37.4641336 29.9934556,37.9181306 L30.1437362,38.026485 L42.79201,46.4570662 L36.5327237,58.970835 C36.3982187,59.239845 36.3159785,59.5303758 36.2884627,59.8252108 L36.278125,60.046875 L36.278125,61.3631025 L35.0804781,60.5780899 L35.0804781,60.5780899 L33.6564941,59.6233458 L33.6564941,59.6233458 L32.3857923,58.7531848 L32.3857923,58.7531848 L31.3487379,58.0306412 L31.3487379,58.0306412 L30.6210689,57.5170286 L30.6210689,57.5170286 L29.4800685,56.7005734 L29.4800685,56.7005734 L28.285614,55.8310821 L28.285614,55.8310821 L27.4629157,55.223183 L27.4629157,55.223183 L26.6214121,54.5935517 L26.6214121,54.5935517 L25.7630839,53.9429239 L25.7630839,53.9429239 L24.889912,53.2720354 L24.889912,53.2720354 L24.0038773,52.5816219 L24.0038773,52.5816219 L23.1069604,51.8724193 L23.1069604,51.8724193 L22.2011422,51.1451632 L22.2011422,51.1451632 L21.2884035,50.4005894 L21.2884035,50.4005894 L20.3707252,49.6394336 L20.3707252,49.6394336 L19.450088,48.8624317 C17.7607512,47.4238522 16.0664833,45.9090909 14.4222103,44.3385496 L13.5306225,43.4764815 L13.5306225,43.4764815 L12.6509318,42.6040854 C5.81179061,35.7317853 0.25,27.9765961 0.25,20.9299387 C0.25,9.1943775 10.01122,-9.73443548e-13 22.4673437,-9.73443548e-13 Z" id="Shape"></path>
                </g>
            </g>
        </g>
    </g>
</svg>