<?xml version="1.0" encoding="UTF-8"?>
<svg width="3300px" height="2200px" viewBox="0 0 3300 2200" version="1.1" xmlns="http://www.w3.org/2000/svg" xmlns:xlink="http://www.w3.org/1999/xlink">
    <title>heart.fill</title>
    <g id="Page-1" stroke="none" stroke-width="1" fill="none" fill-rule="evenodd">
        <g id="heart.fill">
            <g id="Notes">
                <rect id="artboard" fill="#FFFFFF" fill-rule="nonzero" x="0" y="0" width="3300" height="2200"></rect>
                <line x1="263" y1="292" x2="3036" y2="292" id="Path" stroke="#000000" stroke-width="0.5"></line>
                <text id="Weight/Scale-Variations" fill="#000000" fill-rule="nonzero" font-family="Helvetica-Bold, Helvetica" font-size="13" font-weight="bold">
                    <tspan x="263" y="322">Weight/Scale Variations</tspan>
                </text>
                <text id="Ultralight" fill="#000000" fill-rule="nonzero" font-family="Helvetica" font-size="13" font-weight="normal">
                    <tspan x="533.711" y="322">Ultralight</tspan>
                </text>
                <text id="Thin" fill="#000000" fill-rule="nonzero" font-family="Helvetica" font-size="13" font-weight="normal">
                    <tspan x="843.422" y="322">Thin</tspan>
                </text>
                <text id="Light" fill="#000000" fill-rule="nonzero" font-family="Helvetica" font-size="13" font-weight="normal">
                    <tspan x="1138.63" y="322">Light</tspan>
                </text>
                <text id="Regular" fill="#000000" fill-rule="nonzero" font-family="Helvetica" font-size="13" font-weight="normal">
                    <tspan x="1426.84" y="322">Regular</tspan>
                </text>
                <text id="Medium" fill="#000000" fill-rule="nonzero" font-family="Helvetica" font-size="13" font-weight="normal">
                    <tspan x="1723.06" y="322">Medium</tspan>
                </text>
                <text id="Semibold" fill="#000000" fill-rule="nonzero" font-family="Helvetica" font-size="13" font-weight="normal">
                    <tspan x="2015.77" y="322">Semibold</tspan>
                </text>
                <text id="Bold" fill="#000000" fill-rule="nonzero" font-family="Helvetica" font-size="13" font-weight="normal">
                    <tspan x="2326.48" y="322">Bold</tspan>
                </text>
                <text id="Heavy" fill="#000000" fill-rule="nonzero" font-family="Helvetica" font-size="13" font-weight="normal">
                    <tspan x="2618.19" y="322">Heavy</tspan>
                </text>
                <text id="Black" fill="#000000" fill-rule="nonzero" font-family="Helvetica" font-size="13" font-weight="normal">
                    <tspan x="2917.4" y="322">Black</tspan>
                </text>
                <line x1="263" y1="1903" x2="3036" y2="1903" id="Path" stroke="#000000" stroke-width="0.5"></line>
                <g id="Group" transform="translate(264.000000, 1918.000000)" fill="#000000" fill-rule="nonzero">
                    <path d="M8.24805,15.830078 C12.5547,15.830078 16.1387,12.25586 16.1387,7.94922 C16.1387,3.6426 12.5449,0.0684 8.23828,0.0684 C3.94141,0.0684 0.36719,3.6426 0.36719,7.94922 C0.36719,12.25586 3.95117,15.830078 8.24805,15.830078 Z M8.24805,14.345703 C4.70312,14.345703 1.87109,11.50391 1.87109,7.94922 C1.87109,4.3945 4.69336,1.5527 8.23828,1.5527 C11.793,1.5527 14.6348,4.3945 14.6445252,7.94922 C14.6543,11.50391 11.8027,14.345703 8.24805,14.345703 Z M8.22852,11.37695 C8.69727,11.37695 8.9707,11.06445 8.9707,10.54688 L8.9707,8.68164 L11.002,8.68164 C11.5,8.68164 11.832,8.42773 11.832,7.95898 C11.832,7.48047 11.5195,7.2168 11.002,7.2168 L8.9707,7.2168 L8.9707,5.18555 C8.9707,4.668 8.69727,4.3457 8.22852,4.3457 C7.75977,4.3457 7.50586,4.6875 7.50586,5.18555 L7.50586,7.2168 L5.49414,7.2168 C4.97656,7.2168 4.64453,7.48047 4.64453,7.95898 C4.64453,8.42773 4.99609,8.68164 5.49414,8.68164 L7.50586,8.68164 L7.50586,10.54688 C7.50586,11.04492 7.75977,11.37695 8.22852,11.37695 Z" id="Shape"></path>
                </g>
                <g id="Group" transform="translate(282.506000, 1915.000000)" fill="#000000" fill-rule="nonzero">
                    <path d="M10.709,20.91016 C16.1582,20.91016 20.6699,16.38867 20.6699,10.94922 C20.6699,5.5 16.1484,0.9883 10.6992,0.9883 C5.25977,0.9883 0.74805,5.5 0.74805,10.94922 C0.74805,16.38867 5.26953,20.91016 10.709,20.91016 Z M10.709,19.25 C6.09961,19.25 2.41797,15.55859 2.41797,10.94922 C2.41797,6.3398 6.08984,2.6484 10.6992,2.6484 C15.3086,2.6484 19,6.3398 19.009819,10.94922 C19.0195,15.55859 15.3184,19.25 10.709,19.25 Z M10.6797,15.33398 C11.207,15.33398 11.5098,14.98242 11.5098,14.40625 L11.5098,11.76953 L14.3223,11.76953 C14.8691,11.76953 15.25,11.48633 15.25,10.96875 C15.25,10.44141 14.8887,10.13867 14.3223,10.13867 L11.5098,10.13867 L11.5098,7.3164 C11.5098,6.75 11.207,6.3887 10.6797,6.3887 C10.1621,6.3887 9.8789,6.7695 9.8789,7.3164 L9.8789,10.13867 L7.07617,10.13867 C6.50977,10.13867 6.13867,10.44141 6.13867,10.96875 C6.13867,11.48633 6.5293,11.76953 7.07617,11.76953 L9.8789,11.76953 L9.8789,14.40625 C9.8789,14.96289 10.1621,15.33398 10.6797,15.33398 Z" id="Shape"></path>
                </g>
                <g id="Group" transform="translate(306.924000, 1913.000000)" fill="#000000" fill-rule="nonzero">
                    <path d="M12.9707,25.66406 C19.9336,25.66406 25.6953,19.9023438 25.6953,12.94922 C25.6953,5.9863 19.9238,0.2246 12.9609,0.2246 C6.00781,0.2246 0.25586,5.9863 0.25586,12.94922 C0.25586,19.9023438 6.01758,25.66406 12.9707,25.66406 Z M12.9707,23.84766 C6.93555,23.84766 2.08203,18.98438 2.08203,12.94922 C2.08203,6.9043 6.92578,2.0508 12.9609,2.0508 C19.0059,2.0508 23.8594,6.9043 23.8691148,12.94922 C23.8789,18.98438 19.0156,23.84766 12.9707,23.84766 Z M12.9414,18.61328 C13.5176,18.61328 13.8594,18.22266 13.8594,17.61719 L13.8594,13.86719 L17.7754,13.86719 C18.3711,13.86719 18.7812,13.53516 18.7812,12.97852 C18.7812,12.40234 18.3906,12.06055 17.7754,12.06055 L13.8594,12.06055 L13.8594,8.1348 C13.8594,7.5195 13.5176,7.1289 12.9414,7.1289 C12.375,7.1289 12.0527,7.5391 12.0527,8.1348 L12.0527,12.06055 L8.1465,12.06055 C7.53125,12.06055 7.13086,12.40234 7.13086,12.97852 C7.13086,13.53516 7.55078,13.86719 8.1465,13.86719 L12.0527,13.86719 L12.0527,17.61719 C12.0527,18.20312 12.375,18.61328 12.9414,18.61328 Z" id="Shape"></path>
                </g>
                <text id="Design-Variations" fill="#000000" fill-rule="nonzero" font-family="Helvetica-Bold, Helvetica" font-size="13" font-weight="bold">
                    <tspan x="263" y="1953">Design Variations</tspan>
                </text>
                <text id="Symbols-are-supported-in-up-to-nine-weights-and-three-scales." fill="#000000" fill-rule="nonzero" font-family="Helvetica" font-size="13" font-weight="normal">
                    <tspan x="263" y="1971">Symbols are supported in up to nine weights and three scales.</tspan>
                </text>
                <text id="For-optimal-layout-with-text-and-other-symbols,-vertically-align" fill="#000000" fill-rule="nonzero" font-family="Helvetica" font-size="13" font-weight="normal">
                    <tspan x="263" y="1989">For optimal layout with text and other symbols, vertically align</tspan>
                </text>
                <text id="symbols-with-the-adjacent-text." fill="#000000" fill-rule="nonzero" font-family="Helvetica" font-size="13" font-weight="normal">
                    <tspan x="263" y="2007">symbols with the adjacent text.</tspan>
                </text>
                <line x1="776" y1="1919" x2="776" y2="1933" id="Path" stroke="#00AEEF" stroke-width="0.5"></line>
                <g id="Group" transform="translate(778.000000, 1918.000000)" fill="#000000" fill-rule="nonzero">
                    <path d="M1.31055,15.126953 C1.82812,15.126953 2.08203,14.9316406 2.26758,14.394531 L3.52734,10.9375 L9.2891,10.9375 L10.5488,14.394531 C10.7344,14.9316406 10.9883,15.126953 11.4961,15.126953 C12.0137,15.126953 12.3457,14.814453 12.3457,14.326172 C12.3457,14.160156 12.3164,14.013672 12.2383,13.79883 L7.6582,1.6113 C7.43359,1.0059 7.0332,0.7129 6.4082,0.7129 C5.80273,0.7129 5.39258,1.0059 5.17773,1.6016 L0.59766,13.80859 C0.51953,14.023438 0.49023,14.169922 0.49023,14.335938 C0.49023,14.824219 0.80273,15.126953 1.31055,15.126953 Z M4.00586,9.46289 L6.37891,2.8906 L6.42773,2.8906 L8.8008,9.46289 L4.00586,9.46289 Z" id="Shape"></path>
                </g>
                <line x1="792.836" y1="1919" x2="792.836" y2="1933" id="Path" stroke="#00AEEF" stroke-width="0.5"></line>
                <text id="Margins" fill="#000000" fill-rule="nonzero" font-family="Helvetica-Bold, Helvetica" font-size="13" font-weight="bold">
                    <tspan x="776" y="1953">Margins</tspan>
                </text>
                <text id="Leading-and-trailing-margins-on-the-left-and-right-side-of-each-symbol" fill="#000000" fill-rule="nonzero" font-family="Helvetica" font-size="13" font-weight="normal">
                    <tspan x="776" y="1971">Leading and trailing margins on the left and right side of each symbol</tspan>
                </text>
                <text id="can-be-adjusted-by-modifying-the-x-location-of-the-margin-guidelines." fill="#000000" fill-rule="nonzero" font-family="Helvetica" font-size="13" font-weight="normal">
                    <tspan x="776" y="1989">can be adjusted by modifying the x-location of the margin guidelines.</tspan>
                </text>
                <text id="Modifications-are-automatically-applied-proportionally-to-all" fill="#000000" fill-rule="nonzero" font-family="Helvetica" font-size="13" font-weight="normal">
                    <tspan x="776" y="2007">Modifications are automatically applied proportionally to all</tspan>
                </text>
                <text id="scales-and-weights." fill="#000000" fill-rule="nonzero" font-family="Helvetica" font-size="13" font-weight="normal">
                    <tspan x="776" y="2025">scales and weights.</tspan>
                </text>
                <g id="Group" transform="translate(1291.000000, 1914.000000)" fill="#000000" fill-rule="nonzero">
                    <path d="M0.8418,20.86523 L2.54102,22.57422 C3.40039,23.44336 4.38672,23.38477 5.31445,22.35938 L15.4902,11.14844 C15.7539,11.23633 16.0273,11.2168 16.3398,11.1582 L17.4043,10.96289 L18.0684,11.63672 L18.0293,12.19336 C17.9902,12.69141 18.1172,13.07227 18.6055,13.55078 L19.3672,14.29297 C19.8457,14.77148 20.4609,14.80078 20.9297,14.33203 L23.8398,11.41211 C24.3086,10.94336 24.2891,10.34766 23.8105,9.86914 L23.0391,9.10742 C22.5605,8.6289 22.1895,8.4727 21.7109,8.5117 L21.1348,8.5605 L20.4902,7.9258 L20.7344,6.8027 C20.8613,6.2363 20.7051,5.7969 20.1191,5.2109 L17.9219,3.0234 C14.582,-0.2969 10.1484,-0.2188 7.25781,2.6719 C6.83789,3.082 6.80859,3.6582 7.04297,4.0488 C7.27734,4.4102 7.73633,4.6445 8.3809,4.4785 C9.8457,4.1367 11.3691,4.0781 12.7949,5.0156 L12.209,6.4707 C12.0137,6.9492 11.9844,7.3496 12.1113,7.7109 L1.04688,18.101562 C0.06055,19.0195312 -0.01758,19.996094 0.8418,20.86523 Z M8.752,3.043 C11.1836,1.2656 14.4746,1.5684 16.7012,3.7949 L19.1328,6.207 C19.3672,6.4414 19.4062,6.627 19.3379,6.9688 L19.0156,8.4531 L20.5195,9.9375 L21.5059,9.87891 C21.7598,9.86914 21.8379,9.88867 22.0332,10.08398 L22.6094,10.66016 L20.168,13.10156 L19.5918,12.52539 C19.3965,12.33008 19.3672,12.25195 19.377,11.98828 L19.4453,11.01172 L17.9512,9.52734 L16.4277,9.78125 C16.1055,9.84961 15.959,9.82031 15.7148,9.58594 L13.7129,7.584 C13.459,7.3496 13.4297,7.1836 13.5859,6.8125 L14.4648,4.7227 C12.9023,3.2676 10.8711,2.6426 8.8398,3.2383 C8.6836,3.2773 8.625,3.1504 8.752,3.043 Z M3.27344,21.3047 L2.10156,20.14258 C1.63281,19.683594 1.74023,19.341797 2.14062,18.9804688 L12.9512,8.8047 L14.416,10.28906 L4.42578,21.27539 C4.07422,21.67578 3.74219,21.77344 3.27344,21.3047 Z" id="Shape"></path>
                </g>
                <text id="Exporting" fill="#000000" fill-rule="nonzero" font-family="Helvetica-Bold, Helvetica" font-size="13" font-weight="bold">
                    <tspan x="1289" y="1953">Exporting</tspan>
                </text>
                <text id="Symbols-should-be-outlined-when-exporting-to-ensure-the" fill="#000000" fill-rule="nonzero" font-family="Helvetica" font-size="13" font-weight="normal">
                    <tspan x="1289" y="1971">Symbols should be outlined when exporting to ensure the</tspan>
                </text>
                <text id="design-is-preserved-when-submitting-to-Xcode." fill="#000000" fill-rule="nonzero" font-family="Helvetica" font-size="13" font-weight="normal">
                    <tspan x="1289" y="1989">design is preserved when submitting to Xcode.</tspan>
                </text>
                <text id="template-version" fill="#000000" fill-rule="nonzero" font-family="Helvetica" font-size="13" font-weight="normal">
                    <tspan x="2952" y="1933">Template v.2.0</tspan>
                </text>
                <text id="Requires-Xcode-12-or-greater" fill="#000000" fill-rule="nonzero" font-family="Helvetica" font-size="13" font-weight="normal">
                    <tspan x="2865" y="1951">Requires Xcode 12 or greater</tspan>
                </text>
                <text id="Generated-from-heart.fill" fill="#000000" fill-rule="nonzero" font-family="Helvetica" font-size="13" font-weight="normal">
                    <tspan x="2895" y="1969">Generated from heart.fill</tspan>
                </text>
                <text id="Typeset-at-100-points" fill="#000000" fill-rule="nonzero" font-family="Helvetica" font-size="13" font-weight="normal">
                    <tspan x="2912" y="1987">Typeset at 100 points</tspan>
                </text>
                <text id="Small" fill="#000000" fill-rule="nonzero" font-family="Helvetica" font-size="13" font-weight="normal">
                    <tspan x="263" y="726">Small</tspan>
                </text>
                <text id="Medium" fill="#000000" fill-rule="nonzero" font-family="Helvetica" font-size="13" font-weight="normal">
                    <tspan x="263" y="1156">Medium</tspan>
                </text>
                <text id="Large" fill="#000000" fill-rule="nonzero" font-family="Helvetica" font-size="13" font-weight="normal">
                    <tspan x="263" y="1586">Large</tspan>
                </text>
            </g>
            <g id="Guides" transform="translate(263.000000, 625.000000)">
                <g id="H-reference" transform="translate(76.000000, 0.000000)" fill="#27AAE1" fill-rule="nonzero">
                    <path d="M0.976562,71 L3.66211,71 L12.9883,46.5371 L45.7031,46.5371 L55.0781,71 L57.7148,71 L30.6152,0.541 L28.125,0.541 L0.976562,71 Z M29.2969,3.8613 L29.3945,3.8613 L44.873,44.291 L13.8672,44.291 L29.2969,3.8613 Z" id="Shape"></path>
                </g>
                <line x1="0" y1="71" x2="2773" y2="71" id="Baseline-S" stroke="#27AAE1" stroke-width="0.5"></line>
                <line x1="0" y1="0.541" x2="2773" y2="0.541" id="Capline-S" stroke="#27AAE1" stroke-width="0.5"></line>
                <g id="H-reference" transform="translate(76.000000, 430.000000)" fill="#27AAE1" fill-rule="nonzero">
                    <path d="M0.976562,71 L3.66211,71 L12.9883,46.5371 L45.7031,46.5371 L55.0781,71 L57.7148,71 L30.6152,0.541 L28.125,0.541 L0.976562,71 Z M29.2969,3.8613 L29.3945,3.8613 L44.873,44.291 L13.8672,44.291 L29.2969,3.8613 Z" id="Shape"></path>
                </g>
                <line x1="0" y1="501" x2="2773" y2="501" id="Baseline-M" stroke="#27AAE1" stroke-width="0.5"></line>
                <line x1="0" y1="430.54" x2="2773" y2="430.54" id="Capline-M" stroke="#27AAE1" stroke-width="0.5"></line>
                <g id="H-reference" transform="translate(76.000000, 860.000000)" fill="#27AAE1" fill-rule="nonzero">
                    <path d="M0.976562,71 L3.66211,71 L12.9883,46.5371 L45.7031,46.5371 L55.0781,71 L57.7148,71 L30.6152,0.541 L28.125,0.541 L0.976562,71 Z M29.2969,3.8613 L29.3945,3.8613 L44.873,44.291 L13.8672,44.291 L29.2969,3.8613 Z" id="Shape"></path>
                </g>
                <line x1="0" y1="931" x2="2773" y2="931" id="Baseline-L" stroke="#27AAE1" stroke-width="0.5"></line>
                <line x1="0" y1="860.54" x2="2773" y2="860.54" id="Capline-L" stroke="#27AAE1" stroke-width="0.5"></line>
                <line x1="1126.3" y1="405.79" x2="1126.3" y2="525.12" id="left-margin" stroke="#00AEEF" stroke-width="0.5"></line>
                <line x1="1247.39" y1="405.79" x2="1247.39" y2="525.12" id="right-margin" stroke="#00AEEF" stroke-width="0.5"></line>
            </g>
            <g id="Symbols" transform="translate(1385.000000, 625.000000)" fill="#AC6868" fill-rule="nonzero">
                <g id="Bold-L" transform="translate(889.560000, 838.000000)">
                    <path d="M36.7180247,-9.09494702e-13 C46.5924181,-9.09494702e-13 54.7739211,4.29132703 60.6503297,11.2210427 L60.6508257,19.8598136 L60.6609633,20.2085429 C60.7081834,21.0200066 60.919754,21.813505 61.2828027,22.5407593 L61.4476316,22.8482432 L69.830611,37.4521088 L51.7378437,55.5459286 L51.5237632,55.7711772 C49.4524829,58.0649152 49.4668211,61.5691008 51.5568025,63.845812 L51.7727191,64.0693012 L70.1040571,82.1011851 L61.2044435,101.361109 L61.058937,101.703476 C60.8344947,102.280633 60.7007123,102.889078 60.6623526,103.507151 L60.6508257,103.878976 L60.6501591,117.95797 L60.4256665,117.822073 C24.059192,94.6093841 0.906385272,67.6304078 0.446965786,40.1713886 L0.44,39.3391536 C0.44,16.282847 16.2669257,-9.09494702e-13 36.7180247,-9.09494702e-13 Z M93.512242,-9.09494702e-13 C113.963474,-9.09494702e-13 129.79,16.282847 129.79,39.3391536 C129.79,66.3753998 107.71264,92.9787467 72.6565955,116.015622 L72.6557755,105.196041 L82.7732249,83.3038439 L82.8933017,83.0259037 C83.756771,80.8809211 83.3092935,78.426847 81.7443299,76.7246666 L81.5338828,76.5069943 L64.5044149,59.7546379 L81.5687582,42.6925769 L81.7754956,42.4753351 C83.4432125,40.6334332 83.8022411,37.9491722 82.6782698,35.7341018 L82.5300368,35.4597566 L72.6557755,18.2601957 L72.6551382,8.0550721 C78.1921233,2.99223278 85.2288552,-9.09494702e-13 93.512242,-9.09494702e-13 Z" id="Shape"></path>
                </g>
                <g id="Semibold-L" transform="translate(594.750000, 839.000000)">
                    <path d="M35.9390502,0 C45.6531326,0 53.7018087,4.22165724 59.4828137,11.0388688 L59.4833016,19.5373891 L59.4932747,19.8804568 C59.5397281,20.6787464 59.7478639,21.4593623 60.1050185,22.1748096 L60.2671714,22.4773015 L68.514053,36.8440731 L50.7150221,54.6441392 L50.5044172,54.865731 C48.4667642,57.1222301 48.4808696,60.5695251 50.5369201,62.8092738 L50.7493313,63.0291347 L68.7830596,80.7682706 L60.0279315,99.715509 L59.8847873,100.052317 C59.6639888,100.620105 59.5323783,101.218672 59.4946415,101.82671 L59.4833016,102.192499 L59.4826459,116.042919 L59.2617979,115.90923 C23.4857339,93.0733987 0.708813498,66.5324267 0.256852697,39.5192053 L0.25,38.7004816 C0.25,16.0184947 15.8199753,0 35.9390502,0 Z M91.8112122,0 C111.930418,0 127.5,16.0184947 127.5,38.7004816 C127.5,65.2977938 105.781066,91.4692348 71.2941575,114.132106 L71.2933509,103.488181 L81.2465433,81.9514042 L81.3646706,81.6779763 C82.2141215,79.5678176 81.7739088,77.1535855 80.2343524,75.47904 L80.0273219,75.2649016 L63.2743278,58.7845201 L80.0616311,41.999462 L80.2650121,41.7857472 C81.9056536,39.9737486 82.2588534,37.3330666 81.1531298,35.1539579 L81.0073033,34.8840667 L71.2933509,17.963741 L71.2927239,7.92429783 C76.7398159,2.94365381 83.6623063,0 91.8112122,0 Z" id="Shape"></path>
                </g>
                <g id="Medium-L" transform="translate(298.720000, 840.000000)">
                    <path d="M35.5287217,0 C45.1229525,0 53.0723247,4.16957078 58.7820042,10.9026722 L58.7824861,19.2963384 L58.7923361,19.6351733 C58.8382164,20.4236137 59.0437842,21.1945985 59.3965322,21.9012186 L59.5566845,22.1999784 L67.7018167,36.3894939 L50.1223888,53.9699444 L49.9143824,54.1888021 C47.9018697,56.4174607 47.9158011,59.8222233 49.9464843,62.0343382 L50.1562747,62.2514865 L67.9675044,79.7717584 L59.3203963,98.4852273 L59.1790182,98.8178802 C58.9609439,99.3786623 58.8309572,99.9698443 58.793686,100.570381 L58.7824861,100.931656 L58.7818384,114.611191 L58.5637152,114.479151 C23.2290533,91.9250668 0.733152694,65.7115551 0.286768149,39.0316206 L0.28,38.2229982 C0.28,15.8208598 15.6578742,0 35.5287217,0 Z M90.7115375,0 C110.582515,0 125.96,15.8208598 125.96,38.2229982 C125.96,64.492155 104.509033,90.3406949 70.4476205,112.723953 L70.4468239,102.211352 L80.2772146,80.9402946 L80.3938845,80.6702402 C81.2328549,78.5861164 80.7980735,76.2016709 79.2775121,74.5477858 L79.0730359,74.3362895 L62.5267388,58.0592415 L79.1069218,41.4812761 L79.3077935,41.2701981 C80.9281929,39.4805558 81.2770349,36.8724543 80.1849536,34.7202313 L80.0409264,34.4536699 L70.4468239,17.7421059 L70.4462046,7.8265285 C75.8260908,2.90733525 82.6631722,0 90.7115375,0 Z" id="Shape"></path>
                </g>
                <g id="Regular-L" transform="translate(0.890000, 838.000000)">
                    <path d="M34.7837704,0.5 C44.2215071,0.5 52.041215,4.6015598 57.6577624,11.2248358 L57.6582364,19.4815906 L57.6679258,19.8148988 C57.7130577,20.5904787 57.9152724,21.3488877 58.2622667,22.043982 L58.4198067,22.3378686 L66.4320815,36.2959352 L49.1393963,53.5896262 L48.9347827,53.8049141 C46.9550967,55.9972204 46.9688009,59.3464471 48.966361,61.5224796 L49.1727295,61.7360859 L66.6934355,78.97058 L58.1873726,97.3788085 L58.0483006,97.7060354 C57.8337834,98.2576704 57.7059169,98.8392095 57.6692536,99.4299502 L57.6582364,99.7853333 L57.6575993,113.241738 L57.443034,113.111851 C22.6847252,90.9256525 0.5557612,65.1397164 0.116657751,38.8949654 L0.11,38.0995327 C0.11,16.0628015 15.2370416,0.5 34.7837704,0.5 Z M89.0664846,0.5 C108.613341,0.5 123.74,16.0628015 123.74,38.0995327 C123.74,63.9402063 102.638925,89.3671238 69.1330978,111.385283 L69.1323141,101.044156 L78.8023587,80.1200558 L78.9171256,79.8544064 C79.7424113,77.8042773 79.3147218,75.4587252 77.8189626,73.831817 L77.6178216,73.6237704 L61.3414157,57.6122218 L77.6511548,41.304664 L77.8487501,41.0970289 C79.4427187,39.3365779 79.7858707,36.7710179 78.7116026,34.6539003 L78.5699247,34.3916869 L69.1323141,17.9527096 L69.1317049,8.1988679 C74.4238384,3.35991293 81.1493983,0.5 89.0664846,0.5 Z" id="Shape"></path>
                </g>
                <g id="Bold-M" transform="translate(903.650000, 420.000000)">
                    <path d="M28.9713562,0 C36.7617067,0 43.2164604,3.38561982 47.8526219,8.85278244 L47.8530132,15.6682951 L47.8610113,15.9434233 C47.8982653,16.5836233 48.0651828,17.2096497 48.3516081,17.7834131 L48.481649,18.0260009 L55.0953564,29.5476437 L40.8211631,43.8226673 L40.6522654,44.000376 C39.0181398,45.8100085 39.0294518,48.5746172 40.6783316,50.3708165 L40.8486779,50.5471371 L55.3110903,64.7732968 L48.2897871,79.9683119 L48.1749905,80.2384204 C47.9979179,80.6937658 47.892371,81.1737954 47.8621073,81.6614205 L47.8530132,81.9547704 L47.8524873,93.0623177 L47.6753751,92.9551032 C18.9842369,74.6415744 0.7179522,53.3566534 0.35549562,31.6930051 L0.35,31.0364176 C0.35,12.8462663 12.8365695,0 28.9713562,0 Z M73.7788543,0 C89.9137462,0 102.4,12.8462663 102.4,31.0364176 C102.4,52.3665215 84.9821834,73.3550916 57.3249019,91.5299126 L57.3242551,82.9938614 L65.3063634,65.7221281 L65.4010973,65.5028486 C66.0823269,63.8105759 65.7292919,61.8744472 64.4946221,60.5315209 L64.3285909,60.3597895 L50.8932821,47.1431063 L64.3561057,33.6820833 L64.5192101,33.5106915 C65.8349465,32.0575328 66.1182003,29.9397992 65.231449,28.1922311 L65.1145014,27.9757878 L57.3242551,14.406285 L57.3237522,6.35500663 C61.6921274,2.36070626 67.2437199,0 73.7788543,0 Z" id="Shape"></path>
                </g>
                <g id="Semibold-M" transform="translate(607.570000, 421.000000)">
                    <path d="M28.5437163,0 C36.195894,0 42.5361635,3.3255711 47.0900963,8.69576592 L47.0904806,15.3903959 L47.0983368,15.6606443 C47.13493,16.2894895 47.2988871,16.9044124 47.5802322,17.4679993 L47.7079667,17.7062845 L54.2043707,29.0235747 L40.1833502,43.0454107 L40.0174482,43.2199676 C38.412306,44.9975037 38.4234175,47.7130782 40.0430521,49.4774193 L40.210377,49.6506127 L54.4162782,63.6244515 L47.5195077,78.5499617 L47.4067472,78.8152794 C47.2328152,79.2625486 47.1291403,79.7340642 47.0994134,80.2130406 L47.0904806,80.5011875 L47.089964,91.4117268 L46.9159931,91.306414 C18.7337325,73.3177013 0.791426051,52.4102982 0.435398148,31.1308852 L0.43,30.4859432 C0.43,12.6184197 12.6951027,0 28.5437163,0 Z M72.5564905,0 C88.4052074,0 100.67,12.6184197 100.67,30.4859432 C100.67,51.4377277 83.5611128,72.0540361 56.3943721,89.9065011 L56.3937367,81.5218488 L64.2342711,64.5564539 L64.3273248,64.3410636 C64.9964718,62.6788058 64.6496984,60.777017 63.4369272,59.4579094 L63.2738408,59.2892239 L50.0768261,46.3069571 L63.3008676,33.0846843 L63.4610791,32.9163324 C64.7534791,31.4889474 65.0317089,29.4087748 64.1606855,27.6922023 L64.0458121,27.479598 L56.3937367,14.1507693 L56.3932427,6.24229167 C60.6841387,2.31883582 66.1372659,0 72.5564905,0 Z" id="Shape"></path>
                </g>
                <g id="Medium-M" transform="translate(311.350000, 422.000000)">
                    <path d="M28.368262,9.09494702e-13 C35.9128023,9.09494702e-13 42.1638881,3.27879281 46.6537641,8.57344918 L46.654143,15.1739109 L46.6618887,15.4403579 C46.6979672,16.0603576 46.859618,16.6666309 47.1370057,17.2222903 L47.2629434,17.4572236 L53.6679674,28.6153221 L39.84417,42.4399236 L39.6806016,42.6120251 C38.0980378,44.3645579 38.1089929,47.0419345 39.7058453,48.781458 L39.8708166,48.9522152 L53.8768942,62.7294946 L47.0771353,77.445059 L46.9659609,77.7066446 C46.7944755,78.1476225 46.6922589,78.6125056 46.6629502,79.0847447 L46.654143,79.3688384 L46.6536337,90.1259074 L46.4821099,90.0220759 C18.6962678,72.2863968 1.00634215,51.6730823 0.655322216,30.6929906 L0.65,30.0571206 C0.65,12.440926 12.7425788,9.09494702e-13 28.368262,9.09494702e-13 Z M71.7619419,9.09494702e-13 C87.3877269,9.09494702e-13 99.48,12.440926 99.48,30.0571206 C99.48,50.7141922 82.6117705,71.0405067 55.8271637,88.6418546 L55.8265373,80.3751428 L63.5567848,63.6483873 L63.6485296,63.4360267 C64.3082643,61.7971506 63.9663686,59.9221128 62.7706566,58.6215601 L62.6098642,58.4552473 L49.5984818,45.6555923 L62.6365108,32.6193071 L62.7944687,32.4533233 C64.0686895,31.0460163 64.3430057,28.9951039 63.4842343,27.3026771 L63.3709767,27.0930633 L55.8265373,13.9517212 L55.8260503,6.15448609 C60.0565894,2.28621852 65.4330117,9.09494702e-13 71.7619419,9.09494702e-13 Z" id="Shape"></path>
                </g>
                <g id="Regular-M" transform="translate(16.300000, 422.000000)">
                    <path d="M27.2578,0.4355 C34.6605415,0.4355 40.7941387,3.65266823 45.1996279,8.84781206 L45.1999998,15.3242187 L45.2075999,15.5856579 C45.2430003,16.1940048 45.4016128,16.7888832 45.6737871,17.334099 L45.7973578,17.5646169 L52.082,28.513 L38.5180195,42.0777695 L38.3575253,42.2466363 C36.8047056,43.9662305 36.8154549,46.5932861 38.3822946,48.3001154 L38.5441653,48.4676632 L52.287,61.986 L45.6150419,76.4249868 L45.505957,76.681656 C45.3376947,77.1143457 45.2373993,77.5704914 45.2086414,78.0338548 L45.1999998,78.312609 L45.1995,88.8675 L45.0312,88.76562 C17.76759,71.3632812 0.41014473,51.1373919 0.0657221856,30.5516189 L0.0605,29.9277 C0.0605,12.6426 11.9258,0.4355 27.2578,0.4355 Z M69.8359,0.4355 C85.168,0.4355 97.033,12.6426 97.033,29.9277 C97.033,50.196524 80.4818072,70.1408074 54.2006144,87.4113397 L54.1999998,79.3 L61.7849581,62.8876222 L61.8749786,62.6792529 C62.5223135,61.0711793 62.1868438,59.2313827 61.013605,57.9552737 L60.8558347,57.7920868 L48.089,45.233 L60.8819805,32.4417305 L61.0369696,32.2788663 C62.2872416,30.8980095 62.556402,28.8856438 61.7137711,27.225026 L61.6026422,27.0193519 L54.1999998,14.125 L54.1995219,6.47431314 C58.3505485,2.67874927 63.6259214,0.4355 69.8359,0.4355 Z" id="Shape"></path>
                </g>
                <g id="Bold-S" transform="translate(914.830000, 0.000000)">
                    <path d="M22.6968724,0 C28.8283859,0 33.9086977,2.66470342 37.5576589,6.96771667 L37.5579669,12.3319693 L37.5642619,12.5485131 C37.5935832,13.0523922 37.7249582,13.5451158 37.9503936,13.996705 L38.0527442,14.1876374 L43.2581629,23.255921 L32.0234426,34.4912948 L31.8905092,34.6311632 C30.6043458,36.0554618 30.6132491,38.2313891 31.911025,39.6451149 L32.0450985,39.7838908 L43.4279595,50.9808055 L37.9017364,62.9402726 L37.811384,63.1528655 C37.6720163,63.511252 37.588944,63.8890666 37.5651246,64.2728594 L37.5579669,64.5037448 L37.557553,73.2461083 L37.4181541,73.1617236 C14.8363587,58.747783 0.459602359,41.9951631 0.174325411,24.9444603 L0.17,24.4276831 C0.17,10.1108487 9.99774391,0 22.6968724,0 Z M57.9632932,0 C70.6625046,0 80.49,10.1108487 80.49,24.4276831 C80.49,41.2158648 66.7810433,57.7352372 45.0129606,72.0400056 L45.0124514,65.3215771 L51.2948908,51.7275975 L51.3694526,51.5550103 C51.9056247,50.2230814 51.6277631,48.6992219 50.6559975,47.6422514 L50.5253202,47.5070876 L39.9508566,37.1046967 L50.5469761,26.5099944 L50.6753499,26.3750979 C51.7109202,25.2313673 51.9338593,23.564573 51.2359283,22.189123 L51.1438829,22.018768 L45.0124514,11.3386851 L45.0120556,5.00180434 C48.4502516,1.85802966 52.8197167,0 57.9632932,0 Z" id="Shape"></path>
                </g>
                <g id="Semibold-S" transform="translate(618.510000, 0.000000)">
                    <path d="M22.6978752,3.19744231e-13 C28.7425619,3.19744231e-13 33.7509327,2.61096889 37.348222,6.82721061 L37.3485256,12.0832915 L37.3547314,12.2954686 C37.3836375,12.7891869 37.5131521,13.2719745 37.7353952,13.7144573 L37.8362965,13.9015395 L42.9680026,22.7869585 L31.8923743,33.7957677 L31.7613232,33.9328155 C30.4933729,35.3283928 30.5021501,37.4604418 31.7815485,38.8456595 L31.9137235,38.9816369 L43.1353947,49.9527625 L37.687427,61.6710634 L37.5983541,61.8793693 C37.46096,62.2305289 37.379064,62.6007247 37.3555819,62.9767782 L37.3485256,63.2030078 L37.3481175,71.7690789 L37.2106926,71.6863958 C14.9486722,57.5631166 0.775501374,41.1483183 0.49426416,24.4414479 L0.49,23.9350917 C0.49,9.90696042 10.1785758,3.19744231e-13 22.6978752,3.19744231e-13 Z M57.5768303,3.19744231e-13 C69.9583531,3.19744231e-13 79.54,9.92684102 79.54,23.983123 C79.54,40.465776 66.173992,56.6845119 44.9504683,70.7289474 L44.9499719,64.1327878 L51.0752473,50.7862054 L51.1479438,50.6167591 C51.6707028,49.30907 51.3997923,47.8129433 50.4523368,46.7752086 L50.3249286,46.6425046 L40.015,36.4294272 L50.3460427,26.0275382 L50.471205,25.8950967 C51.4808691,24.7721809 51.6982311,23.1357206 51.0177599,21.7853024 L50.9280171,21.6180478 L44.9499719,11.132332 L44.949586,4.91077635 C48.3017707,1.82421532 52.5619275,3.19744231e-13 57.5768303,3.19744231e-13 Z" id="Shape"></path>
                </g>
                <g id="Medium-S" transform="translate(322.070000, 1.000000)">
                    <path d="M22.3766061,-9.09494702e-13 C28.3501789,-9.09494702e-13 33.2996276,2.58025161 36.8545958,6.74689048 L36.8548959,11.9411351 L36.8610287,12.150816 C36.8895947,12.6387258 37.0175856,13.1158336 37.2372141,13.5531107 L37.3369283,13.737992 L42.4082614,22.5188766 L31.4629346,33.3981704 L31.3334253,33.533606 C30.080392,34.9127647 30.089066,37.0197308 31.3534126,38.3886517 L31.4840326,38.5230294 L42.5736842,49.3650829 L37.1898102,60.9455215 L37.1017852,61.1513768 C36.9660075,61.498405 36.885075,61.8642456 36.8618691,62.2358749 L36.8548959,62.459443 L36.8544926,70.9247368 L36.7186845,70.8430265 C14.7185702,56.8859035 0.712142535,40.6642204 0.434213994,24.1539014 L0.43,23.6535024 C0.43,9.79040794 10.0045925,-9.09494702e-13 22.3766061,-9.09494702e-13 Z M56.8452205,-9.09494702e-13 C69.0810784,-9.09494702e-13 78.55,9.81005465 78.55,23.7009686 C78.55,39.9897081 65.3412392,56.0176353 44.367404,69.8968421 L44.3669134,63.3782844 L50.4201267,50.1887206 L50.491968,50.0212678 C51.0085769,48.7289633 50.7408536,47.2504381 49.8045446,46.224912 L49.6786353,46.0937693 L39.49,36.0008457 L49.699501,25.7213319 L49.8231909,25.5904485 C50.8209765,24.4807434 51.0357814,22.8635356 50.3633156,21.5290048 L50.2746287,21.3637178 L44.3669134,11.0013634 L44.3665321,4.85300251 C47.6792793,1.80275396 51.8893166,-9.09494702e-13 56.8452205,-9.09494702e-13 Z" id="Shape"></path>
                </g>
                <g id="Regular-S" transform="translate(25.750000, 1.000000)">
                    <path d="M21.8426286,-4.05009359e-13 C27.7198534,-4.05009359e-13 32.5894723,2.53863464 36.0871023,6.63806967 L36.0873975,11.7485361 L36.0934315,11.9548351 C36.1215367,12.4348754 36.2474633,12.9042879 36.4635493,13.3345122 L36.5616553,13.5164114 L41.5511927,22.1556689 L30.7824034,32.8594902 L30.654983,32.9927413 C29.4221599,34.3496555 29.430694,36.4226383 30.6746479,37.7694799 L30.8031612,37.9016902 L41.7139474,48.5688719 L36.4169101,59.9625292 L36.3303048,60.1650642 C36.1967171,60.5064953 36.1170899,60.8664352 36.0942584,61.2320705 L36.0873975,61.4520326 L36.0870008,69.7807895 L35.9533831,69.700397 C14.3081093,55.9683889 0.527591849,40.0083459 0.254146026,23.7643224 L0.25,23.2719943 C0.25,9.63249814 9.67016361,-4.05009359e-13 21.8426286,-4.05009359e-13 Z M55.7552976,-4.05009359e-13 C67.7938029,-4.05009359e-13 77.11,9.65182796 77.11,23.3186949 C77.11,39.3447128 64.1142837,55.114125 43.4787362,68.7694737 L43.4782535,62.356054 L49.4338344,49.3792251 L49.5045169,49.2144732 C50.0127934,47.9430123 49.7493882,46.4883342 48.828181,45.4793489 L48.7043024,45.3503214 L38.68,35.4201869 L48.7248317,25.3064717 L48.8465265,25.1776994 C49.8282189,24.0858927 50.0395591,22.4947689 49.3779396,21.1817627 L49.290683,21.0191417 L43.4782535,10.8239221 L43.4778783,4.77472827 C46.7371941,1.77367729 50.8793276,-4.05009359e-13 55.7552976,-4.05009359e-13 Z" id="Shape"></path>
                </g>
            </g>
        </g>
    </g>
</svg>