<?xml version="1.0" encoding="UTF-8"?>
<svg width="3300px" height="2200px" viewBox="0 0 3300 2200" version="1.1" xmlns="http://www.w3.org/2000/svg" xmlns:xlink="http://www.w3.org/1999/xlink">
    <title>text.badge.plus copy 8</title>
    <g id="Page-1" stroke="none" stroke-width="1" fill="none" fill-rule="evenodd">
        <g id="text.badge.plus-copy-8">
            <g id="Notes">
                <rect id="artboard" fill="#FFFFFF" fill-rule="nonzero" x="0" y="0" width="3300" height="2200"></rect>
                <line x1="263" y1="292" x2="3036" y2="292" id="Path" stroke="#000000" stroke-width="0.5"></line>
                <text id="Weight/Scale-Variations" fill="#000000" fill-rule="nonzero" font-family="Helvetica-Bold, Helvetica" font-size="13" font-weight="bold">
                    <tspan x="263" y="322">Weight/Scale Variations</tspan>
                </text>
                <text id="Ultralight" fill="#000000" fill-rule="nonzero" font-family="Helvetica" font-size="13" font-weight="normal">
                    <tspan x="533.711" y="322">Ultralight</tspan>
                </text>
                <text id="Thin" fill="#000000" fill-rule="nonzero" font-family="Helvetica" font-size="13" font-weight="normal">
                    <tspan x="843.422" y="322">Thin</tspan>
                </text>
                <text id="Light" fill="#000000" fill-rule="nonzero" font-family="Helvetica" font-size="13" font-weight="normal">
                    <tspan x="1138.63" y="322">Light</tspan>
                </text>
                <text id="Regular" fill="#000000" fill-rule="nonzero" font-family="Helvetica" font-size="13" font-weight="normal">
                    <tspan x="1426.84" y="322">Regular</tspan>
                </text>
                <text id="Medium" fill="#000000" fill-rule="nonzero" font-family="Helvetica" font-size="13" font-weight="normal">
                    <tspan x="1723.06" y="322">Medium</tspan>
                </text>
                <text id="Semibold" fill="#000000" fill-rule="nonzero" font-family="Helvetica" font-size="13" font-weight="normal">
                    <tspan x="2015.77" y="322">Semibold</tspan>
                </text>
                <text id="Bold" fill="#000000" fill-rule="nonzero" font-family="Helvetica" font-size="13" font-weight="normal">
                    <tspan x="2326.48" y="322">Bold</tspan>
                </text>
                <text id="Heavy" fill="#000000" fill-rule="nonzero" font-family="Helvetica" font-size="13" font-weight="normal">
                    <tspan x="2618.19" y="322">Heavy</tspan>
                </text>
                <text id="Black" fill="#000000" fill-rule="nonzero" font-family="Helvetica" font-size="13" font-weight="normal">
                    <tspan x="2917.4" y="322">Black</tspan>
                </text>
                <line x1="263" y1="1903" x2="3036" y2="1903" id="Path" stroke="#000000" stroke-width="0.5"></line>
                <g id="Group" transform="translate(264.000000, 1918.000000)" fill="#000000" fill-rule="nonzero">
                    <path d="M8.24805,15.830078 C12.5547,15.830078 16.1387,12.25586 16.1387,7.94922 C16.1387,3.6426 12.5449,0.0684 8.23828,0.0684 C3.94141,0.0684 0.36719,3.6426 0.36719,7.94922 C0.36719,12.25586 3.95117,15.830078 8.24805,15.830078 Z M8.24805,14.345703 C4.70312,14.345703 1.87109,11.50391 1.87109,7.94922 C1.87109,4.3945 4.69336,1.5527 8.23828,1.5527 C11.793,1.5527 14.6348,4.3945 14.6445252,7.94922 C14.6543,11.50391 11.8027,14.345703 8.24805,14.345703 Z M8.22852,11.37695 C8.69727,11.37695 8.9707,11.06445 8.9707,10.54688 L8.9707,8.68164 L11.002,8.68164 C11.5,8.68164 11.832,8.42773 11.832,7.95898 C11.832,7.48047 11.5195,7.2168 11.002,7.2168 L8.9707,7.2168 L8.9707,5.18555 C8.9707,4.668 8.69727,4.3457 8.22852,4.3457 C7.75977,4.3457 7.50586,4.6875 7.50586,5.18555 L7.50586,7.2168 L5.49414,7.2168 C4.97656,7.2168 4.64453,7.48047 4.64453,7.95898 C4.64453,8.42773 4.99609,8.68164 5.49414,8.68164 L7.50586,8.68164 L7.50586,10.54688 C7.50586,11.04492 7.75977,11.37695 8.22852,11.37695 Z" id="Shape"></path>
                </g>
                <g id="Group" transform="translate(282.506000, 1915.000000)" fill="#000000" fill-rule="nonzero">
                    <path d="M10.709,20.91016 C16.1582,20.91016 20.6699,16.38867 20.6699,10.94922 C20.6699,5.5 16.1484,0.9883 10.6992,0.9883 C5.25977,0.9883 0.74805,5.5 0.74805,10.94922 C0.74805,16.38867 5.26953,20.91016 10.709,20.91016 Z M10.709,19.25 C6.09961,19.25 2.41797,15.55859 2.41797,10.94922 C2.41797,6.3398 6.08984,2.6484 10.6992,2.6484 C15.3086,2.6484 19,6.3398 19.009819,10.94922 C19.0195,15.55859 15.3184,19.25 10.709,19.25 Z M10.6797,15.33398 C11.207,15.33398 11.5098,14.98242 11.5098,14.40625 L11.5098,11.76953 L14.3223,11.76953 C14.8691,11.76953 15.25,11.48633 15.25,10.96875 C15.25,10.44141 14.8887,10.13867 14.3223,10.13867 L11.5098,10.13867 L11.5098,7.3164 C11.5098,6.75 11.207,6.3887 10.6797,6.3887 C10.1621,6.3887 9.8789,6.7695 9.8789,7.3164 L9.8789,10.13867 L7.07617,10.13867 C6.50977,10.13867 6.13867,10.44141 6.13867,10.96875 C6.13867,11.48633 6.5293,11.76953 7.07617,11.76953 L9.8789,11.76953 L9.8789,14.40625 C9.8789,14.96289 10.1621,15.33398 10.6797,15.33398 Z" id="Shape"></path>
                </g>
                <g id="Group" transform="translate(306.924000, 1913.000000)" fill="#000000" fill-rule="nonzero">
                    <path d="M12.9707,25.66406 C19.9336,25.66406 25.6953,19.9023438 25.6953,12.94922 C25.6953,5.9863 19.9238,0.2246 12.9609,0.2246 C6.00781,0.2246 0.25586,5.9863 0.25586,12.94922 C0.25586,19.9023438 6.01758,25.66406 12.9707,25.66406 Z M12.9707,23.84766 C6.93555,23.84766 2.08203,18.98438 2.08203,12.94922 C2.08203,6.9043 6.92578,2.0508 12.9609,2.0508 C19.0059,2.0508 23.8594,6.9043 23.8691148,12.94922 C23.8789,18.98438 19.0156,23.84766 12.9707,23.84766 Z M12.9414,18.61328 C13.5176,18.61328 13.8594,18.22266 13.8594,17.61719 L13.8594,13.86719 L17.7754,13.86719 C18.3711,13.86719 18.7812,13.53516 18.7812,12.97852 C18.7812,12.40234 18.3906,12.06055 17.7754,12.06055 L13.8594,12.06055 L13.8594,8.1348 C13.8594,7.5195 13.5176,7.1289 12.9414,7.1289 C12.375,7.1289 12.0527,7.5391 12.0527,8.1348 L12.0527,12.06055 L8.1465,12.06055 C7.53125,12.06055 7.13086,12.40234 7.13086,12.97852 C7.13086,13.53516 7.55078,13.86719 8.1465,13.86719 L12.0527,13.86719 L12.0527,17.61719 C12.0527,18.20312 12.375,18.61328 12.9414,18.61328 Z" id="Shape"></path>
                </g>
                <text id="Design-Variations" fill="#000000" fill-rule="nonzero" font-family="Helvetica-Bold, Helvetica" font-size="13" font-weight="bold">
                    <tspan x="263" y="1953">Design Variations</tspan>
                </text>
                <text id="Symbols-are-supported-in-up-to-nine-weights-and-three-scales." fill="#000000" fill-rule="nonzero" font-family="Helvetica" font-size="13" font-weight="normal">
                    <tspan x="263" y="1971">Symbols are supported in up to nine weights and three scales.</tspan>
                </text>
                <text id="For-optimal-layout-with-text-and-other-symbols,-vertically-align" fill="#000000" fill-rule="nonzero" font-family="Helvetica" font-size="13" font-weight="normal">
                    <tspan x="263" y="1989">For optimal layout with text and other symbols, vertically align</tspan>
                </text>
                <text id="symbols-with-the-adjacent-text." fill="#000000" fill-rule="nonzero" font-family="Helvetica" font-size="13" font-weight="normal">
                    <tspan x="263" y="2007">symbols with the adjacent text.</tspan>
                </text>
                <line x1="776" y1="1919" x2="776" y2="1933" id="Path" stroke="#00AEEF" stroke-width="0.5"></line>
                <g id="Group" transform="translate(778.000000, 1918.000000)" fill="#000000" fill-rule="nonzero">
                    <path d="M1.31055,15.126953 C1.82812,15.126953 2.08203,14.9316406 2.26758,14.394531 L3.52734,10.9375 L9.2891,10.9375 L10.5488,14.394531 C10.7344,14.9316406 10.9883,15.126953 11.4961,15.126953 C12.0137,15.126953 12.3457,14.814453 12.3457,14.326172 C12.3457,14.160156 12.3164,14.013672 12.2383,13.79883 L7.6582,1.6113 C7.43359,1.0059 7.0332,0.7129 6.4082,0.7129 C5.80273,0.7129 5.39258,1.0059 5.17773,1.6016 L0.59766,13.80859 C0.51953,14.023438 0.49023,14.169922 0.49023,14.335938 C0.49023,14.824219 0.80273,15.126953 1.31055,15.126953 Z M4.00586,9.46289 L6.37891,2.8906 L6.42773,2.8906 L8.8008,9.46289 L4.00586,9.46289 Z" id="Shape"></path>
                </g>
                <line x1="792.836" y1="1919" x2="792.836" y2="1933" id="Path" stroke="#00AEEF" stroke-width="0.5"></line>
                <text id="Margins" fill="#000000" fill-rule="nonzero" font-family="Helvetica-Bold, Helvetica" font-size="13" font-weight="bold">
                    <tspan x="776" y="1953">Margins</tspan>
                </text>
                <text id="Leading-and-trailing-margins-on-the-left-and-right-side-of-each-symbol" fill="#000000" fill-rule="nonzero" font-family="Helvetica" font-size="13" font-weight="normal">
                    <tspan x="776" y="1971">Leading and trailing margins on the left and right side of each symbol</tspan>
                </text>
                <text id="can-be-adjusted-by-modifying-the-x-location-of-the-margin-guidelines." fill="#000000" fill-rule="nonzero" font-family="Helvetica" font-size="13" font-weight="normal">
                    <tspan x="776" y="1989">can be adjusted by modifying the x-location of the margin guidelines.</tspan>
                </text>
                <text id="Modifications-are-automatically-applied-proportionally-to-all" fill="#000000" fill-rule="nonzero" font-family="Helvetica" font-size="13" font-weight="normal">
                    <tspan x="776" y="2007">Modifications are automatically applied proportionally to all</tspan>
                </text>
                <text id="scales-and-weights." fill="#000000" fill-rule="nonzero" font-family="Helvetica" font-size="13" font-weight="normal">
                    <tspan x="776" y="2025">scales and weights.</tspan>
                </text>
                <g id="Group" transform="translate(1291.000000, 1914.000000)" fill="#000000" fill-rule="nonzero">
                    <path d="M0.8418,20.86523 L2.54102,22.57422 C3.40039,23.44336 4.38672,23.38477 5.31445,22.35938 L15.4902,11.14844 C15.7539,11.23633 16.0273,11.2168 16.3398,11.1582 L17.4043,10.96289 L18.0684,11.63672 L18.0293,12.19336 C17.9902,12.69141 18.1172,13.07227 18.6055,13.55078 L19.3672,14.29297 C19.8457,14.77148 20.4609,14.80078 20.9297,14.33203 L23.8398,11.41211 C24.3086,10.94336 24.2891,10.34766 23.8105,9.86914 L23.0391,9.10742 C22.5605,8.6289 22.1895,8.4727 21.7109,8.5117 L21.1348,8.5605 L20.4902,7.9258 L20.7344,6.8027 C20.8613,6.2363 20.7051,5.7969 20.1191,5.2109 L17.9219,3.0234 C14.582,-0.2969 10.1484,-0.2188 7.25781,2.6719 C6.83789,3.082 6.80859,3.6582 7.04297,4.0488 C7.27734,4.4102 7.73633,4.6445 8.3809,4.4785 C9.8457,4.1367 11.3691,4.0781 12.7949,5.0156 L12.209,6.4707 C12.0137,6.9492 11.9844,7.3496 12.1113,7.7109 L1.04688,18.101562 C0.06055,19.0195312 -0.01758,19.996094 0.8418,20.86523 Z M8.752,3.043 C11.1836,1.2656 14.4746,1.5684 16.7012,3.7949 L19.1328,6.207 C19.3672,6.4414 19.4062,6.627 19.3379,6.9688 L19.0156,8.4531 L20.5195,9.9375 L21.5059,9.87891 C21.7598,9.86914 21.8379,9.88867 22.0332,10.08398 L22.6094,10.66016 L20.168,13.10156 L19.5918,12.52539 C19.3965,12.33008 19.3672,12.25195 19.377,11.98828 L19.4453,11.01172 L17.9512,9.52734 L16.4277,9.78125 C16.1055,9.84961 15.959,9.82031 15.7148,9.58594 L13.7129,7.584 C13.459,7.3496 13.4297,7.1836 13.5859,6.8125 L14.4648,4.7227 C12.9023,3.2676 10.8711,2.6426 8.8398,3.2383 C8.6836,3.2773 8.625,3.1504 8.752,3.043 Z M3.27344,21.3047 L2.10156,20.14258 C1.63281,19.683594 1.74023,19.341797 2.14062,18.9804688 L12.9512,8.8047 L14.416,10.28906 L4.42578,21.27539 C4.07422,21.67578 3.74219,21.77344 3.27344,21.3047 Z" id="Shape"></path>
                </g>
                <text id="Exporting" fill="#000000" fill-rule="nonzero" font-family="Helvetica-Bold, Helvetica" font-size="13" font-weight="bold">
                    <tspan x="1289" y="1953">Exporting</tspan>
                </text>
                <text id="Symbols-should-be-outlined-when-exporting-to-ensure-the" fill="#000000" fill-rule="nonzero" font-family="Helvetica" font-size="13" font-weight="normal">
                    <tspan x="1289" y="1971">Symbols should be outlined when exporting to ensure the</tspan>
                </text>
                <text id="design-is-preserved-when-submitting-to-Xcode." fill="#000000" fill-rule="nonzero" font-family="Helvetica" font-size="13" font-weight="normal">
                    <tspan x="1289" y="1989">design is preserved when submitting to Xcode.</tspan>
                </text>
                <text id="template-version" fill="#000000" fill-rule="nonzero" font-family="Helvetica" font-size="13" font-weight="normal">
                    <tspan x="2952" y="1933">Template v.2.0</tspan>
                </text>
                <text id="Requires-Xcode-12-or-greater" fill="#000000" fill-rule="nonzero" font-family="Helvetica" font-size="13" font-weight="normal">
                    <tspan x="2865" y="1951">Requires Xcode 12 or greater</tspan>
                </text>
                <text id="Generated-from-text.badge.plus" fill="#000000" fill-rule="nonzero" font-family="Helvetica" font-size="13" font-weight="normal">
                    <tspan x="2853" y="1969">Generated from text.badge.plus</tspan>
                </text>
                <text id="Typeset-at-100-points" fill="#000000" fill-rule="nonzero" font-family="Helvetica" font-size="13" font-weight="normal">
                    <tspan x="2912" y="1987">Typeset at 100 points</tspan>
                </text>
                <text id="Small" fill="#000000" fill-rule="nonzero" font-family="Helvetica" font-size="13" font-weight="normal">
                    <tspan x="263" y="726">Small</tspan>
                </text>
                <text id="Medium" fill="#000000" fill-rule="nonzero" font-family="Helvetica" font-size="13" font-weight="normal">
                    <tspan x="263" y="1156">Medium</tspan>
                </text>
                <text id="Large" fill="#000000" fill-rule="nonzero" font-family="Helvetica" font-size="13" font-weight="normal">
                    <tspan x="263" y="1586">Large</tspan>
                </text>
            </g>
            <g id="Guides" transform="translate(263.000000, 625.000000)">
                <g id="H-reference" transform="translate(76.000000, 0.000000)" fill="#27AAE1" fill-rule="nonzero">
                    <path d="M0.976562,71 L3.66211,71 L12.9883,46.5371 L45.7031,46.5371 L55.0781,71 L57.7148,71 L30.6152,0.541 L28.125,0.541 L0.976562,71 Z M29.2969,3.8613 L29.3945,3.8613 L44.873,44.291 L13.8672,44.291 L29.2969,3.8613 Z" id="Shape"></path>
                </g>
                <line x1="0" y1="71" x2="2773" y2="71" id="Baseline-S" stroke="#27AAE1" stroke-width="0.5"></line>
                <line x1="0" y1="0.541" x2="2773" y2="0.541" id="Capline-S" stroke="#27AAE1" stroke-width="0.5"></line>
                <g id="H-reference" transform="translate(76.000000, 430.000000)" fill="#27AAE1" fill-rule="nonzero">
                    <path d="M0.976562,71 L3.66211,71 L12.9883,46.5371 L45.7031,46.5371 L55.0781,71 L57.7148,71 L30.6152,0.541 L28.125,0.541 L0.976562,71 Z M29.2969,3.8613 L29.3945,3.8613 L44.873,44.291 L13.8672,44.291 L29.2969,3.8613 Z" id="Shape"></path>
                </g>
                <line x1="0" y1="501" x2="2773" y2="501" id="Baseline-M" stroke="#27AAE1" stroke-width="0.5"></line>
                <line x1="0" y1="430.54" x2="2773" y2="430.54" id="Capline-M" stroke="#27AAE1" stroke-width="0.5"></line>
                <g id="H-reference" transform="translate(76.000000, 860.000000)" fill="#27AAE1" fill-rule="nonzero">
                    <path d="M0.976562,71 L3.66211,71 L12.9883,46.5371 L45.7031,46.5371 L55.0781,71 L57.7148,71 L30.6152,0.541 L28.125,0.541 L0.976562,71 Z M29.2969,3.8613 L29.3945,3.8613 L44.873,44.291 L13.8672,44.291 L29.2969,3.8613 Z" id="Shape"></path>
                </g>
                <line x1="0" y1="931" x2="2773" y2="931" id="Baseline-L" stroke="#27AAE1" stroke-width="0.5"></line>
                <line x1="0" y1="860.54" x2="2773" y2="860.54" id="Capline-L" stroke="#27AAE1" stroke-width="0.5"></line>
                <line x1="1125.2" y1="405.79" x2="1125.2" y2="525.12" id="left-margin" stroke="#00AEEF" stroke-width="0.5"></line>
                <line x1="1248.49" y1="405.79" x2="1248.49" y2="525.12" id="right-margin" stroke="#00AEEF" stroke-width="0.5"></line>
            </g>
            <g id="Symbols" transform="translate(499.000000, 617.000000)">
                <g id="Bold-L" transform="translate(1773.430000, 832.000000)" fill="#FFB4B4">
                    <path d="M68.07,0 C73.3167051,0 77.57,4.25329488 77.57,9.5 C77.57,13.4140497 75.202964,16.7752486 71.8222769,18.2302118 L71.8213398,31.221552 C78.072379,32.0975208 83.8032246,34.595711 88.5746263,38.2768724 L97.9557967,28.8955977 C97.9486302,28.7646423 97.945,28.6327451 97.945,28.5 C97.945,24.5649712 101.134971,21.375 105.07,21.375 C109.005029,21.375 112.195,24.5649712 112.195,28.5 C112.195,32.4350288 109.005029,35.625 105.07,35.625 C104.937255,35.625 104.805358,35.6213698 104.674402,35.6142033 L95.2609857,45.0266704 C98.8759409,49.8050145 101.313939,55.5232203 102.143578,61.7498858 L115.339359,61.7487206 C116.79409,58.3675016 120.155565,56 124.07,56 C129.316705,56 133.57,60.2532949 133.57,65.5 C133.57,65.6678058 133.565649,65.8345954 133.557054,66.0002622 C133.565667,66.1660731 133.57,66.3325305 133.57,66.5 C133.57,71.7467051 129.316705,76 124.07,76 C120.554227,76 117.484518,74.0901742 115.841728,71.2513771 L102.143419,71.2513032 C101.313629,77.4775076 98.8757109,83.1952896 95.2609857,87.9733296 L105.861902,98.5732967 C105.992858,98.5661302 106.124755,98.5625 106.2575,98.5625 C110.192529,98.5625 113.3825,101.752471 113.3825,105.6875 C113.3825,109.622529 110.192529,112.8125 106.2575,112.8125 C102.322471,112.8125 99.1325,109.622529 99.1325,105.6875 C99.1325,105.554755 99.1361302,105.422858 99.1432967,105.291902 L88.5746263,94.7231276 C83.8032246,98.404289 78.072379,100.902479 71.8213398,101.778448 L71.8222769,114.769788 C75.202964,116.224751 77.57,119.58595 77.57,123.5 C77.57,128.746705 73.3167051,133 68.07,133 C67.9025305,133 67.7360731,132.995667 67.5707338,132.987106 C67.4045954,132.995649 67.2378058,133 67.07,133 C61.8232949,133 57.57,128.746705 57.57,123.5 C57.57,119.983737 59.4803583,116.913663 62.31981,115.271041 L62.3198693,101.841908 C56.0011158,101.043175 50.1982001,98.5893513 45.3591704,94.9284857 L34.9967033,105.291902 C35.0038698,105.422858 35.0075,105.554755 35.0075,105.6875 C35.0075,109.622529 31.8175288,112.8125 27.8825,112.8125 C23.9474712,112.8125 20.7575,109.622529 20.7575,105.6875 C20.7575,101.752471 23.9474712,98.5625 27.8825,98.5625 C28.0152451,98.5625 28.1471423,98.5661302 28.2780977,98.5732967 L38.6093724,88.2421263 C34.8816324,83.4103509 32.3669898,77.5946979 31.5215806,71.2513032 L18.2982724,71.2513771 C16.6554817,74.0901742 13.5857727,76 10.07,76 C4.82329488,76 0.57,71.7467051 0.57,66.5 C0.57,66.3325305 0.574333349,66.1660731 0.582894035,66.0007338 C0.574350769,65.8345954 0.57,65.6678058 0.57,65.5 C0.57,60.2532949 4.82329488,56 10.07,56 C13.9844347,56 17.3459097,58.3675016 18.800641,61.7487206 L31.5214221,61.7498858 C32.3666756,55.4060288 34.8813995,49.589951 38.6093724,44.7578737 L29.4655977,35.6142033 C29.3346423,35.6213698 29.2027451,35.625 29.07,35.625 C25.1349712,35.625 21.945,32.4350288 21.945,28.5 C21.945,24.5649712 25.1349712,21.375 29.07,21.375 C33.0050288,21.375 36.195,24.5649712 36.195,28.5 C36.195,28.6327451 36.1913698,28.7646423 36.1842033,28.8955977 L45.3591704,38.0715143 C50.1982001,34.4106487 56.0011158,31.9568251 62.3198693,31.1580917 L62.31981,17.7289592 C59.4803583,16.0863375 57.57,13.0162628 57.57,9.5 C57.57,4.25329488 61.8232949,0 67.07,0 C67.2378058,0 67.4045954,0.00435076912 67.5702622,0.0129456568 L67.7995213,0.00377636139 L67.7995213,0.00377636139 Z" id="Combined-Shape"></path>
                </g>
                <g id="Semibold-L" transform="translate(1478.070000, 834.000000)" fill="#FFB4B4">
                    <path d="M66.93,0 C71.9005627,0 75.93,4.02943725 75.93,9 C75.93,12.4054544 74.0385999,15.3691486 71.2489836,16.8978988 C71.0308715,17.0507508 70.8056974,17.1944225 70.5742032,17.3283865 L70.5741667,30.5173065 C76.684205,31.3735165 82.2857834,33.8153566 86.9495596,37.4134843 L96.1191246,28.2438173 C96.1121197,28.1158157 96.1085714,27.9868937 96.1085714,27.8571429 C96.1085714,24.0108741 99.2265883,20.8928571 103.072857,20.8928571 C106.919126,20.8928571 110.037143,24.0108741 110.037143,27.8571429 C110.037143,31.7034117 106.919126,34.8214286 103.072857,34.8214286 C102.943106,34.8214286 102.814184,34.8178803 102.686183,34.8108754 L93.4850988,44.0110312 C97.0185137,48.6815931 99.4015193,54.2708168 100.212445,60.3570312 L113.600942,60.3569572 C113.735299,60.1247058 113.879427,59.8988138 114.032764,59.6798432 C115.56156,56.8909478 118.524953,55 121.93,55 C126.900563,55 130.93,59.0294373 130.93,64 C130.93,64.1667204 130.925467,64.332382 130.916517,64.4968683 C130.925493,64.6633251 130.93,64.8311361 130.93,65 C130.93,70.1283584 126.772644,74.2857143 121.644286,74.2857143 C118.207816,74.2857143 115.207349,72.4189672 113.601613,69.6442032 L100.21229,69.6441309 C99.401216,75.7298946 97.0182888,81.3187041 93.4850988,85.9889688 L103.846897,96.3498388 C103.974899,96.342834 104.103821,96.3392857 104.233571,96.3392857 C108.07984,96.3392857 111.197857,99.4573026 111.197857,103.303571 C111.197857,107.14984 108.07984,110.267857 104.233571,110.267857 C100.387303,110.267857 97.2692857,107.14984 97.2692857,103.303571 C97.2692857,103.173821 97.272834,103.044899 97.2798388,102.916897 L86.9495596,92.5865157 C82.2857834,96.1846434 76.684205,98.6264835 70.5741667,99.4826935 L70.5742032,112.671613 C70.8056974,112.805577 71.0308715,112.949249 71.2491689,113.102072 C74.0385999,114.630851 75.93,117.594546 75.93,121 C75.93,125.970563 71.9005627,130 66.93,130 C66.7632796,130 66.597618,129.995467 66.4331317,129.986517 C66.2666749,129.995493 66.0988639,130 65.93,130 C60.8016416,130 56.6442857,125.842644 56.6442857,120.714286 C56.6442857,117.277337 58.5115532,114.276512 61.2869572,112.670942 L61.2870151,99.5447224 C55.1107899,98.7640056 49.438767,96.3655314 44.7088883,92.7872417 L34.5801612,102.916897 C34.587166,103.044899 34.5907143,103.173821 34.5907143,103.303571 C34.5907143,107.14984 31.4726974,110.267857 27.6264286,110.267857 C23.7801598,110.267857 20.6621429,107.14984 20.6621429,103.303571 C20.6621429,99.4573026 23.7801598,96.3392857 27.6264286,96.3392857 C27.7561794,96.3392857 27.8851014,96.342834 28.013103,96.3498388 L38.1113414,86.2517024 C34.4676858,81.5289144 32.0097644,75.8444415 31.1834246,69.6441309 L18.2583865,69.6442032 C16.6526513,72.4189672 13.6521838,74.2857143 10.2157143,74.2857143 C5.08735589,74.2857143 0.93,70.1283584 0.93,65 C0.93,64.8311361 0.934507481,64.6633251 0.943408687,64.4966805 C0.934533261,64.332382 0.93,64.1667204 0.93,64 C0.93,59.0294373 4.95943725,55 9.93,55 C13.3350472,55 16.2984399,56.8909478 17.8273504,59.6800159 C17.9805727,59.8988138 18.1247006,60.1247058 18.2590579,60.3569572 L31.1832698,60.3570312 C32.0094573,54.1562688 34.4674581,48.4713806 38.1113414,43.7482976 L29.1738173,34.8108754 C29.0458157,34.8178803 28.9168937,34.8214286 28.7871429,34.8214286 C24.9408741,34.8214286 21.8228571,31.7034117 21.8228571,27.8571429 C21.8228571,24.0108741 24.9408741,20.8928571 28.7871429,20.8928571 C32.6334117,20.8928571 35.7514286,24.0108741 35.7514286,27.8571429 C35.7514286,27.9868937 35.7478803,28.1158157 35.7408754,28.2438173 L44.7088883,37.2127583 C49.438767,33.6344686 55.1107899,31.2359944 61.2870151,30.4552776 L61.2869572,17.3290579 C58.5115532,15.7234877 56.6442857,12.7226629 56.6442857,9.28571429 C56.6442857,4.15735589 60.8016416,0 65.93,0 C66.0988639,0 66.2666749,0.00450748069 66.4333195,0.0134086875 L66.6646377,0.00383710565 L66.6646377,0.00383710565 Z" id="Combined-Shape"></path>
                </g>
                <g id="Medium-L" transform="translate(1182.380000, 834.000000)" fill="#FFB4B4">
                    <path d="M65.62,0 C70.5905627,0 74.62,4.02943725 74.62,9 C74.62,11.4943591 73.6052683,13.7517149 71.9660894,15.3817829 C71.3221317,16.0960993 70.5670973,16.7097888 69.7284786,17.1950912 L69.7284423,30.282558 C75.7914804,31.1321818 81.3499697,33.5552385 85.9778706,37.1256883 L95.0769005,28.0265572 C95.0699496,27.8995402 95.0664286,27.7716099 95.0664286,27.6428571 C95.0664286,23.826175 98.1604607,20.7321429 101.977143,20.7321429 C105.793825,20.7321429 108.887857,23.826175 108.887857,27.6428571 C108.887857,31.4595393 105.793825,34.5535714 101.977143,34.5535714 C101.84839,34.5535714 101.72046,34.5500504 101.593443,34.5430995 L92.4631365,43.6724848 C95.9693713,48.3071193 98.3340461,53.853349 99.1387334,59.8927463 L112.424243,59.8926729 C112.91106,59.0511562 113.527142,58.2937747 114.245337,57.64768 C115.873762,56.0122713 118.128667,55 120.62,55 C125.590563,55 129.62,59.0294373 129.62,64 L129.62,64 L129.616208,64.2330694 C129.61873,64.3217383 129.62,64.4107209 129.62,64.5 C129.62,69.5889095 125.494624,73.7142857 120.405714,73.7142857 C116.995679,73.7142857 114.018292,71.8618983 112.424909,69.1084786 L99.1385797,69.1084068 C98.3337451,75.147357 95.9691481,80.6931756 92.4631365,85.3275152 L102.745229,95.6086862 C102.872245,95.6017353 103.000176,95.5982143 103.128929,95.5982143 C106.945611,95.5982143 110.039643,98.6922465 110.039643,102.508929 C110.039643,106.325611 106.945611,109.419643 103.128929,109.419643 C99.3122465,109.419643 96.2182143,106.325611 96.2182143,102.508929 C96.2182143,102.380176 96.2217353,102.252245 96.2286862,102.125229 L85.9778706,91.8743117 C81.3499697,95.4447615 75.7914804,97.8678182 69.7284423,98.717442 L69.7284786,111.804909 C70.5670973,112.290211 71.3221317,112.903901 71.9667025,113.619098 C73.6052683,115.248285 74.62,117.505641 74.62,120 C74.62,124.970563 70.5905627,129 65.62,129 C65.5365789,129 65.4534229,128.998865 65.3705466,128.99661 L65.12,129 L65.12,129 C60.0310905,129 55.9057143,124.874624 55.9057143,119.785714 C55.9057143,116.375204 57.7586182,113.397462 60.5126729,111.804243 L60.5127304,98.7789938 C54.3840146,98.0042825 48.7556227,95.6242581 44.0621277,92.0734936 L34.0113138,102.125229 C34.0182647,102.252245 34.0217857,102.380176 34.0217857,102.508929 C34.0217857,106.325611 30.9277535,109.419643 27.1110714,109.419643 C23.2943893,109.419643 20.2003571,106.325611 20.2003571,102.508929 C20.2003571,98.6922465 23.2943893,95.5982143 27.1110714,95.5982143 C27.2398242,95.5982143 27.3677545,95.6017353 27.4947715,95.6086862 L37.5153311,85.5882278 C33.8997036,80.9017689 31.4606893,75.2610227 30.640706,69.1084068 L17.8150912,69.1084786 C16.2217078,71.8618983 13.2443209,73.7142857 9.83428571,73.7142857 C4.74537623,73.7142857 0.62,69.5889095 0.62,64.5 L0.623792138,64.2330694 L0.623792138,64.2330694 L0.62,64 C0.62,59.0294373 4.64943725,55 9.62,55 C12.1113332,55 14.3662378,56.0122713 15.9958478,57.6479478 C16.7128585,58.2937747 17.3289404,59.0511562 17.8157575,59.8926729 L30.6405523,59.8927463 C31.4603846,53.7396821 33.8994777,48.0985239 37.5153311,43.4117722 L28.6465572,34.5430995 C28.5195402,34.5500504 28.3916099,34.5535714 28.2628571,34.5535714 C24.446175,34.5535714 21.3521429,31.4595393 21.3521429,27.6428571 C21.3521429,23.826175 24.446175,20.7321429 28.2628571,20.7321429 C32.0795393,20.7321429 35.1735714,23.826175 35.1735714,27.6428571 C35.1735714,27.7716099 35.1700504,27.8995402 35.1630995,28.0265572 L44.0621277,36.9265064 C48.7556227,33.3757419 54.3840146,30.9957175 60.5127304,30.2210062 L60.5126729,17.1957575 C57.7586182,15.6025378 55.9057143,12.6247962 55.9057143,9.21428571 C55.9057143,4.12537623 60.0310905,0 65.12,0 L65.37,0.003 Z" id="Combined-Shape"></path>
                </g>
                <g id="Regular-L" transform="translate(887.990000, 835.000000)" fill="#FFB4B4">
                    <path d="M64.01,0 C68.9805627,0 73.01,4.02943725 73.01,9 C73.01,12.7286839 70.742515,15.9277684 67.5112255,17.2935728 L67.5112693,29.5783124 C73.4333064,30.4081776 78.8625285,32.7748841 83.3828039,36.2623002 L92.2702284,27.3747768 C92.2634391,27.2507137 92.26,27.1257585 92.26,27 C92.26,23.2720779 95.2820779,20.25 99.01,20.25 C102.737922,20.25 105.76,23.2720779 105.76,27 C105.76,30.7279221 102.737922,33.75 99.01,33.75 C98.8842415,33.75 98.7592863,33.7465609 98.6352232,33.7397716 L89.7172496,42.6568456 C93.141944,47.183698 95.4516264,52.6009456 96.2376001,58.4998918 L108.716009,58.4997649 C110.081578,55.2679483 113.280935,53 117.01,53 C121.980563,53 126.01,57.0294373 126.01,62 C126.01,62.1680704 126.005393,62.3350647 125.996298,62.5008636 C126.005412,62.665606 126.01,62.8322671 126.01,63 C126.01,67.9705627 121.980563,72 117.01,72 C113.679268,72 110.771123,70.1906913 109.214795,67.5013047 L96.23745,67.5012346 C95.4513324,73.399744 93.1417261,78.8165902 89.7172496,83.3431544 L99.7602232,93.3852284 C99.8842863,93.3784391 100.009242,93.375 100.135,93.375 C103.862922,93.375 106.885,96.3970779 106.885,100.125 C106.885,103.852922 103.862922,106.875 100.135,106.875 C96.4070779,106.875 93.385,103.852922 93.385,100.125 C93.385,99.9992415 93.3884391,99.8742863 93.3952284,99.7502232 L83.3828039,89.7376998 C78.8625285,93.2251159 73.4333064,95.5918224 67.5112693,96.4216876 L67.5112255,108.706427 C70.742515,110.072232 73.01,113.271316 73.01,117 C73.01,121.970563 68.9805627,126 64.01,126 C63.8422671,126 63.675606,125.995412 63.5101352,125.986353 C63.3450647,125.995393 63.1780704,126 63.01,126 C58.0394373,126 54.01,121.970563 54.01,117 C54.01,113.668804 55.8198131,110.760312 58.50982,109.204144 L58.5098762,96.4818079 C52.5236887,95.7251131 47.0261896,93.4004381 42.4418456,89.9322496 L32.6247716,99.7502232 C32.6315609,99.8742863 32.635,99.9992415 32.635,100.125 C32.635,103.852922 29.6129221,106.875 25.885,106.875 C22.1570779,106.875 19.135,103.852922 19.135,100.125 C19.135,96.3970779 22.1570779,93.375 25.885,93.375 C26.0107585,93.375 26.1357137,93.3784391 26.2597768,93.3852284 L36.0473002,83.5978039 C32.515757,79.0203324 30.133464,73.5107664 29.33255,67.5012346 L16.8052054,67.5013047 C15.2488774,70.1906913 12.340732,72 9.01,72 C4.03943725,72 0.01,67.9705627 0.01,63 C0.01,62.8322671 0.0145884882,62.665606 0.0236467898,62.5001352 C0.0146069716,62.3350647 0.01,62.1680704 0.01,62 C0.01,57.0294373 4.03943725,53 9.01,53 C12.7390649,53 15.9384221,55.2679483 17.3039914,58.4997649 L29.3323999,58.4998918 C30.1331663,52.489922 32.5155363,46.9799535 36.0473002,42.4021961 L27.3847768,33.7397716 C27.2607137,33.7465609 27.1357585,33.75 27.01,33.75 C23.2820779,33.75 20.26,30.7279221 20.26,27 C20.26,23.2720779 23.2820779,20.25 27.01,20.25 C30.7379221,20.25 33.76,23.2720779 33.76,27 C33.76,27.1257585 33.7565609,27.2507137 33.7497716,27.3747768 L42.4418456,36.0677504 C47.0261896,32.5995619 52.5236887,30.2748869 58.5098762,29.5181921 L58.50982,16.7958561 C55.8198131,15.2396881 54.01,12.3311963 54.01,9 C54.01,4.02943725 58.0394373,0 63.01,0 C63.1780704,0 63.3450647,0.00460697156 63.5108636,0.013701522 L63.7446377,0.00383710565 L63.7446377,0.00383710565 Z" id="Combined-Shape"></path>
                </g>
                <g id="Bold-M" transform="translate(1787.820000, 417.000000)" fill="#FFB4B4">
                    <path d="M0.183853568,52.7427311 L0.18,52.5 C0.18,48.3578644 3.53786438,45 7.68,45 C10.6434791,45 13.2055176,46.718772 14.4236344,49.2138351 L24.8480507,49.2141947 C25.5217114,44.1581884 27.5259274,39.5228181 30.4970938,35.6716888 L23.2095741,28.3842523 C23.1052036,28.3899639 23.0000825,28.3928571 22.8942857,28.3928571 C19.7580973,28.3928571 17.2157143,25.8504741 17.2157143,22.7142857 C17.2157143,19.5780973 19.7580973,17.0357143 22.8942857,17.0357143 C26.0304741,17.0357143 28.5728571,19.5780973 28.5728571,22.7142857 C28.5728571,22.8200825 28.5699639,22.9252036 28.5642523,23.0295741 L35.876632,30.3427106 C39.7333023,27.4250283 44.3581825,25.4693493 49.3941816,24.8327648 L49.3941343,14.1298472 C47.1311126,12.82069 45.6085714,10.3738636 45.6085714,7.57142857 C45.6085714,3.38984404 48.9984155,0 53.18,0 L53.4250428,0.00389026871 L53.4250428,0.00389026871 L53.4372689,0.00385356806 L53.4372689,0.00385356806 L53.68,0 C57.8221356,0 61.18,3.35786438 61.18,7.5 C61.18,10.463083 59.4616875,13.0248325 56.9671656,14.2431457 L56.9667821,24.8833422 C61.9488133,25.5814827 66.5162542,27.5725215 70.3190255,30.5063795 L77.7957477,23.0295741 C77.7900361,22.9252036 77.7871429,22.8200825 77.7871429,22.7142857 C77.7871429,19.5780973 80.3295259,17.0357143 83.4657143,17.0357143 C86.6019027,17.0357143 89.1442857,19.5780973 89.1442857,22.7142857 C89.1442857,25.8504741 86.6019027,28.3928571 83.4657143,28.3928571 C83.3599175,28.3928571 83.2547964,28.3899639 83.1504259,28.3842523 L75.6480036,35.8859177 C78.5290958,39.6942221 80.4721619,44.2515891 81.1333778,49.2141947 L91.9363656,49.2138351 C93.1544824,46.718772 95.7165209,45 98.68,45 C102.822136,45 106.18,48.3578644 106.18,52.5 C106.18,52.5812183 106.178709,52.6621352 106.176146,52.7427311 L106.17611,52.7549572 C106.178697,52.8363207 106.18,52.9180081 106.18,53 C106.18,57.1815845 102.790156,60.5714286 98.6085714,60.5714286 C95.806527,60.5714286 93.359992,59.0493118 92.0507002,56.7868119 L81.1332516,56.7867529 C80.4719146,61.748991 78.5289124,66.3060203 75.6480036,70.1140823 L84.0968545,78.5621763 C84.201225,78.5564647 84.306346,78.5535714 84.4121429,78.5535714 C87.5483313,78.5535714 90.0907143,81.0959545 90.0907143,84.2321429 C90.0907143,87.3683313 87.5483313,89.9107143 84.4121429,89.9107143 C81.2759545,89.9107143 78.7335714,87.3683313 78.7335714,84.2321429 C78.7335714,84.126346 78.7364647,84.021225 78.7421763,83.9168545 L70.3190255,75.4936205 C66.5162542,78.4274785 61.9488133,80.4185173 56.9667821,81.1166578 L56.9671656,91.7568543 C59.4616875,92.9751675 61.18,95.536917 61.18,98.5 C61.18,102.642136 57.8221356,106 53.68,106 C53.5987817,106 53.5178648,105.998709 53.4372689,105.996146 L53.4250428,105.99611 C53.3436793,105.998697 53.2619919,106 53.18,106 C48.9984155,106 45.6085714,102.610156 45.6085714,98.4285714 C45.6085714,95.6261364 47.1311126,93.17931 49.3941343,91.8701528 L49.3941816,81.1672352 C44.3581825,80.5306507 39.7333023,78.5749717 35.876632,75.6572894 L27.6178237,83.9168545 C27.6235353,84.021225 27.6264286,84.126346 27.6264286,84.2321429 C27.6264286,87.3683313 25.0840455,89.9107143 21.9478571,89.9107143 C18.8116687,89.9107143 16.2692857,87.3683313 16.2692857,84.2321429 C16.2692857,81.0959545 18.8116687,78.5535714 21.9478571,78.5535714 C22.053654,78.5535714 22.158775,78.5564647 22.2631455,78.5621763 L30.4970938,70.3283112 C27.526113,66.4774225 25.5219618,61.8423908 24.848177,56.7867529 L14.3092998,56.7868119 C13.000008,59.0493118 10.553473,60.5714286 7.75142857,60.5714286 C3.56984404,60.5714286 0.18,57.1815845 0.18,53 L0.183890269,52.7549572 L0.183890269,52.7549572 L0.183853568,52.7427311 L0.183853568,52.7427311 Z" id="Combined-Shape"></path>
                </g>
                <g id="Semibold-M" transform="translate(1492.380000, 418.000000)" fill="#FFB4B4">
                    <path d="M53.12,0 C57.2621356,0 60.62,3.35786438 60.62,7.5 C60.62,10.6979724 58.6184616,13.4284604 55.7997647,14.507084 L55.799609,24.1790967 C60.6406394,24.8574785 65.078813,26.7921671 68.7739587,29.6429914 L76.0390756,22.3777937 C76.0335256,22.2763771 76.0307143,22.1742311 76.0307143,22.0714286 C76.0307143,19.0240002 78.5011431,16.5535714 81.5485714,16.5535714 C84.5959998,16.5535714 87.0664286,19.0240002 87.0664286,22.0714286 C87.0664286,25.1188569 84.5959998,27.5892857 81.5485714,27.5892857 C81.4457689,27.5892857 81.3436229,27.5864744 81.2422063,27.5809244 L73.9521167,34.8702786 C76.7516685,38.5708007 78.6397422,42.9991857 79.2822445,47.8213401 L89.1125356,47.8212296 C90.1908976,45.0020091 92.9216516,43 96.12,43 C100.262136,43 103.62,46.3578644 103.62,50.5 C103.62,50.6682137 103.614462,50.835134 103.603559,51.0005886 C103.614371,51.1653751 103.62,51.3320302 103.62,51.5 C103.62,55.5632378 100.326095,58.8571429 96.2628571,58.8571429 C93.5401159,58.8571429 91.1628225,57.3781048 89.8905861,55.1796379 L79.2821218,55.1795807 C78.6395019,60.0013781 76.7514904,64.4294348 73.9521167,68.1297214 L82.1618491,76.3387185 C82.2632658,76.3331685 82.3654117,76.3303571 82.4682143,76.3303571 C85.5156426,76.3303571 87.9860714,78.8007859 87.9860714,81.8482143 C87.9860714,84.8956426 85.5156426,87.3660714 82.4682143,87.3660714 C79.4207859,87.3660714 76.9503571,84.8956426 76.9503571,81.8482143 C76.9503571,81.7454117 76.9531685,81.6432658 76.9587185,81.5418491 L68.7739587,73.3570086 C65.078813,76.2078329 60.6406394,78.1425215 55.799609,78.8209033 L55.7997647,88.492916 C58.6184616,89.5715396 60.62,92.3020276 60.62,95.5 C60.62,99.6421356 57.2621356,103 53.12,103 C52.9517863,103 52.784866,102.994462 52.6194114,102.983559 C52.4546249,102.994371 52.2879698,103 52.12,103 C48.0567622,103 44.7628571,99.7060949 44.7628571,95.6428571 C44.7628571,92.9197363 46.2423075,90.5421597 48.4412814,89.2700541 L48.4413274,78.8700493 C43.5478566,78.2514813 39.0538693,76.3511518 35.30635,73.5160453 L27.2812815,81.5418491 C27.2868315,81.6432658 27.2896429,81.7454117 27.2896429,81.8482143 C27.2896429,84.8956426 24.8192141,87.3660714 21.7717857,87.3660714 C18.7243574,87.3660714 16.2539286,84.8956426 16.2539286,81.8482143 C16.2539286,78.8007859 18.7243574,76.3303571 21.7717857,76.3303571 C21.8745883,76.3303571 21.9767342,76.3331685 22.0781509,76.3387185 L30.0790628,68.3378873 C27.1921664,64.595986 25.2447364,60.0921344 24.590021,55.1795807 L14.3494139,55.1796379 C13.0771775,57.3781048 10.6998841,58.8571429 7.97714286,58.8571429 C3.91390506,58.8571429 0.62,55.5632378 0.62,51.5 C0.62,51.3320302 0.625628973,51.1653751 0.636708572,51.000213 C0.625537802,50.835134 0.62,50.6682137 0.62,50.5 C0.62,46.3578644 3.97786438,43 8.12,43 C11.3183484,43 14.0491024,45.0020091 15.1274644,47.8212296 L24.5898983,47.8213401 C25.2444931,42.9084283 27.1919861,38.4042477 30.0790628,34.6621127 L22.9977937,27.5809244 C22.8963771,27.5864744 22.7942311,27.5892857 22.6914286,27.5892857 C19.6440002,27.5892857 17.1735714,25.1188569 17.1735714,22.0714286 C17.1735714,19.0240002 19.6440002,16.5535714 22.6914286,16.5535714 C25.7388569,16.5535714 28.2092857,19.0240002 28.2092857,22.0714286 C28.2092857,22.1742311 28.2064744,22.2763771 28.2009244,22.3777937 L35.30635,29.4839547 C39.0538693,26.6488482 43.5478566,24.7485187 48.4413274,24.1299507 L48.4412814,13.7299459 C46.2423075,12.4578403 44.7628571,10.0802637 44.7628571,7.35714286 C44.7628571,3.29390506 48.0567622,0 52.12,0 C52.2879698,0 52.4546249,0.00562897298 52.619787,0.0167085723 C52.784866,0.00553780163 52.9517863,0 53.12,0 Z" id="Combined-Shape"></path>
                </g>
                <g id="Medium-M" transform="translate(1196.640000, 419.000000)" fill="#FFB4B4">
                    <path d="M0.364059018,50.2406498 L0.36,50 C0.36,46.1340068 3.49400675,43 7.36,43 C9.31600849,43 11.0846374,43.8022675 12.3547826,45.0956986 C12.9351568,45.6106481 13.4324695,46.2170418 13.823345,46.8927129 L23.8644634,46.8927704 C24.5063476,42.075255 26.4160252,37.6585342 29.2470422,33.989062 L22.3032734,27.0453725 C22.2038261,27.0508147 22.1036635,27.0535714 22.0028571,27.0535714 C19.0146022,27.0535714 16.5921429,24.6311121 16.5921429,21.6428571 C16.5921429,18.6546022 19.0146022,16.2321429 22.0028571,16.2321429 C24.9911121,16.2321429 27.4135714,18.6546022 27.4135714,21.6428571 C27.4135714,21.7436635 27.4108147,21.8438261 27.4053725,21.9432734 L34.3728286,28.9114507 C38.0475805,26.1313948 42.454306,24.2679649 47.2527579,23.661408 L47.2527129,13.463345 C45.0964375,12.2159405 43.6457143,9.88453038 43.6457143,7.21428571 C43.6457143,3.22994573 46.87566,0 50.86,0 L51.1029755,0.00401470876 L51.1029755,0.00401470876 L51.1193502,0.0040590183 L51.1193502,0.0040590183 L51.36,0 C55.2259932,0 58.36,3.13400675 58.36,7 C58.36,8.95550823 57.5581428,10.7237327 56.2652937,11.993808 C55.750011,12.5745454 55.1437374,13.0718884 54.4681887,13.4628234 L54.4681603,23.7095997 C59.21519,24.374809 63.5671856,26.2719309 67.1905809,29.0673993 L74.3146275,21.9432734 C74.3091853,21.8438261 74.3064286,21.7436635 74.3064286,21.6428571 C74.3064286,18.6546022 76.7288879,16.2321429 79.7171429,16.2321429 C82.7053978,16.2321429 85.1278571,18.6546022 85.1278571,21.6428571 C85.1278571,24.6311121 82.7053978,27.0535714 79.7171429,27.0535714 C79.6163365,27.0535714 79.5161739,27.0508147 79.4167266,27.0453725 L72.2681921,34.1931858 C75.0133837,37.8218531 76.8647958,42.16425 77.4948223,46.8927704 L87.896655,46.8927129 C88.2875305,46.2170418 88.7848432,45.6106481 89.3656661,45.0964588 C90.6353626,43.8022675 92.4039915,43 94.36,43 C98.2259932,43 101.36,46.1340068 101.36,50 C101.36,50.0805415 101.35864,50.1607653 101.355941,50.2406498 L101.355985,50.2570245 C101.358655,50.3376881 101.36,50.4186869 101.36,50.5 C101.36,54.48434 98.1300543,57.7142857 94.1457143,57.7142857 C91.4758418,57.7142857 89.1447094,56.2639669 87.8971766,54.1081887 L77.494702,54.1081325 C76.8645601,58.8363028 75.013209,63.1783778 72.2681921,66.8068142 L80.3185123,74.8564133 C80.4179596,74.850971 80.5181222,74.8482143 80.6189286,74.8482143 C83.6071836,74.8482143 86.0296429,77.2706736 86.0296429,80.2589286 C86.0296429,83.2471836 83.6071836,85.6696429 80.6189286,85.6696429 C77.6306736,85.6696429 75.2082143,83.2471836 75.2082143,80.2589286 C75.2082143,80.1581222 75.210971,80.0579596 75.2164133,79.9585123 L67.1905809,71.9326007 C63.5671856,74.7280691 59.21519,76.625191 54.4681603,77.2904003 L54.4681887,87.5371766 C55.1437374,87.9281116 55.750011,88.4254546 56.2640885,89.0062845 C57.5581428,90.2762673 58.36,92.0444918 58.36,94 C58.36,97.8659932 55.2259932,101 51.36,101 C51.2794585,101 51.1992347,100.99864 51.1193502,100.995941 L51.1029755,100.995985 C51.0223119,100.998655 50.9413131,101 50.86,101 C46.87566,101 43.6457143,97.7700543 43.6457143,93.7857143 C43.6457143,91.1154696 45.0964375,88.7840595 47.2527129,87.536655 L47.2527579,77.338592 C42.454306,76.7320351 38.0475805,74.8686052 34.3728286,72.0885493 L26.5035867,79.9585123 C26.509029,80.0579596 26.5117857,80.1581222 26.5117857,80.2589286 C26.5117857,83.2471836 24.0893264,85.6696429 21.1010714,85.6696429 C18.1128164,85.6696429 15.6903571,83.2471836 15.6903571,80.2589286 C15.6903571,77.2706736 18.1128164,74.8482143 21.1010714,74.8482143 C21.2018778,74.8482143 21.3020404,74.850971 21.4014877,74.8564133 L29.2470422,67.010938 C26.416202,63.341695 24.5065862,58.9252969 23.8645837,54.1081325 L13.8228234,54.1081887 C12.5752906,56.2639669 10.2441582,57.7142857 7.57428571,57.7142857 C3.58994573,57.7142857 0.36,54.48434 0.36,50.5 L0.364014709,50.2570245 L0.364014709,50.2570245 L0.364059018,50.2406498 L0.364059018,50.2406498 Z" id="Combined-Shape"></path>
                </g>
                <g id="Regular-M" transform="translate(894.200000, 414.000000)" fill="#FF4444">
                    <path d="M13.8551198,62.2007846 L13.8049312,62.2414148 C13.7754028,62.2651238 13.7457025,62.2886276 13.7158326,62.3119241 C13.683145,62.3374161 13.6504971,62.3624763 13.6176518,62.3872891 C13.582964,62.4134953 13.547873,62.439559 13.5125628,62.4653405 C13.311421,62.6121952 13.103343,62.7497864 12.8887768,62.877622 C12.8513408,62.8999226 12.8141453,62.921675 12.7767601,62.943134 C12.7366333,62.9661696 12.6959025,62.9890797 12.6549529,63.0116415 C12.6262616,63.0274487 12.5976036,63.0430096 12.5688404,63.0583998 C12.5229913,63.082932 12.4769073,63.1070141 12.4305624,63.1306577 C12.3967044,63.1479312 12.3626523,63.1649976 12.3284627,63.181827 C12.2761804,63.2075617 12.2236381,63.2327135 12.1707824,63.2573049 C12.1478999,63.2679515 12.1248583,63.2785386 12.101758,63.2890191 C11.8702969,63.3940296 11.6330187,63.4883154 11.390488,63.5712755 C11.3457279,63.5865908 11.3000863,63.6017467 11.2542643,63.6165006 C11.213248,63.6297025 11.1728802,63.6423409 11.1323762,63.6546667 C11.0994822,63.6646802 11.0657648,63.6747003 11.0319552,63.6845032 C10.9670211,63.7033249 10.9023727,63.7211815 10.8374015,63.7382414 C10.8198332,63.7428556 10.8017903,63.7475266 10.7837228,63.7521361 C10.7187475,63.7687095 10.653866,63.7843933 10.5886814,63.799281 C10.5616546,63.8054549 10.534244,63.811564 10.5067807,63.8175321 C10.3428158,63.8531588 10.1772044,63.8837233 10.0098914,63.9091054 C9.95271203,63.9177768 9.89574193,63.92579 9.83858253,63.9331999 C9.80777507,63.9371955 9.77642265,63.9410737 9.74501455,63.9447698 C9.70617413,63.9493378 9.66784173,63.9535664 9.62942873,63.9575232 C9.56189822,63.9644846 9.49350132,63.9706538 9.42486164,63.9759568 C9.40132592,63.9777753 9.3776805,63.9794976 9.35400678,63.9811168 C9.27758325,63.9863413 9.20116581,63.9904805 9.12447059,63.9935399 C9.11255134,63.994016 9.10017638,63.994482 9.08779425,63.9949198 C8.99198136,63.9983024 8.89618893,64 8.8,64 L8.8,64 C4.381722,64 0.8,60.418278 0.8,56 C0.8,51.581722 4.381722,48 8.8,48 L9.04917933,48.0038068 C9.06224507,48.0042066 9.07530292,48.0046376 9.08835282,48.0051 L8.8,48 C8.90884274,48 9.0171778,48.0021736 9.12496415,48.0064798 C9.20116581,48.0095195 9.27758325,48.0136587 9.35370813,48.0188627 C9.37776028,48.0205081 9.40140894,48.0222309 9.42502884,48.0240562 C9.49350132,48.0293462 9.56189822,48.0355154 9.63004143,48.0425399 C9.66796094,48.0464464 9.70629851,48.0506762 9.7445535,48.0551759 C9.77642265,48.0589263 9.80777507,48.0628045 9.83907074,48.0668634 C9.89589175,48.0742305 9.95286944,48.0822459 10.0096512,48.0908581 C10.1772044,48.1162767 10.3428158,48.1468412 10.5065569,48.1824192 C10.5344775,48.1884876 10.5618916,48.1945984 10.5892524,48.2008495 C10.653866,48.2156067 10.7187475,48.2312905 10.7833149,48.2477598 C10.803017,48.2527871 10.8220188,48.2577108 10.840993,48.2627025 C10.9013234,48.2785691 10.9619608,48.2952916 11.0223051,48.3127054 C11.0609171,48.3238488 11.0992358,48.3352223 11.1374333,48.346874 C11.1863008,48.36178 11.2350388,48.3771637 11.2835727,48.392999 C11.3125458,48.4024518 11.3415127,48.4120881 11.3704054,48.421885 C11.433341,48.4432264 11.4957771,48.4652756 11.5578522,48.4880722 C11.5768269,48.4950395 11.5960914,48.5021984 11.6153207,48.5094292 C11.776892,48.5701942 11.9356043,48.6358683 12.0916492,48.7064031 C12.1184996,48.7185386 12.1455521,48.7309489 12.1725228,48.7435051 C12.316187,48.810394 12.4572855,48.8812893 12.5959225,48.9561581 C12.6079385,48.9626456 12.6205947,48.9695233 12.6332303,48.976434 C12.8662196,49.103894 13.0914705,49.2421301 13.3090048,49.3908261 C13.3349166,49.4085361 13.3610731,49.4266428 13.3871159,49.4449007 C13.4281203,49.4736475 13.4688901,49.5028038 13.5093722,49.5323311 C13.5463609,49.5593156 13.5824948,49.5861454 13.6183929,49.6132708 C13.6504971,49.6375237 13.683145,49.6625839 13.7155927,49.6878888 C13.745867,49.7115049 13.7751691,49.7346934 13.804304,49.7580817 C13.8477495,49.7929497 13.891523,49.8288481 13.9349052,49.8651982 C13.9565884,49.8833666 13.9781602,49.9016363 13.9996336,49.9200178 C14.0461477,49.9598379 14.0919408,49.9999507 14.1372677,50.040573 C14.1559416,50.0573071 14.1748243,50.0743905 14.1936247,50.0915625 C14.3776014,50.2596195 14.5534424,50.4358703 14.7208154,50.6199581 C14.7527201,50.6550499 14.7842438,50.690343 14.8154569,50.7259152 C14.8462486,50.761007 14.8767478,50.7963818 14.9069405,50.8320245 C14.9209741,50.8485906 14.9350574,50.8653534 14.9490729,50.8821747 C14.9917135,50.9333517 15.0337145,50.9850533 15.0750773,51.0372834 C15.0937903,51.0609076 15.1129118,51.0853366 15.1318937,51.109879 C15.1623123,51.1492174 15.1918297,51.1881179 15.220997,51.2272944 C15.3148348,51.3533162 15.4053431,51.4826412 15.4920485,51.6146867 C15.5165061,51.6519339 15.5406503,51.6893805 15.5644887,51.7270399 C15.5827438,51.7558785 15.6008471,51.7848865 15.6187689,51.8140181 C15.6494278,51.8638513 15.6796457,51.9141997 15.7093213,51.964904 C15.7163366,51.9768925 15.7230071,51.9883573 15.7296499,51.99984 L26.8643555,51.9999038 C27.5761478,46.6577085 29.6938101,41.7599587 32.8331557,37.690841 L25.1331349,29.9909081 C25.0228566,29.996943 24.9117853,30 24.8,30 C21.4862915,30 18.8,27.3137085 18.8,24 C18.8,20.6862915 21.4862915,18 24.8,18 C28.1137085,18 30.8,20.6862915 30.8,24 C30.8,24.1117853 30.796943,24.2228566 30.7909081,24.3331349 L38.5171961,32.0602226 C42.5921685,28.9773883 47.4788344,26.9110106 52.79989,26.238393 L52.79984,14.9296499 L52.764904,14.9093213 C52.7141997,14.8796457 52.6638513,14.8494278 52.6138668,14.8186758 L52.79984,14.9296499 C52.7077147,14.8763554 52.6167508,14.8212766 52.5269956,14.7644607 C52.4893805,14.7406503 52.4519339,14.7165061 52.4147036,14.6920596 C52.2826412,14.6053431 52.1533162,14.5148348 52.0268675,14.4206792 C51.9881179,14.3918297 51.9492174,14.3623123 51.9105976,14.3324494 C51.8853366,14.3129118 51.8609076,14.2937903 51.8365931,14.2745305 C51.7898499,14.2375131 51.7428524,14.1994226 51.6962995,14.1608144 C51.6745281,14.1427567 51.6531596,14.1248447 51.6318865,14.1068236 C51.5963818,14.0767478 51.561007,14.0462486 51.525904,14.0154471 C51.490343,13.9842438 51.4550499,13.9527201 51.4200403,13.9208902 C51.2358703,13.7534424 51.0596195,13.5776014 50.8918212,13.393908 C50.8743905,13.3748243 50.8573071,13.3559416 50.8403128,13.3369774 C50.7999507,13.2919408 50.7598379,13.2461477 50.7202437,13.1998975 C50.7016363,13.1781602 50.6833666,13.1565884 50.6652096,13.1349189 C50.6288481,13.091523 50.5929497,13.0477495 50.5575101,13.0035919 C50.5346934,12.9751691 50.5115049,12.945867 50.4885183,12.9163998 C50.4625839,12.883145 50.4375237,12.8504971 50.4127109,12.8176518 C50.3861454,12.7824948 50.3593156,12.7463609 50.3327852,12.7099947 C50.3028038,12.6688901 50.2736475,12.6281203 50.2448669,12.5870677 C50.1724754,12.48381 50.10243,12.3787136 50.0348443,12.2719063 C49.9407522,12.1232133 49.8513929,11.9711417 49.7670195,11.8159664 C49.7629352,11.8084525 49.7593637,11.8018599 49.7558012,11.7952616 L49.7670195,11.8159664 C49.6895354,11.6734616 49.6162562,11.5283393 49.5473485,11.3807661 C49.53786,11.3604441 49.52854,11.3402632 49.5193019,11.3200371 L49.4991547,11.275566 C49.396044,11.0460989 49.3034337,10.8108913 49.2219357,10.5705549 C49.2120881,10.5415127 49.2024518,10.5125458 49.1929772,10.4835058 C49.1771637,10.4350388 49.16178,10.3863008 49.1468528,10.3373637 C49.1352223,10.2992358 49.1238488,10.2609171 49.1127557,10.2224794 C49.0714575,10.0793682 49.0340883,9.93478649 49.000719,9.78868137 C48.995959,9.76784713 48.9911545,9.74640919 48.9864361,9.72493893 L48.9811133,9.70053535 C48.9460927,9.53875594 48.9159656,9.37515374 48.8908946,9.20989144 C48.8822459,9.15286944 48.8742305,9.09589175 48.8668186,9.03872469 C48.8628045,9.00777507 48.8589263,8.97642265 48.8552302,8.94501455 C48.8506762,8.90629851 48.8464464,8.86796094 48.8424885,8.82954275 C48.8355154,8.76189822 48.8293462,8.69350132 48.8240432,8.62486164 C48.8222309,8.60140894 48.8205081,8.57776028 48.8188884,8.55408332 C48.806356,8.37076008 48.8,8.1861223 48.8,8 C48.8,3.581722 52.381722,0 56.8,0 C61.218278,0 64.8,3.581722 64.8,8 C64.8,8.1861223 64.793644,8.37076008 64.7811373,8.55370813 C64.7794976,8.5776805 64.7777753,8.60132592 64.7759505,8.6249426 C64.7706538,8.69350132 64.7644846,8.76189822 64.7574601,8.83004143 C64.7535664,8.86784173 64.7493378,8.90617413 64.7448393,8.94442397 C64.7410737,8.97642265 64.7371955,9.00777507 64.7331366,9.03907074 C64.72579,9.09574193 64.7177768,9.15271203 64.7091669,9.20948622 C64.6840344,9.37515374 64.6539073,9.53875594 64.6188867,9.70053535 L64.6136149,9.72470664 C64.6088979,9.74617415 64.6040946,9.76760934 64.5992055,9.78901184 C64.5652088,9.93786414 64.5269664,10.0854586 64.4846828,10.2313357 C64.4747003,10.2657648 64.4646802,10.2994822 64.4544447,10.3331057 C64.4423409,10.3728802 64.4297025,10.413248 64.4167542,10.4534767 C64.4017467,10.5000863 64.3865908,10.5457279 64.3710371,10.591185 C64.2883154,10.8330187 64.1940296,11.0702969 64.0890492,11.3016916 C64.0789961,11.3238498 64.0688757,11.345888 64.0586583,11.367872 C64.0336638,11.4216523 64.0080474,11.4751936 63.9818571,11.5284016 C63.9649976,11.5626523 63.9479312,11.5967044 63.93063,11.6306166 C63.9070141,11.6769073 63.882932,11.7229913 63.8584168,11.7688087 C63.8498712,11.7847798 63.8412901,11.800687 63.8326568,11.8165617 C63.8031914,11.8707346 63.7733481,11.9241287 63.7429152,11.9771412 C63.721675,12.0141453 63.6999226,12.0513408 63.6778802,12.0883433 C63.5497864,12.303343 63.4121952,12.511421 63.2654603,12.7123988 C63.239559,12.747873 63.2134953,12.782964 63.1871526,12.8178325 C63.1624763,12.8504971 63.1374161,12.883145 63.1121112,12.9155927 C63.0886276,12.9457025 63.0651238,12.9754028 63.0414148,13.0049312 C63.0281232,13.0214871 63.0144873,13.0383318 63.0007846,13.0551198 L62.9003698,13.1757223 C62.8923175,13.1852038 62.8842435,13.1946663 62.8761478,13.2041097 C62.8407678,13.2453827 62.804771,13.2865191 62.7683628,13.3272802 C62.7479783,13.3501006 62.727617,13.3726369 62.7071297,13.3950562 C62.539145,13.5788923 62.3625333,13.7550054 62.1780586,13.9226181 C62.1413158,13.9559972 62.1047261,13.9886321 62.0678369,14.0209335 C62.0441297,14.0416938 62.0200847,14.0624993 61.9959151,14.0831633 C61.9595858,14.114224 61.9229121,14.1450168 61.8859603,14.1754843 C61.8459029,14.2085076 61.805966,14.2407942 61.7657149,14.2727017 C61.7431856,14.2905637 61.7200759,14.3086804 61.6968645,14.3266723 C61.6423723,14.3689054 61.5877303,14.4101484 61.532549,14.4507004 C61.5181197,14.4613043 61.5036327,14.4718762 61.4891089,14.4824004 C61.4209351,14.5318014 61.3518917,14.5801937 61.2820608,14.6275113 C61.27669,14.6311502 61.2716576,14.6345515 61.2666211,14.6379471 C61.1988611,14.6836401 61.1298108,14.7286714 61.0600333,14.7726542 C61.0389046,14.7859712 61.0179285,14.7990568 60.9968877,14.8120476 C60.9491114,14.8415477 60.900733,14.8707173 60.8520244,14.8993857 C60.8348857,14.9094719 60.8180422,14.9193017 60.8011597,14.9290715 L60.8011282,26.2918333 C66.0651612,27.0294912 70.8911365,29.1332303 74.909159,32.2331557 L82.8090919,24.3331349 C82.803057,24.2228566 82.8,24.1117853 82.8,24 C82.8,20.6862915 85.4862915,18 88.8,18 C92.1137085,18 94.8,20.6862915 94.8,24 C94.8,27.3137085 92.1137085,30 88.8,30 C88.6882147,30 88.5771434,29.996943 88.4668651,29.9909081 L80.5397774,37.9171961 C83.5839503,41.9410649 85.6370013,46.756396 86.3356445,51.9999038 L97.8703501,51.99984 L97.8906787,51.964904 C97.9203543,51.9141997 97.9505722,51.8638513 97.9813242,51.8138668 L97.8703501,51.99984 C97.9236446,51.9077147 97.9787234,51.8167508 98.0355393,51.7269956 C98.0593497,51.6893805 98.0834939,51.6519339 98.1079404,51.6147036 C98.1946569,51.4826412 98.2851652,51.3533162 98.3793208,51.2268675 C98.4081703,51.1881179 98.4376877,51.1492174 98.4675506,51.1105976 C98.4870882,51.0853366 98.5062097,51.0609076 98.5254695,51.0365931 C98.5662855,50.9850533 98.6082865,50.9333517 98.650914,50.8821905 C98.6649426,50.8653534 98.6790259,50.8485906 98.6931764,50.8318865 C98.7232522,50.7963818 98.7537514,50.761007 98.7845529,50.725904 C98.8157562,50.690343 98.8472799,50.6550499 98.8791098,50.6200403 C99.0465576,50.4358703 99.2223986,50.2596195 99.406092,50.0918212 C99.4251757,50.0743905 99.4440584,50.0573071 99.4630226,50.0403128 C99.5080592,49.9999507 99.5538523,49.9598379 99.6001025,49.9202437 C99.6218398,49.9016363 99.6434116,49.8833666 99.6650811,49.8652096 C99.708477,49.8288481 99.7522505,49.7929497 99.7964081,49.7575101 C99.8248309,49.7346934 99.854133,49.7115049 99.8836002,49.6885183 C99.916855,49.6625839 99.9495029,49.6375237 99.9823482,49.6127109 C100.017505,49.5861454 100.053639,49.5593156 100.090005,49.5327852 C100.13111,49.5028038 100.17188,49.4736475 100.212932,49.4448669 C100.238927,49.4266428 100.265083,49.4085361 100.291352,49.3905819 C100.50853,49.2421301 100.73378,49.103894 100.966023,48.9768422 C100.979405,48.9695233 100.992062,48.9626456 101.004738,48.9558012 C101.142715,48.8812893 101.283813,48.810394 101.42722,48.7436247 C101.454448,48.7309489 101.4815,48.7185386 101.508633,48.7062753 C101.664396,48.6358683 101.823108,48.5701942 101.984295,48.5095737 C102.003909,48.5021984 102.023173,48.4950395 102.042472,48.487953 C102.104223,48.4652756 102.166659,48.4432264 102.229445,48.4219357 C102.258487,48.4120881 102.287454,48.4024518 102.316494,48.3929772 C102.364961,48.3771637 102.413699,48.36178 102.462636,48.3468528 C102.500764,48.3352223 102.539083,48.3238488 102.577521,48.3127557 C102.638039,48.2952916 102.698677,48.2785691 102.759598,48.262547 C102.777981,48.2577108 102.796983,48.2527871 102.816012,48.2479315 C102.881253,48.2312905 102.946134,48.2156067 103.011319,48.200719 C103.038108,48.1945984 103.065523,48.1884876 103.092989,48.1825178 C103.257184,48.1468412 103.422796,48.1162767 103.590109,48.0908946 C103.647131,48.0822459 103.704108,48.0742305 103.761275,48.0668186 C103.792225,48.0628045 103.823577,48.0589263 103.854985,48.0552302 C103.893701,48.0506762 103.932039,48.0464464 103.970457,48.0424885 C104.038102,48.0355154 104.106499,48.0293462 104.175138,48.0240432 C104.198591,48.0222309 104.22224,48.0205081 104.245917,48.0188884 C104.322417,48.0136587 104.398834,48.0095195 104.475529,48.0064601 C104.487066,48.0059992 104.499103,48.0055452 104.511147,48.0051177 C104.607346,48.0017095 104.703474,48 104.8,48 C109.218278,48 112.8,51.581722 112.8,56 C112.8,60.418278 109.218278,64 104.8,64 L104.8,64 L104.550821,63.9961932 C104.53809,63.9958037 104.525367,63.9953844 104.512651,63.9949355 L104.8,64 C104.691172,64 104.582852,63.997827 104.475081,63.993522 C104.398834,63.9904805 104.322417,63.9863413 104.246292,63.9811373 C104.22232,63.9794976 104.198674,63.9777753 104.175057,63.9759505 C104.106499,63.9706538 104.038102,63.9644846 103.969959,63.9574601 C103.932158,63.9535664 103.893826,63.9493378 103.855576,63.9448393 C103.823577,63.9410737 103.792225,63.9371955 103.760929,63.9331366 C103.704258,63.92579 103.647288,63.9177768 103.590514,63.9091669 C103.422796,63.8837233 103.257184,63.8531588 103.093443,63.8175808 C103.065756,63.811564 103.038345,63.8054549 103.010988,63.7992055 C102.946134,63.7843933 102.881253,63.7687095 102.816685,63.7522402 C102.79821,63.7475266 102.780167,63.7428556 102.762149,63.7381233 C102.697627,63.7211815 102.632979,63.7033249 102.568664,63.6846828 C102.534235,63.6747003 102.500518,63.6646802 102.466894,63.6544447 C102.42712,63.6423409 102.386752,63.6297025 102.346523,63.6167542 C102.299914,63.6017467 102.254272,63.5865908 102.208815,63.5710371 C101.966981,63.4883154 101.729703,63.3940296 101.498308,63.2890492 C101.475142,63.2785386 101.4521,63.2679515 101.429118,63.2572584 C101.376362,63.2327135 101.32382,63.2075617 101.271598,63.1818571 C101.237348,63.1649976 101.203296,63.1479312 101.169383,63.13063 C101.123093,63.1070141 101.077009,63.082932 101.031191,63.0584168 C101.002396,63.0430096 100.973738,63.0274487 100.945187,63.0117184 C100.904097,62.9890797 100.863367,62.9661696 100.822859,62.9429152 C100.785855,62.921675 100.748659,62.8999226 100.711657,62.8778802 C100.496657,62.7497864 100.288579,62.6121952 100.087601,62.4654603 C100.052127,62.439559 100.017036,62.4134953 99.9821675,62.3871526 C99.9495029,62.3624763 99.916855,62.3374161 99.8844073,62.3121112 C99.8542975,62.2886276 99.8245972,62.2651238 99.7950688,62.2414148 C99.7785129,62.2281232 99.7616682,62.2144873 99.7448802,62.2007846 L99.6242777,62.1003698 C99.6147962,62.0923175 99.6053337,62.0842435 99.5958903,62.0761478 C99.5546173,62.0407678 99.5134809,62.004771 99.4727198,61.9683628 C99.4498994,61.9479783 99.4273631,61.927617 99.4049438,61.9071297 C99.2211077,61.739145 99.0449946,61.5625333 98.8773819,61.3780586 C98.8440028,61.3413158 98.8113679,61.3047261 98.7790665,61.2678369 C98.7583062,61.2441297 98.7375007,61.2200847 98.7168367,61.1959151 C98.685776,61.1595858 98.6549832,61.1229121 98.6245157,61.0859603 C98.5914924,61.0459029 98.5592058,61.005966 98.5272983,60.9657149 C98.5094363,60.9431856 98.4913196,60.9200759 98.4733277,60.8968645 C98.3685635,60.7616902 98.268322,60.6234906 98.1724887,60.4820608 C98.1581531,60.4609021 98.144145,60.4400159 98.1302331,60.4190604 C98.0954447,60.3666634 98.0610867,60.3135623 98.0273458,60.2600333 C98.0140288,60.2389046 98.0009432,60.2179285 97.9879524,60.1968877 C97.9584523,60.1491114 97.9292827,60.100733 97.9006143,60.0520244 C97.8905281,60.0348857 97.8806983,60.0180422 97.8709285,60.0011597 L86.3355111,60.0010974 C85.6367399,65.2442169 83.5837565,70.0591913 80.5397774,74.0828039 L89.4668651,83.0090919 C89.5771434,83.003057 89.6882147,83 89.8,83 C93.1137085,83 95.8,85.6862915 95.8,89 C95.8,92.3137085 93.1137085,95 89.8,95 C86.4862915,95 83.8,92.3137085 83.8,89 C83.8,88.8882147 83.803057,88.7771434 83.8090919,88.6668651 L74.909159,79.7668443 C70.8911365,82.8667697 66.0651612,84.9705088 60.8011282,85.7081667 L60.8011597,97.0709285 L60.8520244,97.1006143 C60.900733,97.1292827 60.9491114,97.1584523 60.9971523,97.1881158 L60.8011597,97.0709285 C60.8884343,97.1214337 60.9746663,97.1735404 61.0598154,97.2272085 C61.1135623,97.2610867 61.1666634,97.2954447 61.2193265,97.3304097 C61.2400159,97.344145 61.2609021,97.3581531 61.2817183,97.3722566 C61.4234906,97.468322 61.5616902,97.5685635 61.6964621,97.6730158 C61.7200759,97.6913196 61.7431856,97.7094363 61.7661925,97.727677 C61.805966,97.7592058 61.8459029,97.7914924 61.8855202,97.8241529 C61.9229121,97.8549832 61.9595858,97.885776 61.9959769,97.9168895 C62.0200847,97.9375007 62.0441297,97.9583062 62.0680487,97.979252 C62.1047261,98.0113679 62.1413158,98.0440028 62.1776014,98.0769666 C62.3625333,98.2449946 62.539145,98.4211077 62.707275,98.6051027 C62.727617,98.6273631 62.7479783,98.6498994 62.7682126,98.6725516 C62.804771,98.7134809 62.8407678,98.7546173 62.8763468,98.7961224 C62.8842435,98.8053337 62.8923175,98.8147962 62.9003698,98.8242777 L63.0007846,98.9448802 C63.0144873,98.9616682 63.0281232,98.9785129 63.0416918,98.9954138 C63.0651238,99.0245972 63.0886276,99.0542975 63.1119241,99.0841674 C63.1374161,99.116855 63.1624763,99.1495029 63.1872891,99.1823482 C63.2134953,99.217036 63.239559,99.252127 63.2653405,99.2874372 C63.4121952,99.488579 63.5497864,99.696657 63.677622,99.9112232 C63.6999226,99.9486592 63.721675,99.9858547 63.743134,100.02324 C63.7661696,100.063367 63.7890797,100.104097 63.8116415,100.145047 C63.8274487,100.173738 63.8430096,100.202396 63.8583998,100.23116 C63.882932,100.277009 63.9070141,100.323093 63.9306577,100.369438 C63.9479312,100.403296 63.9649976,100.437348 63.981827,100.471537 C64.0080474,100.524806 64.0336638,100.578348 64.0586983,100.632214 C64.0659656,100.647851 64.0732233,100.663601 64.0804312,100.679379 L64.0586983,100.632214 C64.1759285,100.884458 64.2803973,101.143833 64.3712755,101.409512 C64.3865908,101.454272 64.4017467,101.499914 64.4165006,101.545736 C64.4297025,101.586752 64.4423409,101.62712 64.4546667,101.667624 C64.4646802,101.700518 64.4747003,101.734235 64.4845032,101.768045 C64.5269664,101.914541 64.5652088,102.062136 64.599281,102.211319 C64.6054549,102.238345 64.611564,102.265756 64.6175321,102.293219 C64.6350233,102.373719 64.6512608,102.454444 64.6662734,102.535599 L64.6698011,102.554801 C64.6943222,102.689198 64.7154851,102.824767 64.7331999,102.961417 C64.7371955,102.992225 64.7410737,103.023577 64.7447698,103.054985 C64.7493378,103.093826 64.7535664,103.132158 64.7575232,103.170571 C64.7644846,103.238102 64.7706538,103.306499 64.7759568,103.375138 C64.7777753,103.398674 64.7794976,103.42232 64.7811168,103.445993 C64.793644,103.62924 64.8,103.813878 64.8,104 C64.8,108.418278 61.218278,112 56.8,112 L56.8,112 C52.381722,112 48.8,108.418278 48.8,104 L48.8038068,103.750821 C48.8069276,103.648819 48.8119577,103.547298 48.8188627,103.446292 C48.8205081,103.42224 48.8222309,103.398591 48.8240562,103.374971 C48.8293462,103.306499 48.8355154,103.238102 48.8425399,103.169959 C48.8464464,103.132039 48.8506762,103.093701 48.8551759,103.055447 C48.8589263,103.023577 48.8628045,102.992225 48.8668634,102.960929 C48.8845382,102.824606 48.9057069,102.68902 48.9302346,102.554605 L48.9337266,102.535599 C48.9487392,102.454444 48.9649767,102.373719 48.9824192,102.293443 C48.9884876,102.265523 48.9945984,102.238108 49.0008495,102.210748 C49.0340883,102.065214 49.0714575,101.920632 49.1127054,101.777695 C49.1238488,101.739083 49.1352223,101.700764 49.146874,101.662567 C49.1676373,101.594497 49.1893069,101.526743 49.2118481,101.459389 C49.2150835,101.44972 49.2184745,101.439653 49.221885,101.429595 C49.3086729,101.173658 49.407997,100.923681 49.5191704,100.680251 C49.5282367,100.660394 49.537707,100.639884 49.5472613,100.619421 C49.6130282,100.478574 49.6826795,100.34014 49.7561581,100.204078 C49.7626456,100.192062 49.7695233,100.179405 49.776434,100.16677 C49.903894,99.9337804 50.0421301,99.7085295 50.1908261,99.4909952 C50.2085361,99.4650834 50.2266428,99.4389269 50.2449007,99.4128841 C50.2736475,99.3718797 50.3028038,99.3311099 50.3323311,99.2906278 C50.3593156,99.2536391 50.3861454,99.2175052 50.4132708,99.1816071 C50.4375237,99.1495029 50.4625839,99.116855 50.4878888,99.0844073 C50.5115049,99.054133 50.5346934,99.0248309 50.5580817,98.995696 C50.5929497,98.9522505 50.6288481,98.908477 50.6651982,98.8650948 C50.6833666,98.8434116 50.7016363,98.8218398 50.7200178,98.8003664 C50.7598379,98.7538523 50.7999507,98.7080592 50.840573,98.6627323 C50.8573071,98.6440584 50.8743905,98.6251757 50.8915625,98.6063753 C51.0596195,98.4223986 51.2358703,98.2465576 51.4199581,98.0791846 C51.4550499,98.0472799 51.490343,98.0157562 51.5259152,97.9845431 C51.561007,97.9537514 51.5963818,97.9232522 51.6320245,97.8930595 C51.6531596,97.8751553 51.6745281,97.8572433 51.6959912,97.8394413 C51.7428524,97.8005774 51.7898499,97.7624869 51.8372834,97.7249227 C51.8609076,97.7062097 51.8853366,97.6870882 51.909879,97.6681063 C51.9748868,97.6178388 52.0399537,97.5690843 52.1057771,97.5213084 C52.206991,97.4478456 52.3099836,97.376703 52.4146867,97.3079515 C52.4519339,97.2834939 52.4893805,97.2593497 52.5270399,97.2355113 C52.5558785,97.2172562 52.5848865,97.1991529 52.6140181,97.1812311 C52.6638513,97.1505722 52.7141997,97.1203543 52.764904,97.0906787 C52.7768925,97.0836634 52.7883573,97.0769929 52.79984,97.0703501 L52.79989,85.761607 C47.4788344,85.0889894 42.5921685,83.0226117 38.5171961,79.9397774 L29.7909081,88.6668651 C29.796943,88.7771434 29.8,88.8882147 29.8,89 C29.8,92.3137085 27.1137085,95 23.8,95 C20.4862915,95 17.8,92.3137085 17.8,89 C17.8,85.6862915 20.4862915,83 23.8,83 C23.9117853,83 24.0228566,83.003057 24.1331349,83.0090919 L32.8331557,74.309159 C29.6940062,70.2402955 27.5764124,65.3429035 26.8644889,60.0010974 L15.7290715,60.0011597 L15.6993857,60.0520244 C15.6707173,60.100733 15.6415477,60.1491114 15.6118842,60.1971523 L15.7290715,60.0011597 C15.6785663,60.0884343 15.6264596,60.1746663 15.5727915,60.2598154 C15.5389133,60.3135623 15.5045553,60.3666634 15.4695903,60.4193265 C15.455855,60.4400159 15.4418469,60.4609021 15.4277434,60.4817183 C15.331678,60.6234906 15.2314365,60.7616902 15.1269842,60.8964621 C15.1086804,60.9200759 15.0905637,60.9431856 15.072323,60.9661925 C15.0407942,61.005966 15.0085076,61.0459029 14.9758471,61.0855202 C14.9450168,61.1229121 14.914224,61.1595858 14.8831105,61.1959769 C14.8624993,61.2200847 14.8416938,61.2441297 14.820748,61.2680487 C14.7886321,61.3047261 14.7559972,61.3413158 14.7230334,61.3776014 C14.5550054,61.5625333 14.3788923,61.739145 14.1948973,61.907275 C14.1726369,61.927617 14.1501006,61.9479783 14.1274484,61.9682126 C14.0865191,62.004771 14.0453827,62.0407678 14.0038776,62.0763468 C13.9946663,62.0842435 13.9852038,62.0923175 13.9757223,62.1003698 L13.8551198,62.2007846 L13.8551198,62.2007846 Z" id="Combined-Shape"></path>
                </g>
                <g id="Bold-S" transform="translate(1799.780000, 0.000000)" fill="#FFB4B4">
                    <path d="M42.72,0 C45.7575661,0 48.22,2.46243388 48.22,5.5 C48.22,7.90912984 46.6710639,9.95648627 44.5147445,10.7005164 C44.3960484,10.7813361 44.2741898,10.85801 44.1494205,10.930213 L44.1493975,19.2493779 C48.0034216,19.7894489 51.5367249,21.3296865 54.4784914,23.5992747 L60.2623709,17.8153309 C60.2579524,17.7345915 60.2557143,17.6532714 60.2557143,17.5714286 C60.2557143,15.1453206 62.2224634,13.1785714 64.6485714,13.1785714 C67.0746794,13.1785714 69.0414286,15.1453206 69.0414286,17.5714286 C69.0414286,19.9975366 67.0746794,21.9642857 64.6485714,21.9642857 C64.5667286,21.9642857 64.4854085,21.9620476 64.4046691,21.9576291 L58.6009085,27.7608043 C60.8296779,30.7068511 62.3328045,34.2323614 62.8443112,38.0713581 L71.2893635,38.0713114 C71.3613586,37.94686 71.4378013,37.8253035 71.5184743,37.7068592 C72.2622482,35.5498937 74.3101256,34 76.72,34 C79.7575661,34 82.22,36.4624339 82.22,39.5 C82.22,39.7503032 82.2032796,39.9967012 82.1708949,40.2381379 C82.2032511,40.4868668 82.22,40.7414775 82.22,41 C82.22,44.2348107 79.5976678,46.8571429 76.3628571,46.8571429 C74.1952379,46.8571429 72.3026354,45.6796563 71.289787,43.9294205 L62.8442135,43.9293749 C62.3326131,47.7680874 60.829536,51.2933365 58.6009085,54.2391957 L65.1368119,60.7745137 C65.2175514,60.7700953 65.2988715,60.7678571 65.3807143,60.7678571 C67.8068223,60.7678571 69.7735714,62.7346063 69.7735714,65.1607143 C69.7735714,67.5868223 67.8068223,69.5535714 65.3807143,69.5535714 C62.9546063,69.5535714 60.9878571,67.5868223 60.9878571,65.1607143 C60.9878571,65.0788715 60.9900953,64.9975514 60.9945137,64.9168119 L54.4784914,58.4007253 C51.5367249,60.6703135 48.0034216,62.2105511 44.1493975,62.7506221 L44.1494205,71.069787 C44.2741898,71.14199 44.3960484,71.2186639 44.5147774,71.2995894 C46.6710639,72.0435137 48.22,74.0908702 48.22,76.5 C48.22,79.5375661 45.7575661,82 42.72,82 C42.4696968,82 42.2232988,81.9832796 41.9818621,81.9508949 C41.7331332,81.9832511 41.4785225,82 41.22,82 C37.9851893,82 35.3628571,79.3776678 35.3628571,76.1428571 C35.3628571,73.9749357 36.540672,72.0821077 38.2913114,71.0693635 L38.291348,62.789748 C34.3955752,62.2972958 30.8178377,60.7844121 27.8343757,58.527337 L21.4454863,64.9168119 C21.4499047,64.9975514 21.4521429,65.0788715 21.4521429,65.1607143 C21.4521429,67.5868223 19.4853937,69.5535714 17.0592857,69.5535714 C14.6331777,69.5535714 12.6664286,67.5868223 12.6664286,65.1607143 C12.6664286,62.7346063 14.6331777,60.7678571 17.0592857,60.7678571 C17.1411285,60.7678571 17.2224486,60.7700953 17.3031881,60.7745137 L23.6728461,54.40492 C21.3745403,51.4259306 19.8241591,47.84034 19.3029294,43.9293749 L11.150213,43.9294205 C10.1373646,45.6796563 8.24476212,46.8571429 6.07714286,46.8571429 C2.84233218,46.8571429 0.22,44.2348107 0.22,41 C0.22,40.7414775 0.236748919,40.4868668 0.269220838,40.2371941 C0.236720371,39.9967012 0.22,39.7503032 0.22,39.5 C0.22,36.4624339 2.68243388,34 5.72,34 C8.12987444,34 10.1777518,35.5498937 10.9212059,37.7072551 C11.0021987,37.8253035 11.0786414,37.94686 11.1506365,38.0713114 L19.3028317,38.0713581 C19.8239654,34.160108 21.3743967,30.5742555 23.6728461,27.59508 L18.0353309,21.9576291 C17.9545915,21.9620476 17.8732714,21.9642857 17.7914286,21.9642857 C15.3653206,21.9642857 13.3985714,19.9975366 13.3985714,17.5714286 C13.3985714,15.1453206 15.3653206,13.1785714 17.7914286,13.1785714 C20.2175366,13.1785714 22.1842857,15.1453206 22.1842857,17.5714286 C22.1842857,17.6532714 22.1820476,17.7345915 22.1776291,17.8153309 L27.8343757,23.472663 C30.8178377,21.2155879 34.3955752,19.7027042 38.291348,19.210252 L38.2913114,10.9306365 C36.540672,9.91789227 35.3628571,8.02506427 35.3628571,5.85714286 C35.3628571,2.62233218 37.9851893,0 41.22,0 C41.4785225,0 41.7331332,0.0167489189 41.9828059,0.0492208378 C42.2232988,0.0167203711 42.4696968,0 42.72,0 Z" id="Combined-Shape"></path>
                </g>
                <g id="Semibold-S" transform="translate(1503.970000, 0.000000)" fill="#FFB4B4">
                    <path d="M41.53,0 C44.5675661,0 47.03,2.46243388 47.03,5.5 C47.03,7.6500987 45.7962423,9.51203784 43.9980552,10.416489 C43.8153241,10.5543412 43.6232798,10.68142 43.4236959,10.7969177 L43.4236731,19.0146294 C47.230697,19.5481141 50.7209112,21.0695683 53.6268025,23.3114787 L59.3401468,17.5980708 C59.3357823,17.518316 59.3335714,17.4379876 59.3335714,17.3571429 C59.3335714,14.9606215 61.2763358,13.0178571 63.6728571,13.0178571 C66.0693785,13.0178571 68.0121429,14.9606215 68.0121429,17.3571429 C68.0121429,19.7536642 66.0693785,21.6964286 63.6728571,21.6964286 C63.5920124,21.6964286 63.511684,21.6942177 63.4319292,21.6898532 L57.6989462,27.4222579 C59.9005355,30.3323773 61.3853313,33.8148936 61.8906,37.6070733 L70.2326639,37.6070272 C70.3481733,37.4073565 70.4752728,37.2152296 70.6130425,37.0315664 C71.5179622,35.2337577 73.3799013,34 75.53,34 C78.5675661,34 81.03,36.4624339 81.03,39.5 C81.03,39.6666957 81.0225841,39.8316593 81.0080643,39.994579 C81.0226303,40.1608463 81.03,40.3295625 81.03,40.5 C81.03,43.6953618 78.4396475,46.2857143 75.2442857,46.2857143 C73.1031008,46.2857143 71.2335788,45.1225873 70.2330823,43.3936959 L61.8905036,43.3936508 C61.3851423,47.1855497 59.9003953,50.667808 57.6989462,53.5777421 L64.1551435,60.0333611 C64.2348983,60.0289966 64.3152267,60.0267857 64.3960714,60.0267857 C66.7925928,60.0267857 68.7353571,61.9695501 68.7353571,64.3660714 C68.7353571,66.7625928 66.7925928,68.7053571 64.3960714,68.7053571 C61.9995501,68.7053571 60.0567857,66.7625928 60.0567857,64.3660714 C60.0567857,64.2852267 60.0589966,64.2048983 60.0633611,64.1251435 L53.6268025,57.6885213 C50.7209112,59.9304317 47.230697,61.4518859 43.4236731,61.9853706 L43.4236959,70.2030823 C43.6232798,70.31858 43.8153241,70.4456588 43.9989097,70.5833997 C45.7962423,71.4879622 47.03,73.3499013 47.03,75.5 C47.03,78.5375661 44.5675661,81 41.53,81 C41.3633043,81 41.1983407,80.9925841 41.035421,80.9780643 C40.8691537,80.9926303 40.7004375,81 40.53,81 C37.3346382,81 34.7442857,78.4096475 34.7442857,75.2142857 C34.7442857,73.0728024 35.907737,71.2030576 37.6370272,70.2026639 L37.6370633,62.0240193 C33.7887999,61.5375727 30.2546933,60.0431388 27.307615,57.813589 L20.9966389,64.1251435 C21.0010034,64.2048983 21.0032143,64.2852267 21.0032143,64.3660714 C21.0032143,66.7625928 19.0604499,68.7053571 16.6639286,68.7053571 C14.2674072,68.7053571 12.3246429,66.7625928 12.3246429,64.3660714 C12.3246429,61.9695501 14.2674072,60.0267857 16.6639286,60.0267857 C16.7447733,60.0267857 16.8251017,60.0289966 16.9048565,60.0333611 L23.1968358,53.7414453 C20.9265581,50.7987851 19.395084,47.2569213 18.8802107,43.3936508 L10.8269177,43.3936959 C9.82642118,45.1225873 7.95689916,46.2857143 5.81571429,46.2857143 C2.62035252,46.2857143 0.03,43.6953618 0.03,40.5 C0.03,40.3295625 0.0373696859,40.1608463 0.0518077775,39.9941527 C0.0374158664,39.8316593 0.03,39.6666957 0.03,39.5 C0.03,36.4624339 2.49243388,34 5.53,34 C7.6800987,34 9.54203784,35.2337577 10.446489,37.0319448 C10.5847272,37.2152296 10.7118267,37.4073565 10.8273361,37.6070272 L18.8801142,37.6070733 C19.3948926,33.7435213 20.9264162,30.2013987 23.1968358,27.2585547 L17.6280708,21.6898532 C17.548316,21.6942177 17.4679876,21.6964286 17.3871429,21.6964286 C14.9906215,21.6964286 13.0478571,19.7536642 13.0478571,17.3571429 C13.0478571,14.9606215 14.9906215,13.0178571 17.3871429,13.0178571 C19.7836642,13.0178571 21.7264286,14.9606215 21.7264286,17.3571429 C21.7264286,17.4379876 21.7242177,17.518316 21.7198532,17.5980708 L27.307615,23.186411 C30.2546933,20.9568612 33.7887999,19.4624273 37.6370633,18.9759807 L37.6370272,10.7973361 C35.907737,9.79694237 34.7442857,7.92719763 34.7442857,5.78571429 C34.7442857,2.59035252 37.3346382,0 40.53,0 C40.7004375,0 40.8691537,0.00736968595 41.0358473,0.0218077775 C41.1983407,0.00741586645 41.3633043,0 41.53,0 Z" id="Combined-Shape"></path>
                </g>
                <g id="Medium-S" transform="translate(1207.950000, 1.000000)" fill="#FFB4B4">
                    <path d="M40.55,0 C43.5875661,0 46.05,2.46243388 46.05,5.5 C46.05,7.89870554 44.5144394,9.93876168 42.3727015,10.690785 L42.3722244,18.5451324 C46.0852477,19.0654447 49.4892838,20.5493321 52.3234247,22.7358866 L57.8956988,17.1635505 C57.891442,17.0857649 57.8892857,17.00742 57.8892857,16.9285714 C57.8892857,14.5912235 59.7840806,12.6964286 62.1214286,12.6964286 C64.4587765,12.6964286 66.3535714,14.5912235 66.3535714,16.9285714 C66.3535714,19.2659194 64.4587765,21.1607143 62.1214286,21.1607143 C62.04258,21.1607143 61.9642351,21.158558 61.8864495,21.1543012 L56.2950216,26.7451651 C58.4422506,29.5834297 59.8903848,32.9799579 60.3831778,36.6785036 L68.3588649,36.6782958 C69.1106051,34.5360373 71.1509222,33 73.55,33 C76.5875661,33 79.05,35.4624339 79.05,38.5 C79.05,38.6666957 79.0425841,38.8316593 79.0280643,38.994579 C79.0424358,39.160712 79.05,39.3294726 79.05,39.5 C79.05,42.6164639 76.5236068,45.1428571 73.4071429,45.1428571 C71.3188267,45.1428571 69.4954658,44.0084493 68.5196728,42.3222466 L60.3830837,42.3222026 C59.8902005,46.0204744 58.442114,49.416751 56.2950216,52.2548349 L62.5918066,58.5510559 C62.6695922,58.5467991 62.7479371,58.5446429 62.8267857,58.5446429 C65.1641337,58.5446429 67.0589286,60.4394378 67.0589286,62.7767857 C67.0589286,65.1141337 65.1641337,67.0089286 62.8267857,67.0089286 C60.4894378,67.0089286 58.5946429,65.1141337 58.5946429,62.7767857 C58.5946429,62.6979371 58.5967991,62.6195922 58.6010559,62.5418066 L52.3234247,56.2641134 C49.4892838,58.4506679 46.0852477,59.9345553 42.3722244,60.4548676 L42.3727015,68.309215 C44.5144394,69.0612383 46.05,71.1012945 46.05,73.5 C46.05,76.5375661 43.5875661,79 40.55,79 C40.3833043,79 40.2183407,78.9925841 40.055421,78.9780643 C39.889288,78.9924358 39.7205274,79 39.55,79 C36.4335361,79 33.9071429,76.4736068 33.9071429,73.3571429 C33.9071429,71.2685356 35.0418669,69.4449574 36.7284586,68.4692648 L36.7284938,60.4925621 C32.9752493,60.0181265 29.5284046,58.5605921 26.6540937,56.386093 L20.4989441,62.5418066 C20.5032009,62.6195922 20.5053571,62.6979371 20.5053571,62.7767857 C20.5053571,65.1141337 18.6105622,67.0089286 16.2732143,67.0089286 C13.9358663,67.0089286 12.0410714,65.1141337 12.0410714,62.7767857 C12.0410714,60.4394378 13.9358663,58.5446429 16.2732143,58.5446429 C16.3520629,58.5446429 16.4304078,58.5467991 16.5081934,58.5510559 L22.6448152,52.4144961 C20.4305937,49.5444941 18.9369338,46.0900837 18.4347734,42.3222026 L10.5803272,42.3222466 C9.60453423,44.0084493 7.78117326,45.1428571 5.69285714,45.1428571 C2.5763932,45.1428571 0.05,42.6164639 0.05,39.5 C0.05,39.3294726 0.0575642318,39.160712 0.0723754658,38.9940353 C0.0574158664,38.8316593 0.05,38.6666957 0.05,38.5 C0.05,35.4624339 2.51243388,33 5.55,33 C7.94907784,33 9.98939494,34.5360373 10.7411351,36.6782958 L18.4346793,36.6785036 C18.9367471,32.9103479 20.4304553,29.4556852 22.6448152,26.5855039 L17.2135505,21.1543012 C17.1357649,21.158558 17.05742,21.1607143 16.9785714,21.1607143 C14.6412235,21.1607143 12.7464286,19.2659194 12.7464286,16.9285714 C12.7464286,14.5912235 14.6412235,12.6964286 16.9785714,12.6964286 C19.3159194,12.6964286 21.2107143,14.5912235 21.2107143,16.9285714 C21.2107143,17.00742 21.208558,17.0857649 21.2043012,17.1635505 L26.6540937,22.613907 C29.5284046,20.4394079 32.9752493,18.9818735 36.7284938,18.5074379 L36.7284586,10.5307352 C35.0418669,9.55504255 33.9071429,7.73146435 33.9071429,5.64285714 C33.9071429,2.5263932 36.4335361,0 39.55,0 C39.7205274,0 39.889288,0.00756423177 40.0559647,0.0223754658 C40.2183407,0.00741586645 40.3833043,0 40.55,0 Z" id="Combined-Shape"></path>
                </g>
                <g id="Regular-S" transform="translate(911.140000, 2.000000)" fill="#FFB4B4">
                    <path d="M40.36,0 C43.3975661,0 45.86,2.46243388 45.86,5.5 C45.86,7.7218212 44.5425586,9.63593747 42.6462454,10.5037792 L42.6465,18.3103839 C46.312523,18.8241099 49.6734701,20.289214 52.4717357,22.4480906 L57.9734747,16.9462904 C57.9692718,16.8694894 57.9671429,16.7921362 57.9671429,16.7142857 C57.9671429,14.4065244 59.837953,12.5357143 62.1457143,12.5357143 C64.4534756,12.5357143 66.3242857,14.4065244 66.3242857,16.7142857 C66.3242857,19.022047 64.4534756,20.8928571 62.1457143,20.8928571 C62.0678638,20.8928571 61.9905106,20.8907282 61.9137096,20.8865253 L56.3930593,26.4066187 C58.5131082,29.2089559 59.9429116,32.5624901 60.4294667,36.2142187 L68.3557591,36.2147637 C69.2233835,34.3179088 71.1377847,33 73.36,33 C76.3975661,33 78.86,35.4624339 78.86,38.5 C78.86,38.5838976 78.8581215,38.6673564 78.8544043,38.7503367 C78.8581531,38.8329748 78.86,38.9162717 78.86,39 C78.86,42.077015 76.3655865,44.5714286 73.2885714,44.5714286 C71.2266897,44.5714286 69.4264092,43.4513803 68.4629681,41.7865219 L60.4293738,41.7864786 C59.9427296,45.4379368 58.5129733,48.7912225 56.3930593,51.5933813 L62.6101382,57.8099033 C62.6869391,57.8057004 62.7642924,57.8035714 62.8421429,57.8035714 C65.1499041,57.8035714 67.0207143,59.6743816 67.0207143,61.9821429 C67.0207143,64.2899041 65.1499041,66.1607143 62.8421429,66.1607143 C60.5343816,66.1607143 58.6635714,64.2899041 58.6635714,61.9821429 C58.6635714,61.9042924 58.6657004,61.8269391 58.6699033,61.7501382 L52.4717357,55.5519094 C49.6734701,57.710786 46.312523,59.1758901 42.6465,59.6896161 L42.6462454,67.4962208 C44.5425586,68.3640625 45.86,70.2781788 45.86,72.5 C45.86,75.5375661 43.3975661,78 40.36,78 C40.2761024,78 40.1926436,77.9981215 40.1096633,77.9944043 C40.0270252,77.9981531 39.9437283,78 39.86,78 C36.782985,78 34.2885714,75.5055865 34.2885714,72.4285714 C34.2885714,70.3664023 35.4089319,68.5659074 37.0741743,67.6025653 L37.0742091,59.7268334 C33.3684739,59.2584033 29.9652602,57.8193188 27.127333,55.672345 L21.0500967,61.7501382 C21.0542996,61.8269391 21.0564286,61.9042924 21.0564286,61.9821429 C21.0564286,64.2899041 19.1856184,66.1607143 16.8778571,66.1607143 C14.5700959,66.1607143 12.6992857,64.2899041 12.6992857,61.9821429 C12.6992857,59.6743816 14.5700959,57.8035714 16.8778571,57.8035714 C16.9557076,57.8035714 17.0330609,57.8057004 17.1098618,57.8099033 L23.1688049,51.7510214 C20.9826115,48.9173486 19.5078587,45.5066649 19.0120548,41.7864786 L11.2570319,41.7865219 C10.2935908,43.4513803 8.49331031,44.5714286 6.43142857,44.5714286 C3.35441354,44.5714286 0.86,42.077015 0.86,39 C0.86,38.9162717 0.861846944,38.8329748 0.865502314,38.7501477 C0.861878503,38.6673564 0.86,38.5838976 0.86,38.5 C0.86,35.4624339 3.32243388,33 6.36,33 C8.58221528,33 10.4966165,34.3179088 11.3642409,36.2147637 L19.0119619,36.2142187 C19.5076744,32.4937613 20.9824749,29.0828284 23.1688049,26.2489786 L17.8062904,20.8865253 C17.7294894,20.8907282 17.6521362,20.8928571 17.5742857,20.8928571 C15.2665244,20.8928571 13.3957143,19.022047 13.3957143,16.7142857 C13.3957143,14.4065244 15.2665244,12.5357143 17.5742857,12.5357143 C19.882047,12.5357143 21.7528571,14.4065244 21.7528571,16.7142857 C21.7528571,16.7921362 21.7507282,16.8694894 21.7465253,16.9462904 L27.127333,22.327655 C29.9652602,20.1806812 33.3684739,18.7415967 37.0742091,18.2731666 L37.0741743,10.3974347 C35.4089319,9.43409265 34.2885714,7.63359772 34.2885714,5.57142857 C34.2885714,2.49441354 36.782985,0 39.86,0 C39.9437283,0 40.0270252,0.00184694417 40.1098523,0.00550231368 L40.1387929,0.00436720397 L40.1387929,0.00436720397 Z" id="Combined-Shape"></path>
                </g>
            </g>
        </g>
    </g>
</svg>