<?xml version="1.0" encoding="UTF-8"?>
<svg width="3300px" height="2200px" viewBox="0 0 3300 2200" version="1.1" xmlns="http://www.w3.org/2000/svg" xmlns:xlink="http://www.w3.org/1999/xlink">
    <title>text.badge.plus copy 11</title>
    <g id="Page-1" stroke="none" stroke-width="1" fill="none" fill-rule="evenodd">
        <g id="text.badge.plus-copy-11">
            <g id="Notes">
                <rect id="artboard" fill="#FFFFFF" fill-rule="nonzero" x="0" y="0" width="3300" height="2200"></rect>
                <line x1="263" y1="292" x2="3036" y2="292" id="Path" stroke="#000000" stroke-width="0.5"></line>
                <text id="Weight/Scale-Variations" fill="#000000" fill-rule="nonzero" font-family="Helvetica-Bold, Helvetica" font-size="13" font-weight="bold">
                    <tspan x="263" y="322">Weight/Scale Variations</tspan>
                </text>
                <text id="Ultralight" fill="#000000" fill-rule="nonzero" font-family="Helvetica" font-size="13" font-weight="normal">
                    <tspan x="533.711" y="322">Ultralight</tspan>
                </text>
                <text id="Thin" fill="#000000" fill-rule="nonzero" font-family="Helvetica" font-size="13" font-weight="normal">
                    <tspan x="843.422" y="322">Thin</tspan>
                </text>
                <text id="Light" fill="#000000" fill-rule="nonzero" font-family="Helvetica" font-size="13" font-weight="normal">
                    <tspan x="1138.63" y="322">Light</tspan>
                </text>
                <text id="Regular" fill="#000000" fill-rule="nonzero" font-family="Helvetica" font-size="13" font-weight="normal">
                    <tspan x="1426.84" y="322">Regular</tspan>
                </text>
                <text id="Medium" fill="#000000" fill-rule="nonzero" font-family="Helvetica" font-size="13" font-weight="normal">
                    <tspan x="1723.06" y="322">Medium</tspan>
                </text>
                <text id="Semibold" fill="#000000" fill-rule="nonzero" font-family="Helvetica" font-size="13" font-weight="normal">
                    <tspan x="2015.77" y="322">Semibold</tspan>
                </text>
                <text id="Bold" fill="#000000" fill-rule="nonzero" font-family="Helvetica" font-size="13" font-weight="normal">
                    <tspan x="2326.48" y="322">Bold</tspan>
                </text>
                <text id="Heavy" fill="#000000" fill-rule="nonzero" font-family="Helvetica" font-size="13" font-weight="normal">
                    <tspan x="2618.19" y="322">Heavy</tspan>
                </text>
                <text id="Black" fill="#000000" fill-rule="nonzero" font-family="Helvetica" font-size="13" font-weight="normal">
                    <tspan x="2917.4" y="322">Black</tspan>
                </text>
                <line x1="263" y1="1903" x2="3036" y2="1903" id="Path" stroke="#000000" stroke-width="0.5"></line>
                <g id="Group" transform="translate(264.000000, 1918.000000)" fill="#000000" fill-rule="nonzero">
                    <path d="M8.24805,15.830078 C12.5547,15.830078 16.1387,12.25586 16.1387,7.94922 C16.1387,3.6426 12.5449,0.0684 8.23828,0.0684 C3.94141,0.0684 0.36719,3.6426 0.36719,7.94922 C0.36719,12.25586 3.95117,15.830078 8.24805,15.830078 Z M8.24805,14.345703 C4.70312,14.345703 1.87109,11.50391 1.87109,7.94922 C1.87109,4.3945 4.69336,1.5527 8.23828,1.5527 C11.793,1.5527 14.6348,4.3945 14.6445252,7.94922 C14.6543,11.50391 11.8027,14.345703 8.24805,14.345703 Z M8.22852,11.37695 C8.69727,11.37695 8.9707,11.06445 8.9707,10.54688 L8.9707,8.68164 L11.002,8.68164 C11.5,8.68164 11.832,8.42773 11.832,7.95898 C11.832,7.48047 11.5195,7.2168 11.002,7.2168 L8.9707,7.2168 L8.9707,5.18555 C8.9707,4.668 8.69727,4.3457 8.22852,4.3457 C7.75977,4.3457 7.50586,4.6875 7.50586,5.18555 L7.50586,7.2168 L5.49414,7.2168 C4.97656,7.2168 4.64453,7.48047 4.64453,7.95898 C4.64453,8.42773 4.99609,8.68164 5.49414,8.68164 L7.50586,8.68164 L7.50586,10.54688 C7.50586,11.04492 7.75977,11.37695 8.22852,11.37695 Z" id="Shape"></path>
                </g>
                <g id="Group" transform="translate(282.506000, 1915.000000)" fill="#000000" fill-rule="nonzero">
                    <path d="M10.709,20.91016 C16.1582,20.91016 20.6699,16.38867 20.6699,10.94922 C20.6699,5.5 16.1484,0.9883 10.6992,0.9883 C5.25977,0.9883 0.74805,5.5 0.74805,10.94922 C0.74805,16.38867 5.26953,20.91016 10.709,20.91016 Z M10.709,19.25 C6.09961,19.25 2.41797,15.55859 2.41797,10.94922 C2.41797,6.3398 6.08984,2.6484 10.6992,2.6484 C15.3086,2.6484 19,6.3398 19.009819,10.94922 C19.0195,15.55859 15.3184,19.25 10.709,19.25 Z M10.6797,15.33398 C11.207,15.33398 11.5098,14.98242 11.5098,14.40625 L11.5098,11.76953 L14.3223,11.76953 C14.8691,11.76953 15.25,11.48633 15.25,10.96875 C15.25,10.44141 14.8887,10.13867 14.3223,10.13867 L11.5098,10.13867 L11.5098,7.3164 C11.5098,6.75 11.207,6.3887 10.6797,6.3887 C10.1621,6.3887 9.8789,6.7695 9.8789,7.3164 L9.8789,10.13867 L7.07617,10.13867 C6.50977,10.13867 6.13867,10.44141 6.13867,10.96875 C6.13867,11.48633 6.5293,11.76953 7.07617,11.76953 L9.8789,11.76953 L9.8789,14.40625 C9.8789,14.96289 10.1621,15.33398 10.6797,15.33398 Z" id="Shape"></path>
                </g>
                <g id="Group" transform="translate(306.924000, 1913.000000)" fill="#000000" fill-rule="nonzero">
                    <path d="M12.9707,25.66406 C19.9336,25.66406 25.6953,19.9023438 25.6953,12.94922 C25.6953,5.9863 19.9238,0.2246 12.9609,0.2246 C6.00781,0.2246 0.25586,5.9863 0.25586,12.94922 C0.25586,19.9023438 6.01758,25.66406 12.9707,25.66406 Z M12.9707,23.84766 C6.93555,23.84766 2.08203,18.98438 2.08203,12.94922 C2.08203,6.9043 6.92578,2.0508 12.9609,2.0508 C19.0059,2.0508 23.8594,6.9043 23.8691148,12.94922 C23.8789,18.98438 19.0156,23.84766 12.9707,23.84766 Z M12.9414,18.61328 C13.5176,18.61328 13.8594,18.22266 13.8594,17.61719 L13.8594,13.86719 L17.7754,13.86719 C18.3711,13.86719 18.7812,13.53516 18.7812,12.97852 C18.7812,12.40234 18.3906,12.06055 17.7754,12.06055 L13.8594,12.06055 L13.8594,8.1348 C13.8594,7.5195 13.5176,7.1289 12.9414,7.1289 C12.375,7.1289 12.0527,7.5391 12.0527,8.1348 L12.0527,12.06055 L8.1465,12.06055 C7.53125,12.06055 7.13086,12.40234 7.13086,12.97852 C7.13086,13.53516 7.55078,13.86719 8.1465,13.86719 L12.0527,13.86719 L12.0527,17.61719 C12.0527,18.20312 12.375,18.61328 12.9414,18.61328 Z" id="Shape"></path>
                </g>
                <text id="Design-Variations" fill="#000000" fill-rule="nonzero" font-family="Helvetica-Bold, Helvetica" font-size="13" font-weight="bold">
                    <tspan x="263" y="1953">Design Variations</tspan>
                </text>
                <text id="Symbols-are-supported-in-up-to-nine-weights-and-three-scales." fill="#000000" fill-rule="nonzero" font-family="Helvetica" font-size="13" font-weight="normal">
                    <tspan x="263" y="1971">Symbols are supported in up to nine weights and three scales.</tspan>
                </text>
                <text id="For-optimal-layout-with-text-and-other-symbols,-vertically-align" fill="#000000" fill-rule="nonzero" font-family="Helvetica" font-size="13" font-weight="normal">
                    <tspan x="263" y="1989">For optimal layout with text and other symbols, vertically align</tspan>
                </text>
                <text id="symbols-with-the-adjacent-text." fill="#000000" fill-rule="nonzero" font-family="Helvetica" font-size="13" font-weight="normal">
                    <tspan x="263" y="2007">symbols with the adjacent text.</tspan>
                </text>
                <line x1="776" y1="1919" x2="776" y2="1933" id="Path" stroke="#00AEEF" stroke-width="0.5"></line>
                <g id="Group" transform="translate(778.000000, 1918.000000)" fill="#000000" fill-rule="nonzero">
                    <path d="M1.31055,15.126953 C1.82812,15.126953 2.08203,14.9316406 2.26758,14.394531 L3.52734,10.9375 L9.2891,10.9375 L10.5488,14.394531 C10.7344,14.9316406 10.9883,15.126953 11.4961,15.126953 C12.0137,15.126953 12.3457,14.814453 12.3457,14.326172 C12.3457,14.160156 12.3164,14.013672 12.2383,13.79883 L7.6582,1.6113 C7.43359,1.0059 7.0332,0.7129 6.4082,0.7129 C5.80273,0.7129 5.39258,1.0059 5.17773,1.6016 L0.59766,13.80859 C0.51953,14.023438 0.49023,14.169922 0.49023,14.335938 C0.49023,14.824219 0.80273,15.126953 1.31055,15.126953 Z M4.00586,9.46289 L6.37891,2.8906 L6.42773,2.8906 L8.8008,9.46289 L4.00586,9.46289 Z" id="Shape"></path>
                </g>
                <line x1="792.836" y1="1919" x2="792.836" y2="1933" id="Path" stroke="#00AEEF" stroke-width="0.5"></line>
                <text id="Margins" fill="#000000" fill-rule="nonzero" font-family="Helvetica-Bold, Helvetica" font-size="13" font-weight="bold">
                    <tspan x="776" y="1953">Margins</tspan>
                </text>
                <text id="Leading-and-trailing-margins-on-the-left-and-right-side-of-each-symbol" fill="#000000" fill-rule="nonzero" font-family="Helvetica" font-size="13" font-weight="normal">
                    <tspan x="776" y="1971">Leading and trailing margins on the left and right side of each symbol</tspan>
                </text>
                <text id="can-be-adjusted-by-modifying-the-x-location-of-the-margin-guidelines." fill="#000000" fill-rule="nonzero" font-family="Helvetica" font-size="13" font-weight="normal">
                    <tspan x="776" y="1989">can be adjusted by modifying the x-location of the margin guidelines.</tspan>
                </text>
                <text id="Modifications-are-automatically-applied-proportionally-to-all" fill="#000000" fill-rule="nonzero" font-family="Helvetica" font-size="13" font-weight="normal">
                    <tspan x="776" y="2007">Modifications are automatically applied proportionally to all</tspan>
                </text>
                <text id="scales-and-weights." fill="#000000" fill-rule="nonzero" font-family="Helvetica" font-size="13" font-weight="normal">
                    <tspan x="776" y="2025">scales and weights.</tspan>
                </text>
                <g id="Group" transform="translate(1291.000000, 1914.000000)" fill="#000000" fill-rule="nonzero">
                    <path d="M0.8418,20.86523 L2.54102,22.57422 C3.40039,23.44336 4.38672,23.38477 5.31445,22.35938 L15.4902,11.14844 C15.7539,11.23633 16.0273,11.2168 16.3398,11.1582 L17.4043,10.96289 L18.0684,11.63672 L18.0293,12.19336 C17.9902,12.69141 18.1172,13.07227 18.6055,13.55078 L19.3672,14.29297 C19.8457,14.77148 20.4609,14.80078 20.9297,14.33203 L23.8398,11.41211 C24.3086,10.94336 24.2891,10.34766 23.8105,9.86914 L23.0391,9.10742 C22.5605,8.6289 22.1895,8.4727 21.7109,8.5117 L21.1348,8.5605 L20.4902,7.9258 L20.7344,6.8027 C20.8613,6.2363 20.7051,5.7969 20.1191,5.2109 L17.9219,3.0234 C14.582,-0.2969 10.1484,-0.2188 7.25781,2.6719 C6.83789,3.082 6.80859,3.6582 7.04297,4.0488 C7.27734,4.4102 7.73633,4.6445 8.3809,4.4785 C9.8457,4.1367 11.3691,4.0781 12.7949,5.0156 L12.209,6.4707 C12.0137,6.9492 11.9844,7.3496 12.1113,7.7109 L1.04688,18.101562 C0.06055,19.0195312 -0.01758,19.996094 0.8418,20.86523 Z M8.752,3.043 C11.1836,1.2656 14.4746,1.5684 16.7012,3.7949 L19.1328,6.207 C19.3672,6.4414 19.4062,6.627 19.3379,6.9688 L19.0156,8.4531 L20.5195,9.9375 L21.5059,9.87891 C21.7598,9.86914 21.8379,9.88867 22.0332,10.08398 L22.6094,10.66016 L20.168,13.10156 L19.5918,12.52539 C19.3965,12.33008 19.3672,12.25195 19.377,11.98828 L19.4453,11.01172 L17.9512,9.52734 L16.4277,9.78125 C16.1055,9.84961 15.959,9.82031 15.7148,9.58594 L13.7129,7.584 C13.459,7.3496 13.4297,7.1836 13.5859,6.8125 L14.4648,4.7227 C12.9023,3.2676 10.8711,2.6426 8.8398,3.2383 C8.6836,3.2773 8.625,3.1504 8.752,3.043 Z M3.27344,21.3047 L2.10156,20.14258 C1.63281,19.683594 1.74023,19.341797 2.14062,18.9804688 L12.9512,8.8047 L14.416,10.28906 L4.42578,21.27539 C4.07422,21.67578 3.74219,21.77344 3.27344,21.3047 Z" id="Shape"></path>
                </g>
                <text id="Exporting" fill="#000000" fill-rule="nonzero" font-family="Helvetica-Bold, Helvetica" font-size="13" font-weight="bold">
                    <tspan x="1289" y="1953">Exporting</tspan>
                </text>
                <text id="Symbols-should-be-outlined-when-exporting-to-ensure-the" fill="#000000" fill-rule="nonzero" font-family="Helvetica" font-size="13" font-weight="normal">
                    <tspan x="1289" y="1971">Symbols should be outlined when exporting to ensure the</tspan>
                </text>
                <text id="design-is-preserved-when-submitting-to-Xcode." fill="#000000" fill-rule="nonzero" font-family="Helvetica" font-size="13" font-weight="normal">
                    <tspan x="1289" y="1989">design is preserved when submitting to Xcode.</tspan>
                </text>
                <text id="template-version" fill="#000000" fill-rule="nonzero" font-family="Helvetica" font-size="13" font-weight="normal">
                    <tspan x="2952" y="1933">Template v.2.0</tspan>
                </text>
                <text id="Requires-Xcode-12-or-greater" fill="#000000" fill-rule="nonzero" font-family="Helvetica" font-size="13" font-weight="normal">
                    <tspan x="2865" y="1951">Requires Xcode 12 or greater</tspan>
                </text>
                <text id="Generated-from-text.badge.plus" fill="#000000" fill-rule="nonzero" font-family="Helvetica" font-size="13" font-weight="normal">
                    <tspan x="2853" y="1969">Generated from text.badge.plus</tspan>
                </text>
                <text id="Typeset-at-100-points" fill="#000000" fill-rule="nonzero" font-family="Helvetica" font-size="13" font-weight="normal">
                    <tspan x="2912" y="1987">Typeset at 100 points</tspan>
                </text>
                <text id="Small" fill="#000000" fill-rule="nonzero" font-family="Helvetica" font-size="13" font-weight="normal">
                    <tspan x="263" y="726">Small</tspan>
                </text>
                <text id="Medium" fill="#000000" fill-rule="nonzero" font-family="Helvetica" font-size="13" font-weight="normal">
                    <tspan x="263" y="1156">Medium</tspan>
                </text>
                <text id="Large" fill="#000000" fill-rule="nonzero" font-family="Helvetica" font-size="13" font-weight="normal">
                    <tspan x="263" y="1586">Large</tspan>
                </text>
            </g>
            <g id="Guides" transform="translate(263.000000, 625.000000)">
                <g id="H-reference" transform="translate(76.000000, 0.000000)" fill="#27AAE1" fill-rule="nonzero">
                    <path d="M0.976562,71 L3.66211,71 L12.9883,46.5371 L45.7031,46.5371 L55.0781,71 L57.7148,71 L30.6152,0.541 L28.125,0.541 L0.976562,71 Z M29.2969,3.8613 L29.3945,3.8613 L44.873,44.291 L13.8672,44.291 L29.2969,3.8613 Z" id="Shape"></path>
                </g>
                <line x1="0" y1="71" x2="2773" y2="71" id="Baseline-S" stroke="#27AAE1" stroke-width="0.5"></line>
                <line x1="0" y1="0.541" x2="2773" y2="0.541" id="Capline-S" stroke="#27AAE1" stroke-width="0.5"></line>
                <g id="H-reference" transform="translate(76.000000, 430.000000)" fill="#27AAE1" fill-rule="nonzero">
                    <path d="M0.976562,71 L3.66211,71 L12.9883,46.5371 L45.7031,46.5371 L55.0781,71 L57.7148,71 L30.6152,0.541 L28.125,0.541 L0.976562,71 Z M29.2969,3.8613 L29.3945,3.8613 L44.873,44.291 L13.8672,44.291 L29.2969,3.8613 Z" id="Shape"></path>
                </g>
                <line x1="0" y1="501" x2="2773" y2="501" id="Baseline-M" stroke="#27AAE1" stroke-width="0.5"></line>
                <line x1="0" y1="430.54" x2="2773" y2="430.54" id="Capline-M" stroke="#27AAE1" stroke-width="0.5"></line>
                <g id="H-reference" transform="translate(76.000000, 860.000000)" fill="#27AAE1" fill-rule="nonzero">
                    <path d="M0.976562,71 L3.66211,71 L12.9883,46.5371 L45.7031,46.5371 L55.0781,71 L57.7148,71 L30.6152,0.541 L28.125,0.541 L0.976562,71 Z M29.2969,3.8613 L29.3945,3.8613 L44.873,44.291 L13.8672,44.291 L29.2969,3.8613 Z" id="Shape"></path>
                </g>
                <line x1="0" y1="931" x2="2773" y2="931" id="Baseline-L" stroke="#27AAE1" stroke-width="0.5"></line>
                <line x1="0" y1="860.54" x2="2773" y2="860.54" id="Capline-L" stroke="#27AAE1" stroke-width="0.5"></line>
                <line x1="1125.2" y1="405.79" x2="1125.2" y2="525.12" id="left-margin" stroke="#00AEEF" stroke-width="0.5"></line>
                <line x1="1248.49" y1="405.79" x2="1248.49" y2="525.12" id="right-margin" stroke="#00AEEF" stroke-width="0.5"></line>
            </g>
            <g id="Symbols" transform="translate(499.000000, 617.000000)" fill="#00B4FF">
                <g id="Bold-L" transform="translate(1773.430000, 832.000000)">
                    <path d="M67.5510167,0 C72.362367,0 75.6657697,0.820987654 77.4612248,2.46296296 C77.5116277,2.86676652 77.5375926,3.27816135 77.5375926,3.6956206 C77.5375926,7.34160711 75.5570325,10.525009 72.6130948,12.2286438 L72.6129388,22.4653118 C81.1912984,23.4623233 89.0226322,26.908161 95.3895609,32.0854456 L99.7848731,27.6893259 C98.9072426,24.4026397 99.7576579,20.7505085 102.336119,18.1720474 C102.631307,17.8768591 102.940567,17.604319 103.26174,17.3544269 C105.814334,17.5849174 108.667209,19.2767404 111.820364,22.4298959 C115.222503,25.8320343 116.977835,28.7484187 117.086362,31.1790491 C116.83647,31.5002216 116.56393,31.8094816 116.268742,32.1046699 C113.69064,34.6827716 110.039167,35.5333092 106.752837,34.6562827 L102.300734,39.1083699 C107.156864,45.280199 110.409286,52.7731963 111.429899,60.95926 L121.340644,60.9581363 C123.044104,58.0135197 126.227885,56.0324074 129.874379,56.0324074 C130.291839,56.0324074 130.703233,56.0583723 131.107037,56.1087752 C132.749012,58.0767133 133.57,61.2902999 133.57,65.7495352 C133.57,70.5608855 132.749012,73.8642882 131.107037,75.6597434 C130.703233,75.7101462 130.291839,75.7361111 129.874379,75.7361111 C126.228393,75.7361111 123.044991,73.755551 121.341356,70.8116133 L111.565813,70.8114496 C110.729508,79.4770352 107.398513,87.4131516 102.299761,93.8928673 L106.751463,98.3440842 C110.038149,97.4664537 113.69028,98.316869 116.268742,100.89533 C116.56393,101.190518 116.83647,101.499778 117.086362,101.820951 C116.855871,104.373545 115.164048,107.22642 112.010893,110.379575 C108.608755,113.781714 105.69237,115.537046 103.26174,115.645573 C102.940567,115.395681 102.631307,115.123141 102.336119,114.827953 C99.7580173,112.249851 98.9074797,108.598378 99.7845063,105.312048 L95.3883256,100.915559 C89.0215512,106.09234 81.1905763,109.537815 72.6126639,110.53472 L72.6118637,120.770644 C75.5564803,122.474104 77.5375926,125.657885 77.5375926,129.304379 C77.5375926,129.721839 77.5116277,130.133233 77.4612248,130.537037 C75.4932867,132.179012 72.2797001,133 67.8204648,133 C63.0091145,133 59.7057118,132.179012 57.9102566,130.537037 C57.8598538,130.133233 57.8338889,129.721839 57.8338889,129.304379 C57.8338889,125.658393 59.814449,122.474991 62.7583867,120.771356 L62.7588398,110.589188 C54.2371714,109.695005 46.4343997,106.386676 40.0468594,101.360538 L35.2259158,106.181463 C36.1035463,109.468149 35.253131,113.12028 32.6746699,115.698742 C32.3794816,115.99393 32.0702216,116.26647 31.7490491,116.516362 C29.1964549,116.285871 26.34358,114.594048 23.1904245,111.440893 C19.7882861,108.038755 18.0329536,105.12237 17.9244269,102.69174 C18.174319,102.370567 18.4468591,102.061307 18.7420474,101.766119 C21.3201491,99.1880173 24.9716217,98.3374797 28.2579517,99.2145063 L33.0238856,94.4488811 C27.6741544,87.8694005 24.1733437,79.7262506 23.3130337,70.8110117 L12.7993561,70.8103822 C11.0958965,73.7549988 7.91211533,75.7361111 4.2656206,75.7361111 C3.84816135,75.7361111 3.43676652,75.7101462 3.03296296,75.6597434 C1.39098765,73.6918053 0.57,70.4782186 0.57,66.0189833 C0.57,61.207633 1.39098765,57.9042303 3.03296296,56.1087752 C3.43676652,56.0583723 3.84816135,56.0324074 4.2656206,56.0324074 C7.91160711,56.0324074 11.095009,58.0129675 12.7986438,60.9569052 L23.4492568,60.9571214 C24.5011495,52.5235062 27.9218869,44.8255884 33.0246138,38.5502233 L28.2593259,33.7851269 C24.9726397,34.6627574 21.3205085,33.8123421 18.7420474,31.233881 C18.4468591,30.9386927 18.174319,30.6294327 17.9244269,30.3082602 C18.1549174,27.755666 19.8467404,24.9027911 22.9998959,21.7496356 C26.4020343,18.3474972 29.3184187,16.5921647 31.7490491,16.483638 C32.0702216,16.73353 32.3794816,17.0060702 32.6746699,17.3012585 C35.2527716,19.8793602 36.1033092,23.5308328 35.2262827,26.8171628 L40.0468594,31.6394618 C46.4347068,26.6130819 54.2379218,23.3046771 62.760069,22.4106828 L62.7596178,12.2293561 C59.8150012,10.5258965 57.8338889,7.34211533 57.8338889,3.6956206 C57.8338889,3.27816135 57.8598538,2.86676652 57.9102566,2.46296296 C59.8781947,0.820987654 63.0917814,0 67.5510167,0 Z M66.07,79 C61.9278644,79 58.57,82.3578644 58.57,86.5 C58.57,90.6421356 61.9278644,94 66.07,94 C70.2121356,94 73.57,90.6421356 73.57,86.5 C73.57,82.3578644 70.2121356,79 66.07,79 Z M87.57,49 C83.151722,49 79.57,52.581722 79.57,57 C79.57,61.418278 83.151722,65 87.57,65 C91.988278,65 95.57,61.418278 95.57,57 C95.57,52.581722 91.988278,49 87.57,49 Z M54.57,44 C49.0471525,44 44.57,48.4771525 44.57,54 C44.57,59.5228475 49.0471525,64 54.57,64 C60.0928475,64 64.57,59.5228475 64.57,54 C64.57,48.4771525 60.0928475,44 54.57,44 Z" id="Shape"></path>
                </g>
                <g id="Semibold-L" transform="translate(1478.070000, 834.000000)">
                    <path d="M66.4001667,0 C71.1029903,0 74.3318801,0.802469136 76.0868363,2.40740741 C76.1361023,2.80210262 76.1614815,3.20421786 76.1614815,3.61226074 C76.1614815,7.17600695 74.2255957,10.2876028 71.3480626,11.9528097 L71.3479101,21.9585754 C79.7327728,22.933098 87.38746,26.30121 93.6107738,31.3617138 L97.9069436,27.0647547 C97.0491093,23.8522042 97.8803423,20.2824519 100.400643,17.7621516 C100.689173,17.4736217 100.991457,17.2072291 101.305385,16.9629737 C103.800402,17.1882652 106.588926,18.8419267 109.670958,21.9239584 C112.996356,25.2493569 114.712095,28.0999582 114.818173,30.4757623 C114.573918,30.7896903 114.307525,31.0919745 114.018995,31.3805044 C111.499046,33.9004535 107.929938,34.731806 104.717736,33.874562 L100.366056,38.2262262 C105.112649,44.2588412 108.291708,51.5828235 109.2893,59.5842391 L118.976494,59.5831408 C120.64153,56.7049441 123.753496,54.7685185 127.317739,54.7685185 C127.725782,54.7685185 128.127897,54.7938977 128.522593,54.8431637 C130.127531,56.7667122 130.93,59.907812 130.93,64.266463 C130.93,68.9692866 130.127531,72.1981764 128.522593,73.9531326 C128.127897,74.0023986 127.725782,74.0277778 127.317739,74.0277778 C123.753993,74.0277778 120.642397,72.091892 118.97719,69.2143589 L109.422148,69.2141989 C108.604707,77.6843201 105.348847,85.4414263 100.365104,91.7749831 L104.716392,96.1257966 C107.928943,95.2679622 111.498695,96.0991952 114.018995,98.6194956 C114.307525,98.9080255 114.573918,99.2103097 114.818173,99.5242377 C114.592882,102.019255 112.93922,104.807779 109.857189,107.889811 C106.53179,111.215209 103.681189,112.930948 101.305385,113.037026 C100.991457,112.792771 100.689173,112.526378 100.400643,112.237848 C97.8806936,109.717899 97.049341,106.148791 97.9065851,102.936589 L93.6095664,98.639268 C87.3864035,103.69928 79.732067,107.067037 71.3476414,108.041456 L71.3468592,118.046494 C74.2250559,119.71153 76.1614815,122.823496 76.1614815,126.387739 C76.1614815,126.795782 76.1361023,127.197897 76.0868363,127.592593 C74.1632878,129.197531 71.022188,130 66.663537,130 C61.9607134,130 58.7318236,129.197531 56.9768674,127.592593 C56.9276014,127.197897 56.9022222,126.795782 56.9022222,126.387739 C56.9022222,122.823993 58.838108,119.712397 61.7156411,118.04719 L61.716084,108.094695 C53.3866337,107.220681 45.7598644,103.986977 39.5164039,99.0742102 L34.8042034,103.786392 C35.6620378,106.998943 34.8308048,110.568695 32.3105044,113.088995 C32.0219745,113.377525 31.7196903,113.643918 31.4057623,113.888173 C28.9107454,113.662882 26.1222211,112.00922 23.0401894,108.927189 C19.7147909,105.60179 17.9990524,102.751189 17.8929737,100.375385 C18.1372291,100.061457 18.4036217,99.7591726 18.6921516,99.4706427 C21.2121007,96.9506936 24.7812092,96.119341 27.9934114,96.9765851 L32.6518431,92.3184552 C27.4227825,85.8873839 24.0009375,77.9279141 23.1600329,69.2137709 L12.883506,69.2131555 C11.2184703,72.0913522 8.10650371,74.0277778 4.54226074,74.0277778 C4.13421786,74.0277778 3.73210262,74.0023986 3.33740741,73.9531326 C1.73246914,72.0295841 0.93,68.8884843 0.93,64.5298333 C0.93,59.8270097 1.73246914,56.5981199 3.33740741,54.8431637 C3.73210262,54.7938977 4.13421786,54.7685185 4.54226074,54.7685185 C8.10600695,54.7685185 11.2176028,56.7044043 12.8828097,59.5819374 L23.2931834,59.5821487 C24.3213491,51.3387654 27.664927,43.8144849 32.6525548,37.6806694 L27.9947547,33.0230564 C24.7822042,33.8808907 21.2124519,33.0496577 18.6921516,30.5293573 C18.4036217,30.2408274 18.1372291,29.9385432 17.8929737,29.6246153 C18.1182652,27.1295983 19.7719267,24.341074 22.8539584,21.2590423 C26.1793569,17.9336439 29.0299582,16.2179053 31.4057623,16.1118266 C31.7196903,16.356082 32.0219745,16.6224746 32.3105044,16.9110045 C34.8304535,19.4309536 35.661806,23.0000621 34.804562,26.2122644 L39.5164039,30.9257898 C45.7601646,26.0127868 53.3873671,22.7790077 61.7172855,21.9051787 L61.7168445,11.953506 C58.8386478,10.2884703 56.9022222,7.17650371 56.9022222,3.61226074 C56.9022222,3.20421786 56.9276014,2.80210262 56.9768674,2.40740741 C58.9004159,0.802469136 62.0415157,0 66.4001667,0 Z M64.93,78 C61.0640068,78 57.93,81.1340068 57.93,85 C57.93,88.8659932 61.0640068,92 64.93,92 C68.7959932,92 71.93,88.8659932 71.93,85 C71.93,81.1340068 68.7959932,78 64.93,78 Z M85.93,47 C81.511722,47 77.93,50.581722 77.93,55 C77.93,59.418278 81.511722,63 85.93,63 C90.348278,63 93.93,59.418278 93.93,55 C93.93,50.581722 90.348278,47 85.93,47 Z M52.93,42 C47.4071525,42 42.93,46.4771525 42.93,52 C42.93,57.5228475 47.4071525,62 52.93,62 C58.4528475,62 62.93,57.5228475 62.93,52 C62.93,46.4771525 58.4528475,42 52.93,42 Z" id="Shape"></path>
                </g>
                <g id="Medium-L" transform="translate(1182.380000, 834.000000)">
                    <path d="M65.58655,0 C70.253198,0 73.4572503,0.796296296 75.1987068,2.38888889 C75.2475938,2.78054798 75.2727778,3.17957003 75.2727778,3.58447412 C75.2727778,7.12080689 73.3517834,10.2084674 70.4963852,11.860865 L70.4962338,21.7896633 C78.8165977,22.7566896 86.4124026,26.098893 92.5878448,31.1204698 L96.8509672,26.8565643 C95.9997315,23.6687257 96.8245704,20.1264331 99.3254839,17.6255196 C99.6117943,17.3392092 99.9117533,17.0748658 100.223266,16.8324893 C102.699091,17.0560477 105.466165,18.6969888 108.524489,21.7553126 C111.824307,25.055131 113.526848,27.8838046 113.63211,30.2413334 C113.389734,30.5528465 113.125391,30.8528055 112.83908,31.1391159 C110.338515,33.6396808 106.796861,34.4646383 103.609368,33.6139884 L99.2911631,37.9321783 C104.001244,43.9183885 107.155849,51.1860325 108.145766,59.1258988 L117.758444,59.1248089 C119.410672,56.2687522 122.4987,54.3472222 126.035526,54.3472222 C126.44043,54.3472222 126.839452,54.3724062 127.231111,54.4212932 C128.823704,56.3300452 129.62,59.4469827 129.62,63.7721056 C129.62,68.4387536 128.823704,71.6428058 127.231111,73.3842624 C126.839452,73.4331494 126.44043,73.4583333 126.035526,73.4583333 C122.499193,73.4583333 119.411533,71.5373389 117.759135,68.6819408 L108.277593,68.681782 C107.46644,77.0867484 104.235626,84.7841846 99.2902189,91.0690217 L103.608036,95.3863674 C106.795874,94.5351318 110.338167,95.3599707 112.83908,97.8608841 C113.125391,98.1471945 113.389734,98.4471535 113.63211,98.7586666 C113.408552,101.234491 111.767611,104.001565 108.709287,107.059889 C105.409469,110.359707 102.580795,112.062248 100.223266,112.167511 C99.9117533,111.925134 99.6117943,111.660791 99.3254839,111.37448 C96.824919,108.873915 95.9999615,105.332262 96.8506113,102.144769 L92.5866466,97.8805044 C86.4113542,102.901593 78.8158973,106.243444 70.4959672,107.210368 L70.4951911,117.138444 C73.3512478,118.790672 75.2727778,121.8787 75.2727778,125.415526 C75.2727778,125.82043 75.2475938,126.219452 75.1987068,126.611111 C73.2899548,128.203704 70.1730173,129 65.8478944,129 C61.1812464,129 57.9771942,128.203704 56.2357376,126.611111 C56.1868506,126.219452 56.1616667,125.82043 56.1616667,125.415526 C56.1616667,121.879193 58.0826611,118.791533 60.9380592,117.139135 L60.9384987,107.263198 C52.6731212,106.395907 45.1050193,103.187077 38.9095854,98.3121009 L34.2336326,102.988036 C35.0848682,106.175874 34.2600293,109.718167 31.7591159,112.21908 C31.4728055,112.505391 31.1728465,112.769734 30.8613334,113.01211 C28.3855089,112.788552 25.6184347,111.147611 22.560111,108.089287 C19.2602925,104.789469 17.557752,101.960795 17.4524893,99.6032664 C17.6948658,99.2917533 17.9592092,98.9917943 18.2455196,98.7054839 C20.7460845,96.204919 24.2877383,95.3799615 27.4752313,96.2306113 L32.0978289,91.6083133 C26.9089919,85.2267117 23.5134687,77.3284686 22.6790327,68.6813572 L12.4815559,68.6807466 C10.8293282,71.5368034 7.74129983,73.4583333 4.20447412,73.4583333 C3.79957003,73.4583333 3.40054798,73.4331494 3.00888889,73.3842624 C1.4162963,71.4755104 0.62,68.3585729 0.62,64.03345 C0.62,59.366802 1.4162963,56.1627497 3.00888889,54.4212932 C3.40054798,54.3724062 3.79957003,54.3472222 4.20447412,54.3472222 C7.74080689,54.3472222 10.8284674,56.2682166 12.480865,59.1236148 L22.8111589,59.1238245 C23.8314157,50.9438519 27.1492737,43.4774504 32.0985352,37.3908181 L27.4765643,32.7690328 C24.2887257,33.6202685 20.7464331,32.7954296 18.2455196,30.2945161 C17.9592092,30.0082057 17.6948658,29.7082467 17.4524893,29.3967336 C17.6760477,26.9209091 19.3169888,24.153835 22.3753126,21.0955112 C25.675131,17.7956928 28.5038046,16.0931522 30.8613334,15.9878895 C31.1728465,16.230266 31.4728055,16.4946094 31.7591159,16.7809199 C34.2596808,19.2814847 35.0846383,22.8231386 34.2339884,26.0106316 L38.9095854,30.6878991 C45.1053172,25.8126884 52.6738489,22.6037846 60.939691,21.7366773 L60.9392534,11.8615559 C58.0831966,10.2093282 56.1616667,7.12129983 56.1616667,3.58447412 C56.1616667,3.17957003 56.1868506,2.78054798 56.2357376,2.38888889 C58.1444896,0.796296296 61.2614271,0 65.58655,0 Z M64.62,77 C60.7540068,77 57.62,80.1340068 57.62,84 C57.62,87.8659932 60.7540068,91 64.62,91 C68.4859932,91 71.62,87.8659932 71.62,84 C71.62,80.1340068 68.4859932,77 64.62,77 Z M84.62,47 C80.201722,47 76.62,50.581722 76.62,55 C76.62,59.418278 80.201722,63 84.62,63 C89.038278,63 92.62,59.418278 92.62,55 C92.62,50.581722 89.038278,47 84.62,47 Z M52.62,42 C47.0971525,42 42.62,46.4771525 42.62,52 C42.62,57.5228475 47.0971525,62 52.62,62 C58.1428475,62 62.62,57.5228475 62.62,52 C62.62,46.4771525 58.1428475,42 52.62,42 Z" id="Shape"></path>
                </g>
                <g id="Regular-L" transform="translate(883.990000, 835.000000)">
                    <path d="M63.4657,0 C68.0238213,0 71.1533607,0.777777778 72.8543183,2.33333333 C72.9020684,2.71588408 72.9266667,3.10562655 72.9266667,3.50111425 C72.9266667,6.95520673 71.0503466,9.97106117 68.261353,11.585031 L68.2612051,21.282927 C76.3880721,22.2274642 83.8072305,25.491942 89.8390577,30.396738 L94.0030377,26.231993 C93.1715982,23.1182902 93.9772548,19.6583765 96.4200075,17.2156238 C96.6996596,16.9359718 96.9926427,16.6777759 97.2969114,16.441036 C99.7151586,16.6593955 102.417882,18.2621752 105.405082,21.2493751 C108.628161,24.4724536 110.291107,27.2353441 110.393922,29.5380465 C110.157182,29.8423152 109.898986,30.1352984 109.619334,30.4149504 C107.176922,32.8573626 103.717632,33.6631351 100.604267,32.8322678 L96.3864849,37.0500346 C100.987029,42.8970307 104.068271,49.9956597 105.035167,57.7508779 L114.424294,57.7498134 C116.038098,54.9601766 119.054312,53.0833333 122.508886,53.0833333 C122.904373,53.0833333 123.294116,53.1079316 123.676667,53.1556817 C125.232222,55.0200441 126.01,58.0644947 126.01,62.2890333 C126.01,66.8471547 125.232222,69.9766941 123.676667,71.6776516 C123.294116,71.7254017 122.904373,71.75 122.508886,71.75 C119.054793,71.75 116.038939,69.8736799 114.424969,67.0846863 L105.163928,67.0845312 C104.371639,75.2940333 101.21596,82.8124594 96.3855626,88.9511374 L100.602965,93.1680798 C103.716668,92.3366403 107.176581,93.1422969 109.619334,95.5850496 C109.898986,95.8647016 110.157182,96.1576848 110.393922,96.4619535 C110.175562,98.8802006 108.572783,101.582924 105.585583,104.570124 C102.362504,107.793203 99.5996138,109.456149 97.2969114,109.558964 C96.9926427,109.322224 96.6996596,109.064028 96.4200075,108.784376 C93.9775953,106.341964 93.1718228,102.882674 94.0026901,99.7693089 L89.8378874,95.6042136 C83.8062064,100.508533 76.3873881,103.772667 68.2609447,104.717103 L68.2601866,114.414294 C71.0498234,116.028098 72.9266667,119.044312 72.9266667,122.498886 C72.9266667,122.894373 72.9020684,123.284116 72.8543183,123.666667 C70.9899559,125.222222 67.9455053,126 63.7209667,126 C59.1628453,126 56.0333059,125.222222 54.3323484,123.666667 C54.2845983,123.284116 54.26,122.894373 54.26,122.498886 C54.26,119.044793 56.1363201,116.028939 58.9253137,114.414969 L58.9257429,104.768705 C50.8525835,103.921583 43.4604839,100.787378 37.4091299,96.025773 L32.8419202,100.592965 C33.6733597,103.706668 32.8677031,107.166581 30.4249504,109.609334 C30.1452984,109.888986 29.8523152,110.147182 29.5480465,110.383922 C27.1297994,110.165562 24.4270758,108.562783 21.4398759,105.575583 C18.2167974,102.352504 16.5538508,99.5896138 16.451036,97.2869114 C16.6877759,96.9826427 16.9459718,96.6896596 17.2256238,96.4100075 C19.668036,93.9675953 23.1273258,93.1618228 26.2406911,93.9926901 L30.7557864,89.4778874 C25.68762,83.2446952 22.3710625,75.5301321 21.5560319,67.0841164 L11.5957058,67.08352 C9.98190194,69.8731568 6.96568821,71.75 3.51111425,71.75 C3.11562655,71.75 2.72588408,71.7254017 2.34333333,71.6776516 C0.787777778,69.8132892 0.01,66.7688386 0.01,62.5443 C0.01,57.9861787 0.787777778,54.8566393 2.34333333,53.1556817 C2.72588408,53.1079316 3.11562655,53.0833333 3.51111425,53.0833333 C6.96520673,53.0833333 9.98106117,54.9596534 11.595031,57.748647 L21.6850854,57.7488518 C22.6816153,49.7591111 25.9223139,42.4663469 30.7564762,36.5212642 L26.241993,32.0069623 C23.1282902,32.8384018 19.6683765,32.0327452 17.2256238,29.5899925 C16.9459718,29.3103404 16.6877759,29.0173573 16.451036,28.7130886 C16.6693955,26.2948414 18.2721752,23.5921179 21.2593751,20.604918 C24.4824536,17.3818395 27.2453441,15.7188929 29.5480465,15.6160781 C29.8523152,15.8528179 30.1452984,16.1110139 30.4249504,16.3906659 C32.8673626,18.8330781 33.6731351,22.2923679 32.8422678,25.4057332 L37.4091299,29.974227 C43.4607749,25.2123933 50.8532943,22.0781152 58.9269075,21.2311732 L58.92648,11.5857058 C56.1368432,9.97190194 54.26,6.95568821 54.26,3.50111425 C54.26,3.10562655 54.2845983,2.71588408 54.3323484,2.33333333 C56.1967108,0.777777778 59.2411614,0 63.4657,0 Z M62.01,75 C58.1440068,75 55.01,78.1340068 55.01,82 C55.01,85.8659932 58.1440068,89 62.01,89 C65.8759932,89 69.01,85.8659932 69.01,82 C69.01,78.1340068 65.8759932,75 62.01,75 Z M82.51,46 C78.3678644,46 75.01,49.3578644 75.01,53.5 C75.01,57.6421356 78.3678644,61 82.51,61 C86.6521356,61 90.01,57.6421356 90.01,53.5 C90.01,49.3578644 86.6521356,46 82.51,46 Z M50.51,41 C45.2632949,41 41.01,45.2532949 41.01,50.5 C41.01,55.7467051 45.2632949,60 50.51,60 C55.7567051,60 60.01,55.7467051 60.01,50.5 C60.01,45.2532949 55.7567051,41 50.51,41 Z" id="Shape"></path>
                </g>
                <g id="Bold-M" transform="translate(1787.820000, 417.000000)">
                    <path d="M53.5633667,0 C57.3979767,0 60.0307638,0.654320988 61.4617281,1.96296296 C61.5018988,2.28479137 61.5225926,2.61266995 61.5225926,2.94538183 C61.5225926,5.85120567 59.9441011,8.38835305 57.5978049,9.74613715 L57.5976805,17.9046846 C64.4345686,18.6992953 70.6760828,21.445602 75.7504771,25.5718589 L79.2535079,22.0681846 C78.554043,19.4487204 79.2318176,16.5379993 81.2868317,14.4829851 C81.5220945,14.2477223 81.7685724,14.0305098 82.0245445,13.8313478 C84.0589429,14.015047 86.3326627,15.3634172 88.8457039,17.8764584 C91.5571827,20.5879371 92.9561695,22.9122736 93.0426644,24.8494677 C92.8435024,25.1054398 92.6262899,25.3519177 92.3910271,25.5871805 C90.3362994,27.6419082 87.4261032,28.3197803 84.8069229,27.6207967 L81.2586301,31.1690768 C85.1289291,36.0879782 87.7210851,42.0598407 88.5345058,48.5840719 L96.4332951,48.5831763 C97.7909396,46.236339 100.328389,44.6574074 103.234618,44.6574074 C103.56733,44.6574074 103.895209,44.6781012 104.217037,44.7182719 C105.525679,46.2867038 106.18,48.8479082 106.18,52.4018852 C106.18,56.2364952 105.525679,58.8692823 104.217037,60.3002466 C103.895209,60.3404173 103.56733,60.3611111 103.234618,60.3611111 C100.328794,60.3611111 97.7916469,58.7826196 96.4338628,56.4363234 L88.6428284,56.4361929 C87.9762994,63.3425995 85.3215218,69.6676245 81.2578543,74.8319093 L84.8058276,78.3794957 C87.4252919,77.6800307 90.3360129,78.3578054 92.3910271,80.4128195 C92.6262899,80.6480823 92.8435024,80.8945602 93.0426644,81.1505323 C92.8589652,83.1849307 91.510595,85.4586505 88.9975538,87.9716917 C86.2860751,90.6831705 83.9617386,92.0821573 82.0245445,92.1686522 C81.7685724,91.9694902 81.5220945,91.7522777 81.2868317,91.5170149 C79.232104,89.4622871 78.5542319,86.552091 79.2532155,83.9329107 L75.7494926,80.4289416 C70.6752213,84.5547972 64.4339931,87.3008148 57.5974614,88.0953409 L57.5968237,96.2532951 C59.943661,97.6109396 61.5225926,100.148389 61.5225926,103.054618 C61.5225926,103.38733 61.5018988,103.715209 61.4617281,104.037037 C59.8932962,105.345679 57.3320918,106 53.7781148,106 C49.9435048,106 47.3107177,105.345679 45.8797534,104.037037 C45.8395827,103.715209 45.8188889,103.38733 45.8188889,103.054618 C45.8188889,100.148794 47.3973804,97.6116469 49.7436766,96.2538628 L49.7440377,88.1387515 C42.9523321,87.426094 36.7335817,84.7893813 31.6427601,80.7835868 L27.8005043,84.6258276 C28.4999693,87.2452919 27.8221946,90.1560129 25.7671805,92.2110271 C25.5319177,92.4462899 25.2854398,92.6635024 25.0294677,92.8626644 C22.9950693,92.6789652 20.7213495,91.330595 18.2083083,88.8175538 C15.4968295,86.1060751 14.0978427,83.7817386 14.0113478,81.8445445 C14.2105098,81.5885724 14.4277223,81.3420945 14.6629851,81.1068317 C16.7177129,79.052104 19.627909,78.3742319 22.2470893,79.0732155 L26.0455028,75.2750481 C21.7818073,70.0312515 18.9916875,63.5412223 18.3060269,56.4358439 L9.92670488,56.4353422 C8.56906036,58.7821795 6.03161071,60.3611111 3.12538183,60.3611111 C2.79266995,60.3611111 2.46479137,60.3404173 2.14296296,60.3002466 C0.834320988,58.7318147 0.18,56.1706103 0.18,52.6166333 C0.18,48.7820233 0.834320988,46.1492362 2.14296296,44.7182719 C2.46479137,44.6781012 2.79266995,44.6574074 3.12538183,44.6574074 C6.03120567,44.6574074 8.56835305,46.2358989 9.92613715,48.5821951 L18.4145957,48.5823674 C19.2529462,41.8608395 21.9792482,35.7256569 26.0460832,30.7242382 L22.2481846,26.9264921 C19.6287204,27.625957 16.7179993,26.9481824 14.6629851,24.8931683 C14.4277223,24.6579055 14.2105098,24.4114276 14.0113478,24.1554555 C14.195047,22.1210571 15.5434172,19.8473373 18.0564584,17.3342961 C20.7679371,14.6228173 23.0922736,13.2238305 25.0294677,13.1373356 C25.2854398,13.3364976 25.5319177,13.5537101 25.7671805,13.7889729 C27.8219082,15.8437006 28.4997803,18.7538968 27.8007967,21.3730771 L31.6427601,25.2164132 C36.7338265,21.2104261 42.9529301,18.5736524 49.7450174,17.8611457 L49.7446578,9.74670488 C47.3978205,8.38906036 45.8188889,5.85161071 45.8188889,2.94538183 C45.8188889,2.61266995 45.8395827,2.28479137 45.8797534,1.96296296 C47.4481853,0.654320988 50.0093897,0 53.5633667,0 Z M52.18,63 C48.8662915,63 46.18,65.6862915 46.18,69 C46.18,72.3137085 48.8662915,75 52.18,75 C55.4937085,75 58.18,72.3137085 58.18,69 C58.18,65.6862915 55.4937085,63 52.18,63 Z M69.68,39 C66.0901491,39 63.18,41.9101491 63.18,45.5 C63.18,49.0898509 66.0901491,52 69.68,52 C73.2698509,52 76.18,49.0898509 76.18,45.5 C76.18,41.9101491 73.2698509,39 69.68,39 Z M43.18,35 C38.761722,35 35.18,38.581722 35.18,43 C35.18,47.418278 38.761722,51 43.18,51 C47.598278,51 51.18,47.418278 51.18,43 C51.18,38.581722 47.598278,35 43.18,35 Z" id="Shape"></path>
                </g>
                <g id="Semibold-M" transform="translate(1492.380000, 419.000000)">
                    <path d="M51.9889,0 C55.6788077,0 58.2122444,0.62962963 59.58921,1.88888889 C59.6278649,2.19857282 59.6477778,2.51407863 59.6477778,2.83423535 C59.6477778,5.63040545 58.128852,8.07181143 55.8710953,9.37835839 L55.8709756,17.2290361 C62.4498679,17.9936615 68.4558532,20.636334 73.338761,24.6068831 L76.7096019,21.2354229 C76.0365319,18.7148064 76.6887301,15.9139238 78.6661966,13.9364574 C78.8925815,13.7100724 79.1297584,13.5010566 79.3760711,13.3094101 C81.3336998,13.4861773 83.5216189,14.7836656 85.9398283,17.2018751 C88.5489871,19.8110338 89.895182,22.0476595 89.9784129,23.911752 C89.7867664,24.1580647 89.5777507,24.3952415 89.3513657,24.6216265 C87.3741749,26.5988174 84.5737974,27.2511093 82.0534541,26.5785025 L78.6390592,29.9928852 C82.3633091,34.7261677 84.8576479,40.4726769 85.6403735,46.7507107 L93.2410953,46.7498489 C94.547508,44.4915715 96.9892048,42.9722222 99.7857647,42.9722222 C100.105921,42.9722222 100.421427,42.9921351 100.731111,43.03079 C101.99037,44.5400357 102.62,47.0045909 102.62,50.4244556 C102.62,54.1143633 101.99037,56.6478 100.731111,58.0247656 C100.421427,58.0634204 100.105921,58.0833333 99.7857647,58.0833333 C96.9895945,58.0833333 94.5481886,56.5644075 93.2416416,54.3066508 L85.7446084,54.3065253 C85.1032315,60.9523127 82.5486341,67.0386576 78.6383126,72.0080636 L82.0524002,75.4217789 C84.5730167,74.7487088 87.3738993,75.400907 89.3513657,77.3783735 C89.5777507,77.6047585 89.7867664,77.8419353 89.9784129,78.088248 C89.8016458,80.0458767 88.5041575,82.2337958 86.085948,84.6520052 C83.4767892,87.261164 81.2401636,88.6073589 79.3760711,88.6905899 C79.1297584,88.4989434 78.8925815,88.2899276 78.6661966,88.0635426 C76.6890057,86.0863518 76.0367137,83.2859743 76.7093206,80.765631 L73.3378136,77.3938872 C68.4550242,81.3640502 62.4493141,84.0064444 55.8707648,84.7709884 L55.8701511,92.6210953 C58.1284285,93.927508 59.6477778,96.3692048 59.6477778,99.1657647 C59.6477778,99.4859214 59.6278649,99.8014272 59.58921,100.111111 C58.0799643,101.37037 55.6154091,102 52.1955444,102 C48.5056367,102 45.9722,101.37037 44.5952344,100.111111 C44.5565796,99.8014272 44.5366667,99.4859214 44.5366667,99.1657647 C44.5366667,96.3695945 46.0555925,93.9281886 48.3133492,92.6216416 L48.3136967,84.8127609 C41.7782818,84.1269961 35.7942013,81.589782 30.8954861,77.7351496 L27.1982211,81.4324002 C27.8712912,83.9530167 27.219093,86.7538993 25.2416265,88.7313657 C25.0152415,88.9577507 24.7780647,89.1667664 24.531752,89.3584129 C22.5741233,89.1816458 20.3862042,87.8841575 17.9679948,85.465948 C15.358836,82.8567892 14.0126411,80.6201636 13.9294101,78.7560711 C14.1210566,78.5097584 14.3300724,78.2725815 14.5564574,78.0461966 C16.5336482,76.0690057 19.3340257,75.4167137 21.854369,76.0893206 L25.5094461,72.4344803 C21.4066448,67.3885628 18.7218125,61.1434403 18.0620258,54.3061894 L9.99890469,54.3057066 C8.69249205,56.5639841 6.25079522,58.0833333 3.45423535,58.0833333 C3.13407863,58.0833333 2.81857282,58.0634204 2.50888889,58.0247656 C1.24962963,56.5155198 0.62,54.0509646 0.62,50.6311 C0.62,46.9411923 1.24962963,44.4077556 2.50888889,43.03079 C2.81857282,42.9921351 3.13407863,42.9722222 3.45423535,42.9722222 C6.25040545,42.9722222 8.69181143,44.491148 9.99835839,46.7489047 L18.1664977,46.7490705 C18.9732124,40.2811852 21.596635,34.3775189 25.5100046,29.5648329 L21.8554229,25.9103981 C19.3348064,26.5834681 16.5339238,25.9312699 14.5564574,23.9538034 C14.3300724,23.7274185 14.1210566,23.4902416 13.9294101,23.2439289 C14.1061773,21.2863002 15.4036656,19.0983811 17.8218751,16.6801717 C20.4310338,14.0710129 22.6676595,12.724818 24.531752,12.6415871 C24.7780647,12.8332336 25.0152415,13.0422493 25.2416265,13.2686343 C27.2188174,15.2458251 27.8711093,18.0462026 27.1985025,20.5665459 L30.8954861,24.2648504 C35.7944368,20.4100327 41.7788573,17.8727599 48.3146394,17.1871402 L48.3142934,9.37890469 C46.0560159,8.07249205 44.5366667,5.63079522 44.5366667,2.83423535 C44.5366667,2.51407863 44.5565796,2.19857282 44.5952344,1.88888889 C46.1044802,0.62962963 48.5690354,0 51.9889,0 Z M51.12,61 C48.0824339,61 45.62,63.4624339 45.62,66.5 C45.62,69.5375661 48.0824339,72 51.12,72 C54.1575661,72 56.62,69.5375661 56.62,66.5 C56.62,63.4624339 54.1575661,61 51.12,61 Z M67.62,38 C64.3062915,38 61.62,40.6862915 61.62,44 C61.62,47.3137085 64.3062915,50 67.62,50 C70.9337085,50 73.62,47.3137085 73.62,44 C73.62,40.6862915 70.9337085,38 67.62,38 Z M41.62,33 C37.201722,33 33.62,36.581722 33.62,41 C33.62,45.418278 37.201722,49 41.62,49 C46.038278,49 49.62,45.418278 49.62,41 C49.62,36.581722 46.038278,33 41.62,33 Z" id="Shape"></path>
                </g>
                <g id="Medium-M" transform="translate(1196.640000, 419.000000)">
                    <path d="M51.2252833,0 C54.8790155,0 57.3876146,0.62345679 58.7510805,1.87037037 C58.7893564,2.17701819 58.8090741,2.4894308 58.8090741,2.80644873 C58.8090741,5.5752054 57.3050397,7.99267602 55.0694179,9.2864137 L55.0692994,17.060124 C61.5836927,17.8172531 67.5307958,20.434017 72.3658319,24.3656392 L75.7036254,21.0272325 C75.0371541,18.5313279 75.6829582,15.757905 77.6410378,13.7998254 C77.8652033,13.5756599 78.1000549,13.3686933 78.3439528,13.1789257 C80.282389,13.3539599 82.4488579,14.6387277 84.8433594,17.0332292 C87.4269382,19.616808 88.7599351,21.831506 88.8423501,23.677323 C88.6525824,23.9212209 88.4456159,24.1560725 88.2214503,24.380238 C86.2636437,26.3380446 83.490721,26.9839416 80.9950869,26.3179289 L77.6141664,29.6988373 C81.3019041,34.3857151 83.7717886,40.0758859 84.5468404,46.2923704 L92.0730454,46.2915171 C93.36665,44.0553796 95.7844087,42.5509259 98.5535513,42.5509259 C98.8705692,42.5509259 99.1829818,42.5706436 99.4896296,42.6089195 C100.736543,44.1033687 101.36,46.5437616 101.36,49.9300981 C101.36,53.5838303 100.736543,56.0924294 99.4896296,57.4558953 C99.1829818,57.4941712 98.8705692,57.5138889 98.5535513,57.5138889 C95.7847946,57.5138889 93.367324,56.0098545 92.0735863,53.7742327 L84.6500534,53.7741084 C84.0149645,60.354741 81.4854122,66.3814158 77.6134272,71.3021022 L80.9940433,74.6823497 C83.4899479,74.0158784 86.2633708,74.6616825 88.2214503,76.619762 C88.4456159,76.8439275 88.6525824,77.0787791 88.8423501,77.322677 C88.6673159,79.2611132 87.3825481,81.4275821 84.9880466,83.8220836 C82.4044678,86.4056624 80.1897698,87.7386593 78.3439528,87.8210743 C78.1000549,87.6313067 77.8652033,87.4243401 77.6410378,87.2001746 C75.6832312,85.2423679 75.0373342,82.4694452 75.7033469,79.9738111 L72.3648939,76.6351236 C67.529975,80.5663634 61.5831444,83.1828518 55.0690906,83.9399003 L55.0684829,91.7130454 C57.3046204,93.00665 58.8090741,95.4244087 58.8090741,98.1935513 C58.8090741,98.5105692 58.7893564,98.8229818 58.7510805,99.1296296 C57.2566313,100.376543 54.8162384,101 51.4299019,101 C47.7761697,101 45.2675706,100.376543 43.9041047,99.1296296 C43.8658288,98.8229818 43.8461111,98.5105692 43.8461111,98.1935513 C43.8461111,95.4247946 45.3501455,93.007324 47.5857673,91.7135863 L47.5861114,83.9812633 C41.1147693,83.3022217 35.1893562,80.7898821 30.3386676,76.9730403 L26.6776503,80.6340433 C27.3441216,83.1299479 26.6983175,85.9033708 24.740238,87.8614503 C24.5160725,88.0856159 24.2812209,88.2925824 24.037323,88.4823501 C22.0988868,88.3073159 19.9324179,87.0225481 17.5379164,84.6280466 C14.9543376,82.0444678 13.6213407,79.8297698 13.5389257,77.9839528 C13.7286933,77.7400549 13.9356599,77.5052033 14.1598254,77.2810378 C16.1176321,75.3232312 18.8905548,74.6773342 21.3861889,75.3433469 L25.005432,71.7243383 C20.9428541,66.7278906 18.2843437,60.5439948 17.6310256,53.7737758 L9.64695465,53.7732978 C8.35334997,56.0094352 5.93559134,57.5138889 3.16644873,57.5138889 C2.8494308,57.5138889 2.53701819,57.4941712 2.23037037,57.4558953 C0.98345679,55.9614461 0.36,53.5210532 0.36,50.1347167 C0.36,46.4809845 0.98345679,43.9723854 2.23037037,42.6089195 C2.53701819,42.5706436 2.8494308,42.5509259 3.16644873,42.5509259 C5.9352054,42.5509259 8.35267602,44.0549603 9.6464137,46.2905821 L17.7344732,46.2907463 C18.5332789,39.8862716 21.1309818,34.0404844 25.0059849,29.2749816 L21.3872325,25.6563746 C18.8913279,26.3228459 16.117905,25.6770418 14.1598254,23.7189622 C13.9356599,23.4947967 13.7286933,23.2599451 13.5389257,23.0160472 C13.7139599,21.077611 14.9987277,18.9111421 17.3932292,16.5166406 C19.976808,13.9330618 22.191506,12.6000649 24.037323,12.5176499 C24.2812209,12.7074176 24.5160725,12.9143841 24.740238,13.1385497 C26.6980446,15.0963563 27.3439416,17.869279 26.6779289,20.3649131 L30.3386676,24.0269597 C35.1895894,20.2099343 41.1153391,17.6975368 47.5870449,17.0186388 L47.5867022,9.28695465 C45.3505648,7.99334997 43.8461111,5.57559134 43.8461111,2.80644873 C43.8461111,2.4894308 43.8658288,2.17701819 43.9041047,1.87037037 C45.3985539,0.62345679 47.8389468,0 51.2252833,0 Z M49.86,60 C46.8224339,60 44.36,62.4624339 44.36,65.5 C44.36,68.5375661 46.8224339,71 49.86,71 C52.8975661,71 55.36,68.5375661 55.36,65.5 C55.36,62.4624339 52.8975661,60 49.86,60 Z M66.36,37 C63.0462915,37 60.36,39.6862915 60.36,43 C60.36,46.3137085 63.0462915,49 66.36,49 C69.6737085,49 72.36,46.3137085 72.36,43 C72.36,39.6862915 69.6737085,37 66.36,37 Z M40.86,33 C36.7178644,33 33.36,36.3578644 33.36,40.5 C33.36,44.6421356 36.7178644,48 40.86,48 C45.0021356,48 48.36,44.6421356 48.36,40.5 C48.36,36.3578644 45.0021356,33 40.86,33 Z" id="Shape"></path>
                </g>
                <g id="Regular-M" transform="translate(901.200000, 421.000000)">
                    <path d="M50.1544333,0 C53.6996388,0 56.133725,0.604938272 57.456692,1.81481481 C57.493831,2.11235428 57.512963,2.41548731 57.512963,2.72308886 C57.512963,5.40960524 56.0536029,7.7552698 53.8843857,9.01057963 L53.8842707,16.5533876 C60.2051672,17.2880277 65.9756237,19.827066 70.6670449,23.6419073 L73.905696,20.4026612 C73.2590208,17.9808924 73.8856427,15.2898484 75.7855614,13.3899296 C76.0030685,13.1724225 76.2309443,12.9716034 76.4675977,12.7874725 C78.3484567,12.9573076 80.450575,14.203914 82.7739527,16.5272917 C85.2807915,19.0341306 86.5741944,21.1830454 86.6541615,22.9740362 C86.4700305,23.2106896 86.2692114,23.4385654 86.0517043,23.6560725 C84.1520504,25.5557265 81.4614916,26.1824384 79.0399853,25.5362083 L75.7594882,28.8166936 C79.3376892,33.3643572 81.7342108,38.8855131 82.4862412,44.9173495 L89.7888955,44.9165215 C91.0440763,42.746804 93.3900203,41.287037 96.0769111,41.287037 C96.3845127,41.287037 96.6876457,41.306169 96.9851852,41.343308 C98.1950617,42.7933677 98.8,45.1612736 98.8,48.4470259 C98.8,51.9922314 98.1950617,54.4263176 96.9851852,55.7492846 C96.6876457,55.7864235 96.3845127,55.8055556 96.0769111,55.8055556 C93.3903948,55.8055556 91.0447302,54.3461955 89.7894204,52.1769782 L82.5863885,52.1768576 C81.9701636,58.5620259 79.5157465,64.4096906 75.7587709,69.184218 L79.0389727,72.464062 C81.4607415,71.8173869 84.1517856,72.4440087 86.0517043,74.3439275 C86.2692114,74.5614346 86.4700305,74.7893104 86.6541615,75.0259638 C86.4843263,76.9068227 85.2377199,79.008941 82.9143422,81.3323188 C80.4075034,83.8391576 78.2585885,85.1325605 76.4675977,85.2125275 C76.2309443,85.0283966 76.0030685,84.8275775 75.7855614,84.6100704 C73.8859075,82.7104164 73.2591955,80.0198577 73.9054257,77.5983514 L70.6661346,74.3588328 C65.9748272,78.1733031 60.2046352,80.712074 53.8840681,81.4466359 L53.8834785,88.9888955 C56.053196,90.2440763 57.512963,92.5900203 57.512963,95.2769111 C57.512963,95.5845127 57.493831,95.8876457 57.456692,96.1851852 C56.0066323,97.3950617 53.6387264,98 50.3529741,98 C46.8077686,98 44.3736824,97.3950617 43.0507154,96.1851852 C43.0135765,95.8876457 42.9944444,95.5845127 42.9944444,95.2769111 C42.9944444,92.5903948 44.4538045,90.2447302 46.6230218,88.9894204 L46.6233556,81.4867703 C40.3442316,80.8278982 34.5948208,78.3901827 29.8882122,74.6867123 L26.335938,78.2389727 C26.9826131,80.6607415 26.3559913,83.3517856 24.4560725,85.2517043 C24.2385654,85.4692114 24.0106896,85.6700305 23.7740362,85.8541615 C21.8931773,85.6843263 19.791059,84.4377199 17.4676812,82.1143422 C14.9608424,79.6075034 13.6674395,77.4585885 13.5874725,75.6675977 C13.7716034,75.4309443 13.9724225,75.2030685 14.1899296,74.9855614 C16.0895836,73.0859075 18.7801423,72.4591955 21.2016486,73.1054257 L24.7133894,69.5939124 C20.7714822,64.745874 18.1919375,58.7456583 17.5580248,52.176535 L9.81110451,52.1760711 C8.55592373,54.3457886 6.20997972,55.8055556 3.52308886,55.8055556 C3.21548731,55.8055556 2.91235428,55.7864235 2.61481481,55.7492846 C1.40493827,54.2992249 0.8,51.9313189 0.8,48.6455667 C0.8,45.1003612 1.40493827,42.666275 2.61481481,41.343308 C2.91235428,41.306169 3.21548731,41.287037 3.52308886,41.287037 C6.20960524,41.287037 8.5552698,42.7463971 9.81057963,44.9156143 L17.6583998,44.9157737 C18.4334786,38.7015309 20.9540219,33.0293809 24.713926,28.4054277 L21.2026612,24.894304 C18.7808924,25.5409792 16.0898484,24.9143573 14.1899296,23.0144386 C13.9724225,22.7969315 13.7716034,22.5690557 13.5874725,22.3324023 C13.7573076,20.4515433 15.003914,18.349425 17.3272917,16.0260473 C19.8341306,13.5192085 21.9830454,12.2258056 23.7740362,12.1458385 C24.0106896,12.3299695 24.2385654,12.5307886 24.4560725,12.7482957 C26.3557265,14.6479496 26.9824384,17.3385084 26.3362083,19.7600147 L29.8882122,23.3132877 C34.5950471,19.6096393 40.3447845,17.1718673 46.6242614,16.5131347 L46.6239289,9.01110451 C44.4542114,7.75592373 42.9944444,5.40997972 42.9944444,2.72308886 C42.9944444,2.41548731 43.0135765,2.11235428 43.0507154,1.81481481 C44.5007751,0.604938272 46.8686811,0 50.1544333,0 Z M49.3,58 C46.2624339,58 43.8,60.4624339 43.8,63.5 C43.8,66.5375661 46.2624339,69 49.3,69 C52.3375661,69 54.8,66.5375661 54.8,63.5 C54.8,60.4624339 52.3375661,58 49.3,58 Z M64.8,36 C61.4862915,36 58.8,38.6862915 58.8,42 C58.8,45.3137085 61.4862915,48 64.8,48 C68.1137085,48 70.8,45.3137085 70.8,42 C70.8,38.6862915 68.1137085,36 64.8,36 Z M40.3,32 C36.1578644,32 32.8,35.3578644 32.8,39.5 C32.8,43.6421356 36.1578644,47 40.3,47 C44.4421356,47 47.8,43.6421356 47.8,39.5 C47.8,35.3578644 44.4421356,32 40.3,32 Z" id="Shape"></path>
                </g>
                <g id="Bold-S" transform="translate(1799.780000, 0.000000)">
                    <path d="M41.5165667,0 C44.4829631,0 46.5196475,0.50617284 47.6266198,1.51851852 C47.6576953,1.76748011 47.6737037,2.02112204 47.6737037,2.27850293 C47.6737037,4.52640438 46.4526065,6.4891033 44.6375472,7.53946459 L44.637451,13.8507937 C49.9263644,14.4654926 54.7547055,16.589994 58.6801804,19.7820041 L61.3900721,17.0716145 C60.8489766,15.0452365 61.3732928,12.7935466 62.9630208,11.2038187 C63.1450165,11.0218229 63.3356881,10.8537906 63.5337042,10.6997219 C65.1074841,10.8418288 66.8663995,11.8849076 68.8104502,13.8289584 C70.9080092,15.9265174 71.9902443,17.724589 72.0571555,19.2231732 C71.9030867,19.4211893 71.7350545,19.6118608 71.5530587,19.7938566 C69.9635523,21.383363 67.7122685,21.9077546 65.6861102,21.3670314 L62.9412044,24.1119273 C65.9352093,27.9171152 67.9404621,32.5368579 68.569712,37.5839047 L74.6800962,37.5832119 C75.7303495,35.767734 77.6932823,34.5462963 79.9414971,34.5462963 C80.198878,34.5462963 80.4525199,34.5623047 80.7014815,34.5933802 C81.7138272,35.8066954 82.22,37.7880045 82.22,40.5373074 C82.22,43.5037038 81.7138272,45.5403882 80.7014815,46.6473606 C80.4525199,46.678436 80.198878,46.6944444 79.9414971,46.6944444 C77.6935956,46.6944444 75.7308967,45.4733472 74.6805354,43.6582879 L68.6535087,43.658187 C68.137892,49.0008788 66.0841961,53.8938228 62.9406042,57.8888355 L65.6852629,60.6331948 C67.7116409,60.0920993 69.9633308,60.6164155 71.5530587,62.2061434 C71.7350545,62.3881392 71.9030867,62.5788107 72.0571555,62.7768268 C71.9150486,64.3506068 70.8719697,66.1095221 68.927919,68.0535728 C66.83036,70.1511319 65.0322884,71.233367 63.5337042,71.3002781 C63.3356881,71.1462094 63.1450165,70.9781771 62.9630208,70.7961813 C61.3735144,69.206675 60.8491228,66.9553911 61.389846,64.9292328 L58.6794188,62.2186152 C54.7540391,65.4103148 49.9259192,67.5345926 44.6372815,68.149226 L44.6367881,74.4600962 C46.452266,75.5103495 47.6737037,77.4732823 47.6737037,79.7214971 C47.6737037,79.978878 47.6576953,80.2325199 47.6266198,80.4814815 C46.4133046,81.4938272 44.4319955,82 41.6826926,82 C38.7162962,82 36.6796118,81.4938272 35.5726394,80.4814815 C35.541564,80.2325199 35.5255556,79.978878 35.5255556,79.7214971 C35.5255556,77.4735956 36.7466528,75.5108967 38.5617121,74.4605354 L38.5619914,68.1828078 C33.3080305,67.6315067 28.4972991,65.5917855 24.5591163,62.4929634 L21.5868052,65.4652629 C22.1279007,67.4916409 21.6035845,69.7433308 20.0138566,71.3330587 C19.8318608,71.5150545 19.6411893,71.6830867 19.4431732,71.8371555 C17.8693932,71.6950486 16.1104779,70.6519697 14.1664272,68.707919 C12.0688681,66.61036 10.986633,64.8122884 10.9197219,63.3137042 C11.0737906,63.1156881 11.2418229,62.9250165 11.4238187,62.7430208 C13.013325,61.1535144 15.2646089,60.6291228 17.2907672,61.169846 L20.2291626,58.231641 C16.9308321,54.1751191 14.7724375,49.1545304 14.2420208,43.657917 L7.75990377,43.6575289 C6.70965047,45.4730068 4.74671772,46.6944444 2.49850293,46.6944444 C2.24112204,46.6944444 1.98748011,46.678436 1.73851852,46.6473606 C0.72617284,45.4340453 0.22,43.4527363 0.22,40.7034333 C0.22,37.7370369 0.72617284,35.7003525 1.73851852,34.5933802 C1.98748011,34.5623047 2.24112204,34.5462963 2.49850293,34.5462963 C4.74640438,34.5462963 6.7091033,35.7673935 7.75946459,37.5824528 L14.326008,37.5825861 C14.9745433,32.3829136 17.0835694,27.636829 20.2296115,23.7678069 L17.2916145,20.8299279 C15.2652365,21.3710234 13.0135466,20.8467072 11.4238187,19.2569792 C11.2418229,19.0749835 11.0737906,18.8843119 10.9197219,18.6862958 C11.0618288,17.1125159 12.1049076,15.3536005 14.0489584,13.4095498 C16.1465174,11.3119908 17.944589,10.2297557 19.4431732,10.1628445 C19.6411893,10.3169133 19.8318608,10.4849455 20.0138566,10.6669413 C21.603363,12.2564477 22.1277546,14.5077315 21.5870314,16.5338898 L24.5591163,19.5070366 C28.4974884,16.4080655 33.3084931,14.3682972 38.5627493,13.8171127 L38.5624711,7.53990377 C36.7469932,6.48965047 35.5255556,4.52671772 35.5255556,2.27850293 C35.5255556,2.02112204 35.541564,1.76748011 35.5726394,1.51851852 C36.7859547,0.50617284 38.7672637,0 41.5165667,0 Z M41.72,49 C39.2347186,49 37.22,51.0147186 37.22,53.5 C37.22,55.9852814 39.2347186,58 41.72,58 C44.2052814,58 46.22,55.9852814 46.22,53.5 C46.22,51.0147186 44.2052814,49 41.72,49 Z M54.22,30 C51.4585763,30 49.22,32.2385763 49.22,35 C49.22,37.7614237 51.4585763,40 54.22,40 C56.9814237,40 59.22,37.7614237 59.22,35 C59.22,32.2385763 56.9814237,30 54.22,30 Z M33.22,27 C29.9062915,27 27.22,29.6862915 27.22,33 C27.22,36.3137085 29.9062915,39 33.22,39 C36.5337085,39 39.22,36.3137085 39.22,33 C39.22,29.6862915 36.5337085,27 33.22,27 Z" id="Shape"></path>
                </g>
                <g id="Semibold-S" transform="translate(1503.970000, 0.000000)">
                    <path d="M40.82295,0 C43.7531709,0 45.7650176,0.5 46.8584903,1.5 C46.8891868,1.74592548 46.905,1.99647421 46.905,2.25071631 C46.905,4.47120433 45.6987942,6.4099679 43.9058698,7.4475199 L43.9057747,13.6818816 C49.1301892,14.2890841 53.8996482,16.387677 57.7772514,19.5407601 L60.4540957,16.8634241 C59.9195989,14.861758 60.437521,12.6375277 62.007862,11.0671867 C62.1876383,10.8874104 62.3759846,10.7214273 62.5715859,10.5692375 C64.1261734,10.7096114 65.8636385,11.7399697 67.7839813,13.6603126 C69.8559603,15.7322916 70.9249975,17.5084355 70.9910926,18.9887442 C70.8389028,19.1843455 70.6729197,19.3726918 70.4931433,19.5524681 C68.9230212,21.1225903 66.6991921,21.6405868 64.697743,21.1064579 L61.9863117,23.8178794 C64.9438043,27.5766626 66.9246028,32.1400669 67.5461789,37.1255644 L73.5820463,37.12488 C74.6194916,35.3315421 76.5584862,34.125 78.7792837,34.125 C79.0335258,34.125 79.2840745,34.1408132 79.53,34.1715097 C80.53,35.3700284 81.03,37.3271752 81.03,40.04295 C81.03,42.9731709 80.53,44.9850176 79.53,46.0784903 C79.2840745,46.1091868 79.0335258,46.125 78.7792837,46.125 C76.5587957,46.125 74.6200321,44.9187942 73.5824801,43.1258698 L67.6289537,43.1257701 C67.119625,48.4033071 65.0909742,53.236581 61.9857188,57.1828741 L64.696906,59.8937656 C66.6985721,59.3592688 68.9228023,59.8771909 70.4931433,61.4475319 C70.6729197,61.6273082 70.8389028,61.8156545 70.9910926,62.0112558 C70.8507187,63.5658433 69.8203603,65.3033084 67.9000175,67.2236512 C65.8280385,69.2956303 64.0518946,70.3646674 62.5715859,70.4307625 C62.3759846,70.2785727 62.1876383,70.1125896 62.007862,69.9328133 C60.4377398,68.3626911 59.9197433,66.138862 60.4538722,64.1374129 L57.776499,61.4598516 C53.8989898,64.6126281 49.1297495,66.711 43.9056073,67.3181378 L43.90512,73.5520463 C45.6984579,74.5894916 46.905,76.5284862 46.905,78.7492837 C46.905,79.0035258 46.8891868,79.2540745 46.8584903,79.5 C45.6599716,80.5 43.7028248,81 40.98705,81 C38.0568291,81 36.0449824,80.5 34.9515097,79.5 C34.9208132,79.2540745 34.905,79.0035258 34.905,78.7492837 C34.905,76.5287957 36.1112058,74.5900321 37.9041302,73.5524801 L37.9044062,67.3513101 C32.7145179,66.8067322 27.962454,64.7918857 24.0722978,61.7308541 L21.1362344,64.666906 C21.6707312,66.6685721 21.1528091,68.8928023 19.5824681,70.4631433 C19.4026918,70.6429197 19.2143455,70.8089028 19.0187442,70.9610926 C17.4641567,70.8207187 15.7266916,69.7903603 13.8063488,67.8700175 C11.7343697,65.7980385 10.6653326,64.0218946 10.5992375,62.5415859 C10.7514273,62.3459846 10.9174104,62.1576383 11.0971867,61.977862 C12.6673089,60.4077398 14.891138,59.8897433 16.8925871,60.4238722 L19.7951484,57.521499 C16.5370414,53.5144469 14.4049687,48.5550849 13.8810205,43.1255034 L7.47795373,43.12512 C6.44050839,44.9184579 4.50151385,46.125 2.28071631,46.125 C2.02647421,46.125 1.77592548,46.1091868 1.53,46.0784903 C0.53,44.8799716 0.03,42.9228248 0.03,40.20705 C0.03,37.2768291 0.53,35.2649824 1.53,34.1715097 C1.77592548,34.1408132 2.02647421,34.125 2.28071631,34.125 C4.50120433,34.125 6.4399679,35.3312058 7.4775199,37.1241302 L13.9639835,37.1242619 C14.6046098,31.988 16.6879161,27.2997945 19.7955919,23.4779556 L16.8934241,20.5759043 C14.891758,21.1104011 12.6675277,20.592479 11.0971867,19.022138 C10.9174104,18.8423617 10.7514273,18.6540154 10.5992375,18.4584141 C10.7396114,16.9038266 11.7699697,15.1663615 13.6903126,13.2460187 C15.7622916,11.1740397 17.5384355,10.1050025 19.0187442,10.0389074 C19.2143455,10.1910972 19.4026918,10.3570803 19.5824681,10.5368567 C21.1525903,12.1069788 21.6705868,14.3308079 21.1364579,16.332257 L24.0722978,19.2691459 C27.962641,16.2079671 32.7149749,14.193074 37.9051548,13.6486113 L37.90488,7.44795373 C36.1115421,6.41050839 34.905,4.47151385 34.905,2.25071631 C34.905,1.99647421 34.9208132,1.74592548 34.9515097,1.5 C36.1500284,0.5 38.1071752,0 40.82295,0 Z M40.53,48 C38.0447186,48 36.03,50.0147186 36.03,52.5 C36.03,54.9852814 38.0447186,57 40.53,57 C43.0152814,57 45.03,54.9852814 45.03,52.5 C45.03,50.0147186 43.0152814,48 40.53,48 Z M53.03,30 C50.2685763,30 48.03,32.2385763 48.03,35 C48.03,37.7614237 50.2685763,40 53.03,40 C55.7914237,40 58.03,37.7614237 58.03,35 C58.03,32.2385763 55.7914237,30 53.03,30 Z M33.03,27 C29.7162915,27 27.03,29.6862915 27.03,33 C27.03,36.3137085 29.7162915,39 33.03,39 C36.3437085,39 39.03,36.3137085 39.03,33 C39.03,29.6862915 36.3437085,27 33.03,27 Z" id="Shape"></path>
                </g>
                <g id="Medium-S" transform="translate(1207.950000, 1.000000)">
                    <path d="M39.8357167,0 C42.6935864,0 44.6557579,0.487654321 45.7222313,1.46296296 C45.7521699,1.70281621 45.7675926,1.94717855 45.7675926,2.19514306 C45.7675926,4.36080422 44.5911697,6.25169709 42.842515,7.26363052 L42.8424223,13.3440574 C47.9378389,13.9362672 52.5895334,15.983043 56.3713933,19.0582722 L58.9821427,16.4470432 C58.4608433,14.494801 58.9659772,12.32549 60.4975444,10.7939229 C60.6728818,10.6185855 60.8565776,10.4567007 61.0473492,10.3082686 C62.5635518,10.4451765 64.2581166,11.4500939 66.1310435,13.3230209 C68.1518626,15.3438399 69.1945037,17.0761284 69.2589669,18.5198863 C69.1105348,18.7106579 68.94865,18.8943537 68.7733126,19.0696911 C67.241959,20.6010448 65.0730392,21.1062514 63.1210086,20.5853107 L60.4765262,23.2297836 C63.3609943,26.8957573 65.2928842,31.346485 65.8991128,36.2088838 L71.7859464,36.2082163 C72.7977758,34.4591583 74.6888939,33.2824074 76.8548569,33.2824074 C77.1028215,33.2824074 77.3471838,33.2978301 77.587037,33.3277687 C78.5623457,34.4966943 79.05,36.4055165 79.05,39.0542352 C79.05,41.9121049 78.5623457,43.8742764 77.587037,44.9407498 C77.3471838,44.9706884 77.1028215,44.9861111 76.8548569,44.9861111 C74.6891958,44.9861111 72.7983029,43.8096882 71.7863695,42.0610335 L65.9798438,42.0609362 C65.4830911,47.2081638 63.5045304,51.9220975 60.475948,55.7709512 L63.1201923,58.4149072 C65.0724345,57.8936078 67.2417455,58.3987417 68.7733126,59.9303089 C68.94865,60.1056463 69.1105348,60.2893421 69.2589669,60.4801137 C69.122059,61.9963163 68.1171416,63.690881 66.2442146,65.563808 C64.2233956,67.584627 62.4911071,68.6272682 61.0473492,68.6917314 C60.8565776,68.5432993 60.6728818,68.3814145 60.4975444,68.2060771 C58.9661907,66.6747234 58.4609842,64.5058037 58.9819248,62.5537731 L56.3706596,59.9423244 C52.5888913,63.0172545 47.93741,65.0638148 42.842259,65.6559616 L42.8417837,71.7359464 C44.5908417,72.7477758 45.7675926,74.6388939 45.7675926,76.8048569 C45.7675926,77.0528215 45.7521699,77.2971838 45.7222313,77.537037 C44.5533057,78.5123457 42.6444835,79 39.9957648,79 C37.1378951,79 35.1757236,78.5123457 34.1092502,77.537037 C34.0793116,77.2971838 34.0638889,77.0528215 34.0638889,76.8048569 C34.0638889,74.6391958 35.2403118,72.7483029 36.9889665,71.7363695 L36.9892357,65.6883148 C31.9274928,65.1571833 27.2927637,63.192086 23.4986608,60.2066355 L20.6350928,63.0701923 C21.1563922,65.0224345 20.6512583,67.1917455 19.1196911,68.7233126 C18.9443537,68.89865 18.7606579,69.0605348 18.5698863,69.2089669 C17.0536837,69.072059 15.359119,68.0671416 13.486192,66.1942146 C11.465373,64.1733956 10.4227318,62.4411071 10.3582686,60.9973492 C10.5067007,60.8065776 10.6685855,60.6228818 10.8439229,60.4475444 C12.3752766,58.9161907 14.5441963,58.4109842 16.4962269,58.9319248 L19.32712,56.1012151 C16.1494602,52.1931025 14.0700312,47.3561939 13.55902,42.0606761 L7.31405363,42.0603022 C6.30222423,43.8093602 4.4111061,44.9861111 2.24514306,44.9861111 C1.99717855,44.9861111 1.75281621,44.9706884 1.51296296,44.9407498 C0.537654321,43.7718242 0.05,41.863002 0.05,39.2142833 C0.05,36.3564136 0.537654321,34.3942421 1.51296296,33.3277687 C1.75281621,33.2978301 1.99717855,33.2824074 2.24514306,33.2824074 C4.41080422,33.2824074 6.30169709,34.4588303 7.31363052,36.207485 L13.6399345,36.2076135 C14.2647429,31.1981728 16.2966095,26.6257255 19.3275526,22.898253 L16.4970432,20.0678573 C14.544801,20.5891567 12.37549,20.0840228 10.8439229,18.5524556 C10.6685855,18.3771182 10.5067007,18.1934224 10.3582686,18.0026508 C10.4951765,16.4864482 11.5000939,14.7918834 13.3730209,12.9189565 C15.3938399,10.8981374 17.1261284,9.85549631 18.5698863,9.79103312 C18.7606579,9.93946522 18.9443537,10.10135 19.1196911,10.2766874 C20.6510448,11.808041 21.1562514,13.9769608 20.6353107,15.9289914 L23.4986608,18.7933645 C27.2929462,15.8077704 31.9279385,13.8426278 36.9899658,13.3116086 L36.9896978,7.26405363 C35.2406398,6.25222423 34.0638889,4.3611061 34.0638889,2.19514306 C34.0638889,1.94717855 34.0793116,1.70281621 34.1092502,1.46296296 C35.2781758,0.487654321 37.186998,0 39.8357167,0 Z M39.55,47 C37.0647186,47 35.05,49.0147186 35.05,51.5 C35.05,53.9852814 37.0647186,56 39.55,56 C42.0352814,56 44.05,53.9852814 44.05,51.5 C44.05,49.0147186 42.0352814,47 39.55,47 Z M52.05,29 C49.2885763,29 47.05,31.2385763 47.05,34 C47.05,36.7614237 49.2885763,39 52.05,39 C54.8114237,39 57.05,36.7614237 57.05,34 C57.05,31.2385763 54.8114237,29 52.05,29 Z M32.05,26 C28.7362915,26 26.05,28.6862915 26.05,32 C26.05,35.3137085 28.7362915,38 32.05,38 C35.3637085,38 38.05,35.3137085 38.05,32 C38.05,28.6862915 35.3637085,26 32.05,26 Z" id="Shape"></path>
                </g>
                <g id="Regular-S" transform="translate(912.140000, 2.000000)">
                    <path d="M40.1421,0 C42.9637942,0 44.9011281,0.481481481 45.9541018,1.44444444 C45.9836614,1.68126157 45.9988889,1.92253072 45.9988889,2.16735644 C45.9988889,4.30560417 44.8373574,6.17256168 43.1108376,7.17168583 L43.110746,13.1751453 C48.1416637,13.7598588 52.734476,15.780726 56.4684643,18.8170283 L59.0461662,16.2388528 C58.5314656,14.3113225 59.0302054,12.1694712 60.5423856,10.6572909 C60.7155035,10.484173 60.8968741,10.3243374 61.0852308,10.1777842 C62.582241,10.3129591 64.2553556,11.305156 66.1045746,13.154375 C68.0998137,15.1496141 69.1292568,16.8599749 69.192904,18.2854574 C69.0463508,18.4738142 68.8865152,18.6551847 68.7133973,18.8283026 C67.2014278,20.3402721 65.0599627,20.8390836 63.1326414,20.3247372 L60.5216335,22.9357357 C63.3695893,26.5553047 65.2770249,30.9496941 65.8755797,35.7505435 L71.6878964,35.7498845 C72.6869178,34.0229664 74.5540978,32.8611111 76.6926436,32.8611111 C76.9374693,32.8611111 77.1787384,32.8763386 77.4155556,32.9058982 C78.3785185,34.0600273 78.86,35.9446872 78.86,38.5598778 C78.86,41.3815719 78.3785185,43.3189059 77.4155556,44.3718796 C77.1787384,44.4014392 76.9374693,44.4166667 76.6926436,44.4166667 C74.5543958,44.4166667 72.6874383,43.2551352 71.6883142,41.5286153 L65.9552888,41.5285193 C65.4648241,46.6105921 63.5113085,51.2648558 60.5210626,55.0649898 L63.1318354,57.675478 C65.0593657,57.1607773 67.2012171,57.6595171 68.7133973,59.1716974 C68.8865152,59.3448153 69.0463508,59.5261858 69.192904,59.7145426 C69.0577291,61.2115528 68.0655322,62.8846674 66.2163132,64.7338864 C64.2210741,66.7291254 62.5107133,67.7585686 61.0852308,67.8222158 C60.8968741,67.6756626 60.7155035,67.515827 60.5423856,67.3427091 C59.0304161,65.8307396 58.5316046,63.6892745 59.045951,61.7619531 L56.4677398,59.1835608 C52.7338421,62.2195678 48.1412402,64.2402222 43.1105848,64.8248735 L43.1101155,70.8278964 C44.8370336,71.8269178 45.9988889,73.6940978 45.9988889,75.8326436 C45.9988889,76.0774693 45.9836614,76.3187384 45.9541018,76.5555556 C44.7999727,77.5185185 42.9153128,78 40.3001222,78 C37.4784281,78 35.5410941,77.5185185 34.4881204,76.5555556 C34.4585608,76.3187384 34.4433333,76.0774693 34.4433333,75.8326436 C34.4433333,73.6943958 35.6048648,71.8274383 37.3313847,70.8283142 L37.3316504,64.8568172 C32.3339802,64.3324088 27.7579186,62.3921862 24.0118423,59.4445261 L21.184522,62.2718354 C21.6992227,64.1993657 21.2004829,66.3412171 19.6883026,67.8533973 C19.5151847,68.0265152 19.3338142,68.1863508 19.1454574,68.332904 C17.6484472,68.1977291 15.9753326,67.2055322 14.1261136,65.3563132 C12.1308746,63.3610741 11.1014314,61.6507133 11.0377842,60.2252308 C11.1843374,60.0368741 11.344173,59.8555035 11.5172909,59.6823856 C13.0292604,58.1704161 15.1707255,57.6716046 17.0980469,58.185951 L19.8931059,55.3910731 C16.7556695,51.5324303 14.7025625,46.7567485 14.1980198,41.5282625 L8.03210359,41.5278933 C7.03308215,43.2548113 5.16590222,44.4166667 3.02735644,44.4166667 C2.78253072,44.4166667 2.54126157,44.4014392 2.30444444,44.3718796 C1.34148148,43.2177504 0.86,41.3330906 0.86,38.7179 C0.86,35.8962058 1.34148148,33.9588719 2.30444444,32.9058982 C2.54126157,32.8763386 2.78253072,32.8611111 3.02735644,32.8611111 C5.16560417,32.8611111 7.03256168,34.0226426 8.03168583,35.7491624 L14.27791,35.7492892 C14.8948095,30.8032593 16.9009562,26.288691 19.8935329,22.6084017 L17.0988528,19.8138338 C15.1713225,20.3285344 13.0294712,19.8297946 11.5172909,18.3176144 C11.344173,18.1444965 11.1843374,17.9631259 11.0377842,17.7747692 C11.1729591,16.277759 12.165156,14.6046444 14.014375,12.7554254 C16.0096141,10.7601863 17.7199749,9.7307432 19.1454574,9.66709599 C19.3338142,9.8136492 19.5151847,9.97348477 19.6883026,10.1466027 C21.2002721,11.6585722 21.6990836,13.8000373 21.1847372,15.7273586 L24.0118423,18.5554739 C27.7580987,15.6076721 32.3344203,13.6674046 37.3323713,13.1431072 L37.3321067,7.17210359 C35.6051887,6.17308215 34.4433333,4.30590222 34.4433333,2.16735644 C34.4433333,1.92253072 34.4585608,1.68126157 34.4881204,1.44444444 C35.6422496,0.481481481 37.5269094,0 40.1421,0 Z M39.36,46 C36.8747186,46 34.86,48.0147186 34.86,50.5 C34.86,52.9852814 36.8747186,55 39.36,55 C41.8452814,55 43.86,52.9852814 43.86,50.5 C43.86,48.0147186 41.8452814,46 39.36,46 Z M51.86,28 C49.0985763,28 46.86,30.2385763 46.86,33 C46.86,35.7614237 49.0985763,38 51.86,38 C54.6214237,38 56.86,35.7614237 56.86,33 C56.86,30.2385763 54.6214237,28 51.86,28 Z M31.86,25 C28.5462915,25 25.86,27.6862915 25.86,31 C25.86,34.3137085 28.5462915,37 31.86,37 C35.1737085,37 37.86,34.3137085 37.86,31 C37.86,27.6862915 35.1737085,25 31.86,25 Z" id="Shape"></path>
                </g>
            </g>
        </g>
    </g>
</svg>