<?xml version="1.0" encoding="UTF-8"?>
<svg width="3300px" height="2200px" viewBox="0 0 3300 2200" version="1.1" xmlns="http://www.w3.org/2000/svg" xmlns:xlink="http://www.w3.org/1999/xlink">
    <title>Needle</title>
    <g id="Page-1" stroke="none" stroke-width="1" fill="none" fill-rule="evenodd">
        <g id="Needle">
            <g id="Notes">
                <rect id="artboard" fill="#FFFFFF" fill-rule="nonzero" x="0" y="0" width="3300" height="2200"></rect>
                <line x1="263" y1="292" x2="3036" y2="292" id="Path" stroke="#000000" stroke-width="0.5"></line>
                <text id="Weight/Scale-Variations" fill="#000000" fill-rule="nonzero" font-family="Helvetica-Bold, Helvetica" font-size="13" font-weight="bold">
                    <tspan x="263" y="322">Weight/Scale Variations</tspan>
                </text>
                <text id="Ultralight" fill="#000000" fill-rule="nonzero" font-family="Helvetica" font-size="13" font-weight="normal">
                    <tspan x="533.711" y="322">Ultralight</tspan>
                </text>
                <text id="Thin" fill="#000000" fill-rule="nonzero" font-family="Helvetica" font-size="13" font-weight="normal">
                    <tspan x="843.422" y="322">Thin</tspan>
                </text>
                <text id="Light" fill="#000000" fill-rule="nonzero" font-family="Helvetica" font-size="13" font-weight="normal">
                    <tspan x="1138.63" y="322">Light</tspan>
                </text>
                <text id="Regular" fill="#000000" fill-rule="nonzero" font-family="Helvetica" font-size="13" font-weight="normal">
                    <tspan x="1426.84" y="322">Regular</tspan>
                </text>
                <text id="Medium" fill="#000000" fill-rule="nonzero" font-family="Helvetica" font-size="13" font-weight="normal">
                    <tspan x="1723.06" y="322">Medium</tspan>
                </text>
                <text id="Semibold" fill="#000000" fill-rule="nonzero" font-family="Helvetica" font-size="13" font-weight="normal">
                    <tspan x="2015.77" y="322">Semibold</tspan>
                </text>
                <text id="Bold" fill="#000000" fill-rule="nonzero" font-family="Helvetica" font-size="13" font-weight="normal">
                    <tspan x="2326.48" y="322">Bold</tspan>
                </text>
                <text id="Heavy" fill="#000000" fill-rule="nonzero" font-family="Helvetica" font-size="13" font-weight="normal">
                    <tspan x="2618.19" y="322">Heavy</tspan>
                </text>
                <text id="Black" fill="#000000" fill-rule="nonzero" font-family="Helvetica" font-size="13" font-weight="normal">
                    <tspan x="2917.4" y="322">Black</tspan>
                </text>
                <line x1="263" y1="1903" x2="3036" y2="1903" id="Path" stroke="#000000" stroke-width="0.5"></line>
                <g id="Group" transform="translate(264.000000, 1918.000000)" fill="#000000" fill-rule="nonzero">
                    <path d="M8.24805,15.830078 C12.5547,15.830078 16.1387,12.25586 16.1387,7.94922 C16.1387,3.6426 12.5449,0.0684 8.23828,0.0684 C3.94141,0.0684 0.36719,3.6426 0.36719,7.94922 C0.36719,12.25586 3.95117,15.830078 8.24805,15.830078 Z M8.24805,14.345703 C4.70312,14.345703 1.87109,11.50391 1.87109,7.94922 C1.87109,4.3945 4.69336,1.5527 8.23828,1.5527 C11.793,1.5527 14.6348,4.3945 14.6445252,7.94922 C14.6543,11.50391 11.8027,14.345703 8.24805,14.345703 Z M8.22852,11.37695 C8.69727,11.37695 8.9707,11.06445 8.9707,10.54688 L8.9707,8.68164 L11.002,8.68164 C11.5,8.68164 11.832,8.42773 11.832,7.95898 C11.832,7.48047 11.5195,7.2168 11.002,7.2168 L8.9707,7.2168 L8.9707,5.18555 C8.9707,4.668 8.69727,4.3457 8.22852,4.3457 C7.75977,4.3457 7.50586,4.6875 7.50586,5.18555 L7.50586,7.2168 L5.49414,7.2168 C4.97656,7.2168 4.64453,7.48047 4.64453,7.95898 C4.64453,8.42773 4.99609,8.68164 5.49414,8.68164 L7.50586,8.68164 L7.50586,10.54688 C7.50586,11.04492 7.75977,11.37695 8.22852,11.37695 Z" id="Shape"></path>
                </g>
                <g id="Group" transform="translate(282.506000, 1915.000000)" fill="#000000" fill-rule="nonzero">
                    <path d="M10.709,20.91016 C16.1582,20.91016 20.6699,16.38867 20.6699,10.94922 C20.6699,5.5 16.1484,0.9883 10.6992,0.9883 C5.25977,0.9883 0.74805,5.5 0.74805,10.94922 C0.74805,16.38867 5.26953,20.91016 10.709,20.91016 Z M10.709,19.25 C6.09961,19.25 2.41797,15.55859 2.41797,10.94922 C2.41797,6.3398 6.08984,2.6484 10.6992,2.6484 C15.3086,2.6484 19,6.3398 19.009819,10.94922 C19.0195,15.55859 15.3184,19.25 10.709,19.25 Z M10.6797,15.33398 C11.207,15.33398 11.5098,14.98242 11.5098,14.40625 L11.5098,11.76953 L14.3223,11.76953 C14.8691,11.76953 15.25,11.48633 15.25,10.96875 C15.25,10.44141 14.8887,10.13867 14.3223,10.13867 L11.5098,10.13867 L11.5098,7.3164 C11.5098,6.75 11.207,6.3887 10.6797,6.3887 C10.1621,6.3887 9.8789,6.7695 9.8789,7.3164 L9.8789,10.13867 L7.07617,10.13867 C6.50977,10.13867 6.13867,10.44141 6.13867,10.96875 C6.13867,11.48633 6.5293,11.76953 7.07617,11.76953 L9.8789,11.76953 L9.8789,14.40625 C9.8789,14.96289 10.1621,15.33398 10.6797,15.33398 Z" id="Shape"></path>
                </g>
                <g id="Group" transform="translate(306.924000, 1913.000000)" fill="#000000" fill-rule="nonzero">
                    <path d="M12.9707,25.66406 C19.9336,25.66406 25.6953,19.9023438 25.6953,12.94922 C25.6953,5.9863 19.9238,0.2246 12.9609,0.2246 C6.00781,0.2246 0.25586,5.9863 0.25586,12.94922 C0.25586,19.9023438 6.01758,25.66406 12.9707,25.66406 Z M12.9707,23.84766 C6.93555,23.84766 2.08203,18.98438 2.08203,12.94922 C2.08203,6.9043 6.92578,2.0508 12.9609,2.0508 C19.0059,2.0508 23.8594,6.9043 23.8691148,12.94922 C23.8789,18.98438 19.0156,23.84766 12.9707,23.84766 Z M12.9414,18.61328 C13.5176,18.61328 13.8594,18.22266 13.8594,17.61719 L13.8594,13.86719 L17.7754,13.86719 C18.3711,13.86719 18.7812,13.53516 18.7812,12.97852 C18.7812,12.40234 18.3906,12.06055 17.7754,12.06055 L13.8594,12.06055 L13.8594,8.1348 C13.8594,7.5195 13.5176,7.1289 12.9414,7.1289 C12.375,7.1289 12.0527,7.5391 12.0527,8.1348 L12.0527,12.06055 L8.1465,12.06055 C7.53125,12.06055 7.13086,12.40234 7.13086,12.97852 C7.13086,13.53516 7.55078,13.86719 8.1465,13.86719 L12.0527,13.86719 L12.0527,17.61719 C12.0527,18.20312 12.375,18.61328 12.9414,18.61328 Z" id="Shape"></path>
                </g>
                <text id="Design-Variations" fill="#000000" fill-rule="nonzero" font-family="Helvetica-Bold, Helvetica" font-size="13" font-weight="bold">
                    <tspan x="263" y="1953">Design Variations</tspan>
                </text>
                <text id="Symbols-are-supported-in-up-to-nine-weights-and-three-scales." fill="#000000" fill-rule="nonzero" font-family="Helvetica" font-size="13" font-weight="normal">
                    <tspan x="263" y="1971">Symbols are supported in up to nine weights and three scales.</tspan>
                </text>
                <text id="For-optimal-layout-with-text-and-other-symbols,-vertically-align" fill="#000000" fill-rule="nonzero" font-family="Helvetica" font-size="13" font-weight="normal">
                    <tspan x="263" y="1989">For optimal layout with text and other symbols, vertically align</tspan>
                </text>
                <text id="symbols-with-the-adjacent-text." fill="#000000" fill-rule="nonzero" font-family="Helvetica" font-size="13" font-weight="normal">
                    <tspan x="263" y="2007">symbols with the adjacent text.</tspan>
                </text>
                <line x1="776" y1="1919" x2="776" y2="1933" id="Path" stroke="#00AEEF" stroke-width="0.5"></line>
                <g id="Group" transform="translate(778.000000, 1918.000000)" fill="#000000" fill-rule="nonzero">
                    <path d="M1.31055,15.126953 C1.82812,15.126953 2.08203,14.9316406 2.26758,14.394531 L3.52734,10.9375 L9.2891,10.9375 L10.5488,14.394531 C10.7344,14.9316406 10.9883,15.126953 11.4961,15.126953 C12.0137,15.126953 12.3457,14.814453 12.3457,14.326172 C12.3457,14.160156 12.3164,14.013672 12.2383,13.79883 L7.6582,1.6113 C7.43359,1.0059 7.0332,0.7129 6.4082,0.7129 C5.80273,0.7129 5.39258,1.0059 5.17773,1.6016 L0.59766,13.80859 C0.51953,14.023438 0.49023,14.169922 0.49023,14.335938 C0.49023,14.824219 0.80273,15.126953 1.31055,15.126953 Z M4.00586,9.46289 L6.37891,2.8906 L6.42773,2.8906 L8.8008,9.46289 L4.00586,9.46289 Z" id="Shape"></path>
                </g>
                <line x1="792.836" y1="1919" x2="792.836" y2="1933" id="Path" stroke="#00AEEF" stroke-width="0.5"></line>
                <text id="Margins" fill="#000000" fill-rule="nonzero" font-family="Helvetica-Bold, Helvetica" font-size="13" font-weight="bold">
                    <tspan x="776" y="1953">Margins</tspan>
                </text>
                <text id="Leading-and-trailing-margins-on-the-left-and-right-side-of-each-symbol" fill="#000000" fill-rule="nonzero" font-family="Helvetica" font-size="13" font-weight="normal">
                    <tspan x="776" y="1971">Leading and trailing margins on the left and right side of each symbol</tspan>
                </text>
                <text id="can-be-adjusted-by-modifying-the-x-location-of-the-margin-guidelines." fill="#000000" fill-rule="nonzero" font-family="Helvetica" font-size="13" font-weight="normal">
                    <tspan x="776" y="1989">can be adjusted by modifying the x-location of the margin guidelines.</tspan>
                </text>
                <text id="Modifications-are-automatically-applied-proportionally-to-all" fill="#000000" fill-rule="nonzero" font-family="Helvetica" font-size="13" font-weight="normal">
                    <tspan x="776" y="2007">Modifications are automatically applied proportionally to all</tspan>
                </text>
                <text id="scales-and-weights." fill="#000000" fill-rule="nonzero" font-family="Helvetica" font-size="13" font-weight="normal">
                    <tspan x="776" y="2025">scales and weights.</tspan>
                </text>
                <g id="Group" transform="translate(1291.000000, 1914.000000)" fill="#000000" fill-rule="nonzero">
                    <path d="M0.8418,20.86523 L2.54102,22.57422 C3.40039,23.44336 4.38672,23.38477 5.31445,22.35938 L15.4902,11.14844 C15.7539,11.23633 16.0273,11.2168 16.3398,11.1582 L17.4043,10.96289 L18.0684,11.63672 L18.0293,12.19336 C17.9902,12.69141 18.1172,13.07227 18.6055,13.55078 L19.3672,14.29297 C19.8457,14.77148 20.4609,14.80078 20.9297,14.33203 L23.8398,11.41211 C24.3086,10.94336 24.2891,10.34766 23.8105,9.86914 L23.0391,9.10742 C22.5605,8.6289 22.1895,8.4727 21.7109,8.5117 L21.1348,8.5605 L20.4902,7.9258 L20.7344,6.8027 C20.8613,6.2363 20.7051,5.7969 20.1191,5.2109 L17.9219,3.0234 C14.582,-0.2969 10.1484,-0.2188 7.25781,2.6719 C6.83789,3.082 6.80859,3.6582 7.04297,4.0488 C7.27734,4.4102 7.73633,4.6445 8.3809,4.4785 C9.8457,4.1367 11.3691,4.0781 12.7949,5.0156 L12.209,6.4707 C12.0137,6.9492 11.9844,7.3496 12.1113,7.7109 L1.04688,18.101562 C0.06055,19.0195312 -0.01758,19.996094 0.8418,20.86523 Z M8.752,3.043 C11.1836,1.2656 14.4746,1.5684 16.7012,3.7949 L19.1328,6.207 C19.3672,6.4414 19.4062,6.627 19.3379,6.9688 L19.0156,8.4531 L20.5195,9.9375 L21.5059,9.87891 C21.7598,9.86914 21.8379,9.88867 22.0332,10.08398 L22.6094,10.66016 L20.168,13.10156 L19.5918,12.52539 C19.3965,12.33008 19.3672,12.25195 19.377,11.98828 L19.4453,11.01172 L17.9512,9.52734 L16.4277,9.78125 C16.1055,9.84961 15.959,9.82031 15.7148,9.58594 L13.7129,7.584 C13.459,7.3496 13.4297,7.1836 13.5859,6.8125 L14.4648,4.7227 C12.9023,3.2676 10.8711,2.6426 8.8398,3.2383 C8.6836,3.2773 8.625,3.1504 8.752,3.043 Z M3.27344,21.3047 L2.10156,20.14258 C1.63281,19.683594 1.74023,19.341797 2.14062,18.9804688 L12.9512,8.8047 L14.416,10.28906 L4.42578,21.27539 C4.07422,21.67578 3.74219,21.77344 3.27344,21.3047 Z" id="Shape"></path>
                </g>
                <text id="Exporting" fill="#000000" fill-rule="nonzero" font-family="Helvetica-Bold, Helvetica" font-size="13" font-weight="bold">
                    <tspan x="1289" y="1953">Exporting</tspan>
                </text>
                <text id="Symbols-should-be-outlined-when-exporting-to-ensure-the" fill="#000000" fill-rule="nonzero" font-family="Helvetica" font-size="13" font-weight="normal">
                    <tspan x="1289" y="1971">Symbols should be outlined when exporting to ensure the</tspan>
                </text>
                <text id="design-is-preserved-when-submitting-to-Xcode." fill="#000000" fill-rule="nonzero" font-family="Helvetica" font-size="13" font-weight="normal">
                    <tspan x="1289" y="1989">design is preserved when submitting to Xcode.</tspan>
                </text>
                <text id="template-version" fill="#000000" fill-rule="nonzero" font-family="Helvetica" font-size="13" font-weight="normal">
                    <tspan x="2952" y="1933">Template v.2.0</tspan>
                </text>
                <text id="Requires-Xcode-12-or-greater" fill="#000000" fill-rule="nonzero" font-family="Helvetica" font-size="13" font-weight="normal">
                    <tspan x="2865" y="1951">Requires Xcode 12 or greater</tspan>
                </text>
                <text id="Generated-from-text.badge.plus" fill="#000000" fill-rule="nonzero" font-family="Helvetica" font-size="13" font-weight="normal">
                    <tspan x="2853" y="1969">Generated from text.badge.plus</tspan>
                </text>
                <text id="Typeset-at-100-points" fill="#000000" fill-rule="nonzero" font-family="Helvetica" font-size="13" font-weight="normal">
                    <tspan x="2912" y="1987">Typeset at 100 points</tspan>
                </text>
                <text id="Small" fill="#000000" fill-rule="nonzero" font-family="Helvetica" font-size="13" font-weight="normal">
                    <tspan x="263" y="726">Small</tspan>
                </text>
                <text id="Medium" fill="#000000" fill-rule="nonzero" font-family="Helvetica" font-size="13" font-weight="normal">
                    <tspan x="263" y="1156">Medium</tspan>
                </text>
                <text id="Large" fill="#000000" fill-rule="nonzero" font-family="Helvetica" font-size="13" font-weight="normal">
                    <tspan x="263" y="1586">Large</tspan>
                </text>
            </g>
            <g id="Guides" transform="translate(260.000000, 625.000000)">
                <g id="H-reference" transform="translate(76.000000, 0.000000)" fill="#27AAE1" fill-rule="nonzero">
                    <path d="M0.976562,71 L3.66211,71 L12.9883,46.5371 L45.7031,46.5371 L55.0781,71 L57.7148,71 L30.6152,0.541 L28.125,0.541 L0.976562,71 Z M29.2969,3.8613 L29.3945,3.8613 L44.873,44.291 L13.8672,44.291 L29.2969,3.8613 Z" id="Shape"></path>
                </g>
                <line x1="0" y1="71" x2="2773" y2="71" id="Baseline-S" stroke="#27AAE1" stroke-width="0.5"></line>
                <line x1="0" y1="0.541" x2="2773" y2="0.541" id="Capline-S" stroke="#27AAE1" stroke-width="0.5"></line>
                <g id="H-reference" transform="translate(76.000000, 430.000000)" fill="#27AAE1" fill-rule="nonzero">
                    <path d="M0.976562,71 L3.66211,71 L12.9883,46.5371 L45.7031,46.5371 L55.0781,71 L57.7148,71 L30.6152,0.541 L28.125,0.541 L0.976562,71 Z M29.2969,3.8613 L29.3945,3.8613 L44.873,44.291 L13.8672,44.291 L29.2969,3.8613 Z" id="Shape"></path>
                </g>
                <line x1="0" y1="501" x2="2773" y2="501" id="Baseline-M" stroke="#27AAE1" stroke-width="0.5"></line>
                <line x1="0" y1="430.54" x2="2773" y2="430.54" id="Capline-M" stroke="#27AAE1" stroke-width="0.5"></line>
                <g id="H-reference" transform="translate(76.000000, 860.000000)" fill="#27AAE1" fill-rule="nonzero">
                    <path d="M0.976562,71 L3.66211,71 L12.9883,46.5371 L45.7031,46.5371 L55.0781,71 L57.7148,71 L30.6152,0.541 L28.125,0.541 L0.976562,71 Z M29.2969,3.8613 L29.3945,3.8613 L44.873,44.291 L13.8672,44.291 L29.2969,3.8613 Z" id="Shape"></path>
                </g>
                <line x1="0" y1="931" x2="2773" y2="931" id="Baseline-L" stroke="#27AAE1" stroke-width="0.5"></line>
                <line x1="0" y1="860.54" x2="2773" y2="860.54" id="Capline-L" stroke="#27AAE1" stroke-width="0.5"></line>
                <line x1="1125.2" y1="405.79" x2="1125.2" y2="525.12" id="left-margin" stroke="#00AEEF" stroke-width="0.5"></line>
                <line x1="1248.49" y1="405.79" x2="1248.49" y2="525.12" id="right-margin" stroke="#00AEEF" stroke-width="0.5"></line>
            </g>
            <g id="Symbols" transform="translate(499.000000, 619.000000)" fill="#FF0000" fill-rule="nonzero">
                <g id="Bold-L" transform="translate(1773.430000, 836.000000)">
                    <path d="M132.163094,1.33466189 C130.355113,-0.444887296 127.461584,-0.444887296 125.653603,1.33466189 L97.1358345,29.8154514 C87.9178663,23.5496573 75.5703476,24.7242892 67.6881386,32.6168405 L21.0367888,79.4622921 L19.0219464,77.2834339 C17.2244002,75.4354319 14.2753068,75.4005924 12.4349619,77.2056176 C10.594617,79.0106428 10.5599218,81.9720065 12.3574679,83.8200085 L14.5272981,85.9988667 L21.0367888,92.5354413 L27.8562552,99.3832814 L19.4869101,107.787449 L8.48277106,96.737525 C6.64242611,94.9324999 3.69333273,94.9673395 1.89578656,96.8153415 C0.0982403851,98.6633435 0.132935552,101.624707 1.97328038,103.429732 L12.9774194,114.479656 L19.4869101,121.016231 L30.491049,132.066155 C32.3421636,133.460267 34.9324505,133.275415 36.56862,131.632438 C38.2047896,129.989461 38.3888756,127.388396 37.0005397,125.52958 L25.9964007,114.479656 L34.5207338,106.075489 L41.3402002,112.923329 L47.8496908,119.459904 L50.0195211,121.638762 C51.859866,123.443787 54.8089595,123.408947 56.6065057,121.560945 C58.4040519,119.712943 58.3693567,116.75158 56.5290117,114.946554 L54.3591815,112.767696 L101.010531,66.0778773 C108.87038,58.1628729 110.040145,45.7639801 103.800313,36.5076587 L132.163094,8.02686925 C133.062588,7.14789498 133.57,5.94109577 133.57,4.68076557 C133.57,3.42043537 133.062588,2.21363616 132.163094,1.33466189 Z M95.3429486,58.2802231 L48.7571705,105 L41.9245897,98.170531 L35.4025808,91.6514923 L28.57,84.8220233 L36.8001541,76.5956174 L51.862889,91.6514923 L58.384898,85.1324537 L43.3221631,70.0765787 L48.1360268,65.2649074 L59.7824713,76.9060478 L66.4597662,70.3870091 L54.8133217,58.7458687 L59.6271854,53.9341973 L74.6899203,68.9900723 L81.2119292,62.4710337 L66.1491943,47.4151587 L70.9630581,42.6034873 L82.6095026,54.2446278 L89.1315115,47.7255891 L77.7956388,36.0844487 C83.3136248,32.677937 90.4512004,33.5134886 95.0323767,38.1022464 L95.4982345,38.567892 C100.927255,44.0182755 100.927255,52.8298396 95.4982345,58.2802231 L95.3429486,58.2802231 Z" id="Shape"></path>
                </g>
                <g id="Semibold-L" transform="translate(1479.070000, 837.000000)">
                    <path d="M128.565407,1.29452168 C126.811801,-0.431507227 124.005296,-0.431507227 122.25169,1.29452168 L94.5915989,28.9187461 C85.6508628,22.8413969 73.6746981,23.9807016 66.029548,31.6358829 L20.7812463,77.0724487 L18.8270007,74.9591201 C17.083516,73.1666971 14.2231171,73.1329054 12.4381209,74.8836441 C10.6531248,76.6343829 10.619473,79.5066829 12.3629576,81.299106 L14.4675297,83.4124346 L20.7812463,89.7524206 L27.3956159,96.3943106 L19.2779804,104.545721 L8.60479298,93.8281258 C6.81979675,92.0773871 3.95939791,92.1111789 2.21591328,93.9036019 C0.472428644,95.6960249 0.506080348,98.568325 2.29107646,100.319064 L12.9642639,111.036659 L19.2779804,117.376645 L29.9511679,128.09424 C31.7466098,129.446424 34.2589933,129.267132 35.8459548,127.673568 C37.4329163,126.080003 37.6114658,123.557166 36.2648844,121.754254 L25.5916969,111.036659 L33.8596591,102.885249 L40.4740287,109.527139 L46.7877453,115.867124 L48.8923174,117.980453 C50.6773136,119.731192 53.5377126,119.6974 55.2811972,117.904977 C57.0246819,116.112554 56.9910302,113.240254 55.2060339,111.489515 L53.1014618,109.376187 L98.3497635,64.0905728 C105.973226,56.4136136 107.10781,44.3876198 101.055642,35.409684 L128.565407,7.78545965 C129.437848,6.93292069 129.93,5.7624162 129.93,4.53999067 C129.93,3.31756514 129.437848,2.14706064 128.565407,1.29452168 Z M92.8220205,56.5962732 L47.5485178,102 L40.9084041,95.3629104 L34.5701137,89.0275066 L27.93,82.390417 L35.9283188,74.3957408 L50.5667513,89.0275066 L56.9050417,82.6921029 L42.2666092,68.0603371 L46.9448711,63.3842057 L58.2632468,74.6974267 L64.7524488,68.362023 L53.4340732,57.048802 L58.1123351,52.3726707 L72.7507676,67.0044365 L79.089058,60.6690327 L64.4506255,46.0372669 L69.1288874,41.3611356 L80.4472631,52.6743566 L86.7855534,46.3389528 L75.7690011,35.0257318 C81.1315508,31.7151782 88.0680679,32.5271931 92.5201971,36.9866901 L92.9729321,37.439219 C98.2490226,42.7360705 98.2490226,51.2994216 92.9729321,56.5962732 L92.8220205,56.5962732 Z" id="Shape"></path>
                </g>
                <g id="Medium-L" transform="translate(1182.380000, 837.000000)">
                    <path d="M127.265985,1.28448663 C125.525973,-0.42816221 122.741224,-0.42816221 121.001212,1.28448663 L93.55554,28.6945697 C84.6841119,22.6643318 72.8007857,23.7948047 65.2149003,31.3906435 L20.3173606,76.4749879 L18.3782642,74.3780416 C16.6482949,72.5995134 13.8100697,72.5659836 12.0389107,74.3031508 C10.2677517,76.0403179 10.2343608,78.8903521 11.96433,80.6688804 L14.0525877,82.7658266 L20.3173606,89.0566654 L26.8804561,95.6470679 L18.825748,103.735289 L8.23529846,93.100776 C6.46413941,91.3636089 3.6259142,91.3971388 1.89594496,93.175667 C0.165975709,94.9541953 0.199366547,97.8042294 1.97052548,99.5413966 L12.560975,110.17591 L18.825748,116.466748 L29.4161976,127.101262 C31.1977214,128.442964 33.690629,128.265061 35.2652885,126.68385 C36.8399479,125.102639 37.0171134,122.599359 35.6809706,120.810423 L25.090521,110.17591 L33.2943904,102.087688 L39.8574859,108.678091 L46.1222589,114.96893 L48.2105165,117.065876 C49.9816756,118.803043 52.8199008,118.769513 54.5498701,116.990985 C56.2798394,115.212457 56.2464485,112.362423 54.4752895,110.625255 L52.3870318,108.528309 L97.2845715,63.5937466 C104.848937,55.9762988 105.974726,44.0435297 99.9694742,35.1351904 L127.265985,7.72510725 C128.131664,6.87917712 128.62,5.7177463 128.62,4.50479694 C128.62,3.29184758 128.131664,2.13041676 127.265985,1.28448663 Z M91.5715564,56.2542982 L46.9541915,101 L40.4103113,94.4591001 L34.1638802,88.2155138 L27.62,81.6746138 L35.5024011,73.7958025 L49.9286825,88.2155138 L56.1751136,81.9719275 L41.7488322,67.5522162 L46.3592933,62.9438549 L57.5136345,74.0931162 L63.9087901,67.8495299 L52.7544489,56.7002686 L57.3649099,52.0919073 L71.7911913,66.5116185 L78.0376224,60.2680322 L63.611341,45.848321 L68.2218021,41.2399597 L79.3761433,52.3892209 L85.6225744,46.1456346 L74.7656823,34.9963734 C80.0505139,31.7337988 86.8865017,32.5340454 91.2741073,36.928912 L91.7202809,37.3748825 C96.9199064,42.5949681 96.9199064,51.0342126 91.7202809,56.2542982 L91.5715564,56.2542982 Z" id="Shape"></path>
                </g>
                <g id="Regular-L" transform="translate(887.990000, 837.000000)">
                    <path d="M124.677142,1.26441653 C122.964318,-0.421472175 120.22308,-0.421472175 118.510256,1.26441653 L91.4934222,28.2462171 C82.7606101,22.3102016 71.0629609,23.4230108 63.595605,30.9001647 L19.3995894,75.2800662 L17.4907914,73.2158847 C15.7878528,71.465146 12.9939749,71.4321401 11.2504902,73.142164 C9.50700558,74.8521879 9.4741364,77.6576903 11.1770748,79.4084291 L13.2327035,81.4726106 L19.3995894,87.665155 L25.8601365,94.1525824 L17.9312832,102.114425 L7.50630942,91.6460764 C5.76282473,89.9360525 2.9689468,89.9690585 1.26600832,91.7197972 C-0.436930161,93.470536 -0.404061056,96.2760384 1.33942352,97.9860623 L11.7643973,108.454411 L17.9312832,114.646956 L28.356257,125.115304 C30.1099445,126.436042 32.5639004,126.26092 34.1139558,124.704415 C35.6640112,123.14791 35.8384085,120.683744 34.5231429,118.92276 L24.0981691,108.454411 L32.173853,100.492568 L38.6344002,106.979996 L44.8012861,113.17254 L46.8569147,115.236722 C48.6003994,116.946746 51.3942774,116.91374 53.0972159,115.163001 C54.8001544,113.412262 54.7672853,110.60676 53.0238006,108.896736 L50.968172,106.832554 L95.1641876,62.6000943 C102.61036,55.1016691 103.718559,43.3553496 97.8071387,34.586203 L124.677142,7.60440245 C125.529294,6.77168998 126.01,5.62840652 126.01,4.43440949 C126.01,3.24041246 125.529294,2.097129 124.677142,1.26441653 Z M90.0210923,54.9123232 L46.0598651,99 L39.6122185,92.5552898 L33.4576467,86.4035209 L27.01,79.9588107 L34.7764835,72.1958643 L48.9906136,86.4035209 L55.1451854,80.2517521 L40.9310553,66.0440954 L45.4737154,61.5035041 L56.4640222,72.4888057 L62.7651315,66.3370368 L51.7748247,55.3517353 L56.3174848,50.811144 L70.5316149,65.0188006 L76.6861867,58.8670318 L62.4720566,44.6593751 L67.0147168,40.1187838 L78.0050236,51.1040853 L84.1595954,44.9523165 L73.4623634,33.967015 C78.6694769,30.7524194 85.4049355,31.5408977 89.7280175,35.8711339 L90.1676298,36.310546 C95.2907901,41.4538656 95.2907901,49.7690036 90.1676298,54.9123232 L90.0210923,54.9123232 Z" id="Shape"></path>
                </g>
                <g id="Bold-M" transform="translate(1787.820000, 420.000000)">
                    <path d="M105.058706,1.06371549 C103.617759,-0.35457183 101.311638,-0.35457183 99.8706913,1.06371549 L77.142244,23.7626906 C69.7955927,18.7688998 59.9547131,19.7050726 53.6726518,25.9953766 L16.4918768,63.3308493 L14.8860626,61.5943157 C13.4534317,60.121472 11.1030265,60.0937052 9.63628543,61.5322967 C8.16954438,62.9708882 8.14189252,65.3310728 9.57452328,66.8039165 L11.3038617,68.5404502 L16.4918768,73.750051 L21.9269402,79.2077281 L15.2566351,85.9057863 L6.48641904,77.0990801 C5.01967795,75.6604886 2.6692727,75.6882556 1.23664192,77.1610993 C-0.195988866,78.6339429 -0.168337079,80.9941275 1.29840391,82.4327191 L10.06862,91.2394252 L15.2566351,96.4490261 L24.0268511,105.255732 C25.5021755,106.366829 27.5666147,106.219504 28.8706295,104.910063 C30.1746444,103.600623 30.3213595,101.527594 29.2148662,100.046131 L20.4446502,91.2394252 L27.2384795,84.541367 L32.673543,89.9990441 L37.8615581,95.2086449 L39.5908965,96.9451785 C41.0576376,98.3837701 43.4080429,98.3560032 44.8406737,96.8831595 C46.2733045,95.4103158 46.2456527,93.0501311 44.7789116,91.6115396 L43.0495732,89.875006 L80.2303483,52.6635714 C86.4945888,46.3553724 87.4268826,36.473548 82.4537833,29.0963295 L105.058706,6.39735444 C105.775596,5.69681855 106.18,4.73500866 106.18,3.73053497 C106.18,2.72606128 105.775596,1.76425138 105.058706,1.06371549 Z M74.7864517,47.4925735 L37.3866017,85 L31.9012903,79.5171868 L26.6653113,74.2835924 L21.18,68.8007792 L27.7873068,62.1964815 L39.879925,74.2835924 L45.115904,69.049998 L33.0232858,56.9628871 L36.887937,53.099996 L46.2378995,62.4457003 L51.5985447,57.2121059 L42.2485822,47.8664016 L46.1132333,44.0035105 L58.2058515,56.0906214 L63.4418305,50.857027 L51.3492123,38.7699161 L55.2138635,34.907025 L64.563826,44.2527293 L69.799805,39.0191349 L60.6991748,29.6734306 C65.1291072,26.9386255 70.8592735,27.6094204 74.5371193,31.2933527 L74.9111178,31.6671809 C79.2696274,36.0428409 79.2696274,43.1169135 74.9111178,47.4925735 L74.7864517,47.4925735 Z" id="Shape"></path>
                </g>
                <g id="Semibold-M" transform="translate(1492.380000, 421.000000)">
                    <path d="M102.530441,1.03361033 C101.130275,-0.344536778 98.8894222,-0.344536778 97.4892566,1.03361033 L75.4040673,23.0901616 C68.26534,18.2377045 58.702976,19.1473819 52.5987088,25.2596584 L16.4702199,61.5384668 L14.9098533,59.8510804 C13.5177686,58.419921 11.2338842,58.39294 9.80865471,59.7908166 C8.3834252,61.1886933 8.35655594,63.4820802 9.74864054,64.9132397 L11.4290354,66.6006261 L16.4702199,71.6627854 L21.7514608,76.9659999 L15.2699379,83.4744905 L6.74793548,74.9170307 C5.32270593,73.5191541 3.03882159,73.5461351 1.64673696,74.9772946 C0.254652328,76.408454 0.281521518,78.7018409 1.70675097,80.0997176 L10.2287534,88.6571774 L15.2699379,93.7193367 L23.7919402,102.276796 C25.2255102,103.356447 27.2315218,103.213291 28.4986306,101.940911 C29.7657393,100.66853 29.9083022,98.6541717 28.8331247,97.2146371 L20.3111224,88.6571774 L26.9126735,82.1486868 L32.1939144,87.4519013 L37.2350989,92.5140606 L38.9154938,94.2014471 C40.3407233,95.5993238 42.6246077,95.5723427 44.0166924,94.1411833 C45.408777,92.7100238 45.3819078,90.4166369 43.9566783,89.0187602 L42.2762834,87.3313737 L78.4047724,51.173093 C84.491723,45.0434279 85.3976312,35.4412778 80.56528,28.2728485 L102.530441,6.21629724 C103.227042,5.53558784 103.62,4.60099898 103.62,3.62495379 C103.62,2.6489086 103.227042,1.71431974 102.530441,1.03361033 Z M73.3455236,45.8086235 L37.257949,82 L31.9651047,76.7095662 L26.9128443,71.6596067 L21.62,66.369173 L27.9954715,59.996605 L39.6637873,71.6596067 L44.7160477,66.6096472 L33.0477319,54.9466455 L36.7767813,51.2192944 L45.798675,60.2370793 L50.9712273,55.1871198 L41.9493337,46.1693349 L45.678383,42.4419839 L57.3466988,54.1049856 L62.3989593,49.0550261 L50.7306435,37.3920243 L54.4596929,33.6646733 L63.4815865,42.6824581 L68.5338469,37.6324986 L59.7525371,28.6147138 C64.0270333,25.9758667 69.5561411,26.6231249 73.1049397,30.1777965 L73.4658155,30.5385079 C77.6713948,34.7606359 77.6713948,41.5864955 73.4658155,45.8086235 L73.3455236,45.8086235 Z" id="Shape"></path>
                </g>
                <g id="Medium-M" transform="translate(1196.640000, 421.000000)">
                    <path d="M100.291598,1.01354023 C98.9186196,-0.337846744 96.7212781,-0.337846744 95.3483002,1.01354023 L73.6919495,22.6418089 C66.6918383,17.8835743 57.3151512,18.7755881 51.3294135,24.7691796 L15.9024486,60.3435451 L14.3723804,58.6889235 C13.0073265,57.2855536 10.7677894,57.2590965 9.37023423,58.6298299 C7.97267908,60.0005633 7.94633156,62.2494184 9.31138539,63.6527884 L10.9591512,65.3074101 L15.9024486,70.271275 L21.0811412,75.4715145 L14.725473,81.8536266 L6.36894644,73.462331 C4.97139125,72.0915977 2.73185418,72.1180548 1.36680032,73.5214248 C0.00174645789,74.9247947 0.0280939156,77.1736498 1.42564901,78.5443833 L9.78217562,86.9356788 L14.725473,91.8995437 L23.0819997,100.290839 C24.4877333,101.349526 26.4547932,101.20915 27.6972979,99.9614754 C28.9398026,98.713801 29.0795973,96.7385567 28.0252971,95.3269743 L19.6687705,86.9356788 L26.1421362,80.5535667 L31.3208287,85.7538062 L36.2641261,90.7176711 L37.9118919,92.3722928 C39.3094471,93.7430262 41.5489843,93.7165691 42.9140381,92.3131991 C44.279092,90.9098292 44.2527445,88.660974 42.8551894,87.2902406 L41.2074236,85.6356189 L76.6343885,50.1794407 C82.6031459,44.1687982 83.4914636,34.7530977 78.7529445,27.7238612 L100.291598,6.09559244 C100.974672,5.4281007 101.36,4.51165919 101.36,3.55456634 C101.36,2.59747348 100.974672,1.68103197 100.291598,1.01354023 Z M71.1450595,45.4666486 L35.7136226,81 L30.5170119,75.8057559 L25.5566107,70.8476139 L20.36,65.6533698 L26.6195538,59.3966667 L38.0757184,70.8476139 L43.0361196,65.8894718 L31.579955,54.4385247 L35.2412035,50.7789436 L44.0990627,59.6327687 L49.1775686,54.6746267 L40.3197094,45.8208016 L43.9809579,42.1612205 L55.4371225,53.6121677 L60.3975236,48.6540256 L48.9413591,37.2030785 L52.6026075,33.5434974 L61.4604667,42.3973225 L66.4208679,37.4391805 L57.7992183,28.5853553 C61.9959963,25.9944873 67.4245749,26.6299772 70.9088499,30.1200184 L71.2631643,30.4741714 C75.3922786,34.6195335 75.3922786,41.3212865 71.2631643,45.4666486 L71.1450595,45.4666486 Z" id="Shape"></path>
                </g>
                <g id="Regular-M" transform="translate(901.200000, 422.000000)">
                    <path d="M97.7633323,0.983435075 C96.4311359,-0.327811692 94.2990619,-0.327811692 92.9668655,0.983435075 L71.9537728,21.96928 C65.1615857,17.352379 56.063414,18.2178973 50.2554706,24.0334614 L15.8807917,58.5511626 L14.3961711,56.9456881 C13.0716633,55.5840025 10.8986471,55.5583312 9.54260351,56.8883498 C8.1865599,58.2183684 8.16099497,60.4004258 9.48550265,61.7621115 L11.0843249,63.367586 L15.8807917,68.1840094 L20.9056617,73.2297863 L14.7387758,79.4223307 L6.63046288,71.2802816 C5.27441924,69.9502631 3.10140306,69.9759344 1.77689536,71.3376201 C0.452387652,72.6993057 0.477952512,74.8813632 1.83399607,76.2113818 L9.94230902,84.3534309 L14.7387758,89.1698543 L22.8470888,97.3119034 C24.2110679,98.3391441 26.1197003,98.2029374 27.325299,96.9923226 C28.5308976,95.7817079 28.6665399,93.8651342 27.6435556,92.49548 L19.5352426,84.3534309 L25.8163301,78.1608865 L30.8412001,83.2066634 L35.6376669,88.0230868 L37.2364892,89.6285613 C38.5925328,90.9585799 40.7655491,90.9329086 42.0900568,89.5712229 C43.4145646,88.2095372 43.3889997,86.0274797 42.032956,84.6974611 L40.4341337,83.0919867 L74.8088126,48.6889623 C80.6002802,42.8568537 81.4622122,33.7208274 76.8644412,26.9003801 L97.7633323,5.91453524 C98.4261175,5.26686998 98.8,4.37764951 98.8,3.44898516 C98.8,2.5203208 98.4261175,1.63110033 97.7633323,0.983435075 Z M69.7041314,43.7826986 L35.5849699,78 L30.5808263,72.9981353 L25.8041437,68.2236282 L20.8,63.2217635 L26.8277185,57.1967902 L37.8595807,68.2236282 L42.6362633,63.449121 L31.6044011,52.422283 L35.1300478,48.898242 L43.6598381,57.4241477 L48.5502513,52.6496405 L40.0204609,44.1237348 L43.5461076,40.5996938 L54.5779698,51.6265318 L59.3546524,46.8520246 L48.3227902,35.8251867 L51.8484369,32.3011457 L60.3782272,40.8270513 L65.1549098,36.0525441 L56.8525806,27.5266385 C60.8939224,25.0317285 66.1214425,25.6436818 69.4766703,29.0044621 L69.8178619,29.3454984 C73.794046,33.3373285 73.794046,39.7908684 69.8178619,43.7826986 L69.7041314,43.7826986 Z" id="Shape"></path>
                </g>
                <g id="Bold-S" transform="translate(1799.780000, 2.000000)">
                    <path d="M81.3525842,0.822874247 C80.2378892,-0.274291416 78.453909,-0.274291416 77.339214,0.822874247 L59.7568303,18.3824587 C54.0735717,14.5193376 46.4608158,15.2435467 41.601108,20.109631 L12.8386217,48.9917891 L11.596388,47.6484329 C10.4881264,46.5090633 8.66988841,46.4875833 7.53523967,47.600456 C6.40059094,48.7133286 6.37919988,50.5391318 7.4874614,51.6785015 L8.82525147,53.0218577 L12.8386217,57.0519262 L17.0431047,61.2739028 L11.8830573,66.4554196 L5.09855058,59.6426846 C3.96390181,58.529812 2.14566379,58.551292 1.03740224,59.6906617 C-0.0708593114,60.8300313 -0.0494683061,62.6558345 1.08518039,63.7687072 L7.86968714,70.5814422 L11.8830573,74.6115107 L18.6675641,81.4242457 C19.8088528,82.2837736 21.4058717,82.1698048 22.4146379,81.1568414 C23.4234041,80.143878 23.5369008,78.5402144 22.6809343,77.3941771 L15.8964275,70.5814422 L21.1520313,65.3999254 L25.3565144,69.621902 L29.3698846,73.6519706 L30.7076746,74.9953268 C31.8423234,76.1081995 33.6605615,76.0867195 34.768823,74.9473498 C35.8770846,73.8079801 35.8556936,71.9821769 34.7210448,70.8693042 L33.3832548,69.525948 L62.1457411,40.7397439 C66.991663,35.8598164 67.7128715,28.2153862 63.8657569,22.5084813 L81.3525842,4.94889683 C81.9071595,4.40697284 82.22,3.66293123 82.22,2.88588554 C82.22,2.10883985 81.9071595,1.36479824 81.3525842,0.822874247 Z M57.6004188,37.0468988 L28.7303592,66 L24.4960838,61.767653 L20.4542754,57.7276854 L16.22,53.4953384 L21.3203772,48.397284 L30.6550298,57.7276854 L34.6968382,53.6877178 L25.3621856,44.3573164 L28.3454251,41.3754355 L35.56294,48.5896634 L39.7009819,44.5496958 L32.4834669,37.3354679 L35.4667064,34.3535871 L44.8013591,43.6839885 L48.8431674,39.6440209 L39.5085148,30.3136195 L42.4917543,27.3317386 L49.7092692,34.5459665 L53.7510776,30.5059989 L46.7260297,23.291771 C50.1456266,21.1806933 54.5689129,21.6985 57.4079518,24.5422372 L57.6966524,24.8308063 C61.0611159,28.2085087 61.0611159,33.6691964 57.6966524,37.0468988 L57.6004188,37.0468988 Z" id="Shape"></path>
                </g>
                <g id="Semibold-S" transform="translate(1503.970000, 2.000000)">
                    <path d="M80.1731624,0.812839195 C79.0720613,-0.270946398 77.3098369,-0.270946398 76.2087358,0.812839195 L58.8407714,18.1582824 C53.2268208,14.3422725 45.7069034,15.0576498 40.9064604,19.8643916 L12.494736,48.3943283 L11.2676516,47.0673545 C10.1729054,45.9418796 8.37684099,45.9206615 7.25602943,47.0199626 C6.13521788,48.1192637 6.11408768,49.9228009 7.20883383,51.0482759 L8.53030938,52.3752497 L12.494736,56.356171 L16.6479449,60.5266601 L11.5508249,65.6449876 L4.84905606,58.9153348 C3.72824447,57.8160338 1.93218008,57.8372519 0.837433918,58.9627268 C-0.257312247,60.0882017 -0.236182107,61.8917389 0.884629406,62.99104 L7.58639827,69.7206929 L11.5508249,73.7016143 L18.2525938,80.4312671 C19.3799643,81.280313 20.9575074,81.167734 21.9539716,80.1671238 C22.9504358,79.1665137 23.0625483,77.5824069 22.2170204,76.4503457 L15.5152516,69.7206929 L20.7067627,64.6023654 L24.8599715,68.7728544 L28.8243982,72.7537758 L30.1458737,74.0807496 C31.2666853,75.1800507 33.0627497,75.1588326 34.1574959,74.0333577 C35.2522421,72.9078828 35.231112,71.1043455 34.1103004,70.0050444 L32.7888248,68.6780706 L61.2005492,40.2429178 C65.9873744,35.4225016 66.6997877,27.8712961 62.8995892,22.2339877 L80.1731624,4.88854443 C80.7209746,4.35322927 81.03,3.61826133 81.03,2.85069181 C81.03,2.0831223 80.7209746,1.34815436 80.1731624,0.812839195 Z M57.4104188,36.0468988 L28.5403592,65 L24.3060838,60.767653 L20.2642754,56.7276854 L16.03,52.4953384 L21.1303772,47.397284 L30.4650298,56.7276854 L34.5068382,52.6877178 L25.1721856,43.3573164 L28.1554251,40.3754355 L35.37294,47.5896634 L39.5109819,43.5496958 L32.2934669,36.3354679 L35.2767064,33.3535871 L44.6113591,42.6839885 L48.6531674,38.6440209 L39.3185148,29.3136195 L42.3017543,26.3317386 L49.5192692,33.5459665 L53.5610776,29.5059989 L46.5360297,22.291771 C49.9556266,20.1806933 54.3789129,20.6985 57.2179518,23.5422372 L57.5066524,23.8308063 C60.8711159,27.2085087 60.8711159,32.6691964 57.5066524,36.0468988 L57.4104188,36.0468988 Z" id="Shape"></path>
                </g>
                <g id="Medium-S" transform="translate(1207.950000, 2.000000)">
                    <path d="M78.2143189,0.792769091 C77.1404055,-0.264256364 75.4216928,-0.264256364 74.3477793,0.792769091 L57.4086536,17.7099298 C51.9333191,13.9881423 44.5990787,14.685856 39.917165,19.3739128 L12.2069648,47.1994066 L11.0101787,45.9051976 C9.94246328,44.8075122 8.19074615,44.786818 7.09760895,45.8589759 C6.00447176,46.9311337 5.9838633,48.6901392 7.05157867,49.7878246 L8.34042519,51.0820336 L12.2069648,54.9646607 L16.2576253,59.0321747 L11.2863601,64.0241237 L4.75006702,57.4606352 C3.65692979,56.3884774 1.90521267,56.4091716 0.837497278,57.506857 C-0.230218117,58.6045424 -0.20960971,60.3635479 0.883527445,61.4357057 L7.41982053,67.9991943 L11.2863601,71.8818213 L17.8226532,78.4453099 C18.9221874,79.2733917 20.4607789,79.1635924 21.432639,78.1876887 C22.4044991,77.2117849 22.5138434,75.6667919 21.6891928,74.5626829 L15.1528997,67.9991943 L20.2162253,63.0072452 L24.2668858,67.0747593 L28.1334254,70.9573863 L29.4222719,72.2515953 C30.5154091,73.3237532 32.2671263,73.303059 33.3348417,72.2053736 C34.4025571,71.1076882 34.3819487,69.3486826 33.2888115,68.2765248 L31.999965,66.9823158 L59.7101652,39.2492655 C64.3787973,34.5478719 65.0736201,27.183116 61.3672536,21.6850003 L78.2143189,4.76783963 C78.7486049,4.24574213 79.05,3.52892155 79.05,2.78030436 C79.05,2.03168718 78.7486049,1.31486659 78.2143189,0.792769091 Z M56.4899548,34.7049239 L28.2760328,63 L24.137991,58.8638427 L20.1880419,54.9156925 L16.05,50.7795352 L21.0344595,45.7973457 L30.156961,54.9156925 L34.10691,50.9675424 L24.9844086,41.8491956 L27.8998472,38.9350847 L34.9533277,45.9853529 L38.9973232,42.0372027 L31.9438427,34.9869346 L34.8592813,32.0728237 L43.9817827,41.1911705 L47.9317318,37.2430204 L38.8092304,28.1246736 L41.724669,25.2105627 L48.7781494,32.2608309 L52.7280985,28.3126807 L45.8627108,21.2624126 C49.2045897,19.199314 53.5273467,19.7053522 56.301862,22.4844591 L56.5840012,22.7664698 C59.8719996,26.0674063 59.8719996,31.4039874 56.5840012,34.7049239 L56.4899548,34.7049239 Z" id="Shape"></path>
                </g>
                <g id="Regular-S" transform="translate(911.140000, 2.000000)">
                    <path d="M78.0348971,0.78273404 C76.9745775,-0.260911347 75.2776207,-0.260911347 74.2173011,0.78273404 L57.4925947,17.4857534 C52.0865682,13.8110772 44.8451663,14.4999591 40.2225174,19.1286734 L12.8630791,46.6019457 L11.6814423,45.3241191 C10.6272422,44.2403285 8.89769873,44.2198963 7.81839871,45.2784825 C6.7390987,46.3370687 6.7187511,48.0738083 7.77295109,49.157599 L9.0454831,50.4354256 L12.8630791,54.2689055 L16.8624655,58.284932 L11.9541277,63.2136918 L5.5005725,56.7332854 C4.42127245,55.6746992 2.69172897,55.6951315 1.63752896,56.7789221 C0.583328948,57.8627127 0.603676489,59.5994523 1.68297646,60.6580386 L8.13653167,67.138445 L11.9541277,70.9719249 L18.4076829,77.4523313 C19.493299,78.269931 21.0124146,78.1615216 21.9719727,77.1979711 C22.9315308,76.2344206 23.039491,74.7089844 22.2252789,73.6188514 L15.7717237,67.138445 L20.7709566,62.2096852 L24.770343,66.2257117 L28.587939,70.0591916 L29.860471,71.3370182 C30.939771,72.3956044 32.6693146,72.3751722 33.7235146,71.2913815 C34.7777146,70.2075908 34.7573671,68.4708512 33.678067,67.412265 L32.405535,66.1344384 L59.7649733,38.7524393 C64.3745087,34.1105571 65.0605363,26.8390259 61.4010859,21.4105066 L78.0348971,4.70748723 C78.56242,4.19199856 78.86,3.48425165 78.86,2.74511064 C78.86,2.00596962 78.56242,1.29822271 78.0348971,0.78273404 Z M56.3594907,34.3629489 L28.8017065,62 L24.7598981,57.9600324 L20.9018084,54.1036997 L16.86,50.0637321 L21.7285419,45.1974075 L30.6388921,54.1036997 L34.4969819,50.247367 L25.5866317,41.3410747 L28.4342694,38.4947339 L35.3237154,45.3810423 L39.2736645,41.5247096 L32.3842184,34.6384012 L35.2318561,31.7920604 L44.1422064,40.6983526 L48.0002962,36.8420199 L39.0899459,27.9357277 L41.9375836,25.0893869 L48.8270297,31.9756953 L52.6851195,28.1193626 L45.979392,21.2330542 C49.2435527,19.2179346 53.4657805,19.7122045 56.1757722,22.4266809 L56.45135,22.7021333 C59.6628833,25.9263038 59.6628833,31.1387784 56.45135,34.3629489 L56.3594907,34.3629489 Z" id="Shape"></path>
                </g>
            </g>
        </g>
    </g>
</svg>